<?xml version="1.0" encoding="UTF-8" standalone="no"?>
<!-- Created with Inkscape (http://www.inkscape.org/) -->

<svg
   version="1.1"
   id="svg1"
   width="291.53384"
   height="366.45395"
   viewBox="0 0 291.53384 366.45395"
   sodipodi:docname="Ad Fontes Crest Logo.svg"
   inkscape:version="1.3.2 (091e20e, 2023-11-25)"
   xmlns:inkscape="http://www.inkscape.org/namespaces/inkscape"
   xmlns:sodipodi="http://sodipodi.sourceforge.net/DTD/sodipodi-0.dtd"
   xmlns="http://www.w3.org/2000/svg"
   xmlns:svg="http://www.w3.org/2000/svg">
  <defs
     id="defs1" />
  <sodipodi:namedview
     id="namedview1"
     pagecolor="#ffffff"
     bordercolor="#666666"
     borderopacity="1.0"
     inkscape:showpageshadow="2"
     inkscape:pageopacity="0.0"
     inkscape:pagecheckerboard="0"
     inkscape:deskcolor="#d1d1d1"
     showgrid="false"
     inkscape:zoom="0.86662544"
     inkscape:cx="178.27771"
     inkscape:cy="175.39296"
     inkscape:window-width="1784"
     inkscape:window-height="801"
     inkscape:window-x="11"
     inkscape:window-y="115"
     inkscape:window-maximized="0"
     inkscape:current-layer="layer1">
    <inkscape:page
       x="0"
       y="0"
       inkscape:label="1"
       id="page1"
       width="291.53384"
       height="366.45395"
       margin="0"
       bleed="0" />
  </sodipodi:namedview>
  <g
     inkscape:groupmode="layer"
     id="layer3"
     inkscape:label="Graphic"
     transform="matrix(0.33294017,0,0,0.3329582,0.42529311,38.220581)"
     style="display:none;stroke-width:3.00346">
    <g
       id="group-R5-3"
       transform="translate(61.094521,-0.3607739)"
       style="display:inline;stroke-width:3.00346">
      <path
         id="path4-2"
         d="m 3803.03,1380.82 c -49.12,-12.64 -98.8,-25.78 -149.63,-43.44 -183.09,-63.91 -378.6,-168.59 -546.4,-246.56 -106.05,-49.33 -226.31,-111.789 -298.47,-212.308 -362.51,285.108 -779.09,398.768 -1196.89,582.358 -124.07,54.5 -498.36,295.46 -580.71,354.33 -230.84,165.21 -152.364,564.06 -152.364,807.1 v 4040 H 4747.98 V 5911.71 3654.27 2464.41 c 0,-230.55 68.85,-429.14 -92.63,-614.89 -157.88,-181.58 -369.4,-265.94 -579.13,-375.29 -91.54,-47.82 -181.36,-69.79 -273.19,-93.41"
         style="display:inline;fill:#461418;fill-opacity:1;fill-rule:nonzero;stroke:none;stroke-width:3.00346"
         transform="matrix(0.13333333,0,0,-0.13333333,0,902.66667)" />
      <path
         id="path5-6"
         d="M 3972.43,970.012 H 2823.4 V 3678.14 H 4663.76 V 1565.32 L 3972.43,970.012"
         style="display:inline;fill:#ffffff;fill-opacity:1;fill-rule:nonzero;stroke:none;stroke-width:3.00346"
         transform="matrix(0.13333333,0,0,-0.13333333,0,902.66667)" />
      <path
         id="path6-9"
         d="M 4663.76,5436.08 H 975.648 V 6565.7 H 4663.76 V 5436.08"
         style="display:inline;fill:#ffffff;fill-opacity:1;fill-rule:nonzero;stroke:none;stroke-width:3.00346"
         transform="matrix(0.13333333,0,0,-0.13333333,0,902.66667)" />
      <path
         id="path7-4"
         d="M 2816.01,3670.6 H 960.715 V 5323.86 H 2816.01 V 3670.6"
         style="display:inline;fill:#ffffff;fill-opacity:1;fill-rule:nonzero;stroke:none;stroke-width:3.00346"
         transform="matrix(0.13333333,0,0,-0.13333333,0,902.66667)" />
      <path
         id="path8-1"
         d="m 1630.87,5246.19 h 388.43 v -81.78 H 1893.72 V 4618.3 l 594.29,-1.43 v 154.8 l 68.64,1.36 -2.95,-455.57 h -70 v 154.8 H 1896.6 V 3829.8 h 119.83 v -70.07 h -388.51 v 64.25 h 137.28 v 648.28 h -549.05 v -148.91 h -75.89 v 458.51 h 73.02 V 4618.3 h 551.92 v 540.29 h -137.28 l 2.95,87.6"
         style="display:inline;fill:#1d1d35;fill-opacity:1;fill-rule:nonzero;stroke:none;stroke-width:3.00346"
         transform="matrix(0.13333333,0,0,-0.13333333,0,902.66667)" />
      <path
         id="path9-3"
         d="m 1581.22,5035.92 h -122.64 v 143.09 h -67.2 v -140.15 h -128.45 v -87.67 h 119.69 V 4808.1 h 75.96 v 140.22 h 125.58 l -2.94,87.6"
         style="display:inline;fill:#1d1d35;fill-opacity:1;fill-rule:nonzero;stroke:none;stroke-width:3.00346"
         transform="matrix(0.13333333,0,0,-0.13333333,0,902.66667)" />
      <path
         id="path10-7"
         d="m 2413.54,5035.92 h -122.63 v 143.09 h -67.21 v -140.15 h -128.45 v -87.67 h 119.69 V 4808.1 h 75.97 v 140.22 h 125.57 l -2.94,87.6"
         style="display:inline;fill:#1d1d35;fill-opacity:1;fill-rule:nonzero;stroke:none;stroke-width:3.00346"
         transform="matrix(0.13333333,0,0,-0.13333333,0,902.66667)" />
      <path
         id="path11-8"
         d="m 1584.15,4168.59 h -122.63 v 143.02 h -67.2 v -140.15 h -128.53 v -87.6 h 119.77 v -143.09 h 75.96 v 140.15 h 125.58 l -2.95,87.67"
         style="display:inline;fill:#1d1d35;fill-opacity:1;fill-rule:nonzero;stroke:none;stroke-width:3.00346"
         transform="matrix(0.13333333,0,0,-0.13333333,0,902.66667)" />
      <path
         id="path12-8"
         d="m 2413.54,4171.47 h -122.63 v 143.09 h -67.21 v -140.15 h -128.45 v -87.59 h 119.69 v -143.17 h 75.97 v 140.22 h 125.57 l -2.94,87.6"
         style="display:inline;fill:#1d1d35;fill-opacity:1;fill-rule:nonzero;stroke:none;stroke-width:3.00346"
         transform="matrix(0.13333333,0,0,-0.13333333,0,902.66667)" />
      <path
         id="path13-3"
         d="m 4271.06,1891.12 c -1.15,23.05 -17.3,54.5 -9.4,76.25 5.6,15.51 7.75,19.39 12.7,36.4 3.52,11.85 -4.38,29.8 -6.6,43.08 -3.3,-6.6 -8.33,-29.65 -33.1,-23.19 -16.59,36.4 -31.74,73.88 -68.71,117.61 -47.03,55.5 -1.51,90.9 57.72,91.25 -24.41,7.76 -26.78,25.85 -58.73,26.43 -25.56,0.5 -44.66,-7.4 -65.77,-22.12 -46.81,28.79 -61.17,34.25 -79.98,51.98 -5.31,5.03 -11.35,17.74 -17.52,33.39 25.63,-4.81 56.44,-0.79 74.6,1.94 51.34,7.68 95.06,33.1 118.54,81.71 25.78,53.49 -2.66,113.8 -32.45,159.97 -12.78,19.88 -13.36,32.02 5.45,50.11 16.09,15.44 29.37,17.31 50.41,18.02 -20.97,16.74 -61.75,23.41 -85.01,7.26 -6.9,27.5 68.71,43.29 74.02,76.82 6.03,37.55 -51.05,77.55 -83.64,54.5 23.33,3.3 45.3,-13.29 34.17,-39.71 -10.41,-24.7 -45.3,-20.53 -67.13,-19.45 35.18,40.42 -9.84,70.5 -47.17,68.85 8.18,-12.49 25.06,-31.52 11.7,-48.75 -14.79,-19.1 -32.31,-1.37 -41.79,12.42 -15.65,22.76 -22.33,66.13 -24.91,93.77 -2.95,30.8 27.71,66.27 59.59,64.76 21.4,-1.07 33.03,-12.35 27.5,-34.82 -5.03,-20.32 -23.62,-25.49 -37.05,-36.76 56.8,-13.93 64.69,10.84 67.21,61.25 31.59,5.38 35.25,-15.95 54.42,-29.59 15.65,-11.13 43.94,-18.81 65.19,-11.84 15.51,5.02 47.18,31.16 56.65,44.23 16.88,23.33 8.26,35.54 -10.26,53.85 5.53,-37.13 -47.82,-60.39 -64.12,-24.63 22.04,12.2 85.59,59.3 37.34,86.95 -7.11,-24.7 -64.41,-34.18 -57.16,-4.6 27,1.22 44.81,0.36 61.18,25.92 10.98,17.23 12.49,52.85 8.04,73.88 -9.26,43.94 -96.93,56.29 -105.98,5.75 30.01,19.74 53.92,-17.95 41.5,-44.88 -13.71,-29.72 -57,-24.05 -84.29,-22.69 5.1,34.11 -54.14,45.16 -59.23,15.08 19.67,1.72 38.7,-20.32 26.49,-37.19 -7.97,-10.99 -25.27,-9.48 -36.76,-13 -45.45,-13.71 -84.58,-61.03 -92.98,-107.41 -7.33,-40.06 -8.76,-83 5.6,-121.7 10.84,-29.22 30.87,-53.13 50.19,-77.04 10.84,-13.43 28.93,-28.07 34.32,-45.45 7.03,-22.47 -9.34,-35.18 -10.06,-56.08 -1,-28.93 17.67,-53.84 32.39,-70 -1.8,15.3 0.07,37.98 9.26,50.12 13.64,18.02 19.38,9.69 35.97,-1.94 32.31,-22.62 44.09,-71.73 41.43,-108.49 -1.51,-19.74 -6.46,-40.93 -21.25,-54.92 -10.7,-10.06 -48.33,-27.29 -60.68,-11.21 -8.4,11.06 5.82,38.35 9.84,46.96 -18.16,-5.46 -26.56,-16.01 -34.53,-31.95 -10.7,-21.75 -3.31,-22.47 -32.31,-22.33 -13.65,0 -24.06,0.58 -33.25,2.08 -4.74,11.99 -9.19,21.47 -13.14,25.99 -0.07,0.22 -0.28,0.36 -0.5,0.5 -24.84,42.94 -74.24,68.07 -91.69,118.83 -17.51,50.84 -24.55,107.7 -45.95,156.67 -6.75,15.36 -14.64,31.66 -23.26,47.89 6.96,1.51 14.22,3.52 22.33,6.68 -47.25,22.4 -50.91,56.72 -47.75,67.99 16.01,-14.86 42.36,-40.57 64.05,-17.02 -16.88,1.3 -26.64,35.33 -24.7,50.19 2.08,15.51 19.53,32.24 31.66,42.87 15.65,13.71 31.81,21.39 38.49,42.5 1.94,6.18 6.46,50.12 2.36,52.92 20.4,-13.86 30.23,-38.77 58.95,-33.46 -4.59,23.84 -4.38,49.83 -4.81,75.75 7.25,-14.15 18.46,-22.62 35.33,-18.96 -5.24,4.6 -13.36,31.09 -12.42,44.3 23.12,0.43 42,2.37 61.6,16.09 -23.05,1.36 -25.27,26.28 -24.34,46.02 28.94,-3.45 51.12,29.94 62.04,54.28 -48.47,-33.32 -44.95,46.6 -37.2,74.74 18.1,-18.09 21.47,-20.46 22.48,-46.38 36.18,19.46 30.94,131.03 -17.74,132.04 9.33,10.7 27.86,6.32 41.36,9.84 -17.45,18.02 -23.91,28.36 -50.62,27.35 11.7,14.29 27.79,27.36 38.77,41.43 -15.36,0.86 -31.3,0 -46.67,0.79 -6.82,28.15 26.71,44.37 49.18,47.38 -11.05,7.47 -29.79,8.77 -44.08,6.97 -8.33,-1.15 -27.64,-9.33 -33.6,-5.74 -17.74,10.91 -6.04,60.45 5.6,71.8 -15.87,-5.31 -34.83,-15.58 -35.04,-33.61 -20.03,17.23 -35.33,30.95 -31.81,61.11 -21.54,-15.87 -27.21,-23.77 -27.78,-50.91 -30.59,-5.38 -36.41,16.73 -44.45,39.13 -16.15,-7.97 -6.68,-18.23 -11.84,-29.65 -6.61,-14.58 4.3,-9.77 -15.51,-15.44 -18.38,-5.31 -40.64,-5.53 -59.6,-9.33 -11.27,-2.37 -24.12,-3.88 -34.96,-7.54 -13,-4.31 -12.21,-6.03 -19.6,-12.42 -18.46,-15.87 -29.37,-27.86 -52.28,-37.2 -36.68,-14.79 -82.85,-9.91 -84.57,-57.22 -0.65,-20.46 -4.67,-43.22 9.97,-55.14 14.65,-11.99 34.97,-4.1 52.2,-14.5 l 1.65,-14.94 c 0,0 -104.46,-2.15 -123.99,-0.79 -24.05,1.58 -48.75,8.33 -39.71,30.45 4.89,11.91 24.06,17.08 34.75,20.96 26.79,9.76 45.38,41.36 21.26,67.06 -8.98,9.48 -21.47,18.09 -47.25,11.2 40,-30.58 -30.51,-60.52 -43.87,-82.57 -21.47,-35.32 -1.36,-66.48 34.76,-76.18 22.25,-5.96 162.4,1.65 162.48,1.65 -12.35,-0.29 -35.19,-5.74 -40.93,-17.66 -2.8,-6.03 0,-37.69 11.42,-35.76 26.99,4.89 52.48,11.49 81.56,9.63 35.11,-2.3 40.14,-7.97 36.98,-41.36 -38.85,-4.95 -227.46,-21.97 -218.85,38.56 -31.59,-20.39 -35.4,-65.34 2.23,-84.37 -34.82,1.37 -63.04,8.33 -81.78,44.09 -10.48,-12.06 -13.36,-32.46 -9.26,-49.9 -55.93,70.79 -114.02,144.31 -114.52,144.96 -22.55,28.72 8.11,69.64 -6.54,100.09 -14.29,29.79 -65.62,48.53 -94.48,29.29 -0.79,-0.57 23.19,-19.89 31.01,-43.94 -44.37,47.1 -113.51,-4.38 -111.07,-55.22 26.92,25.42 42.72,2.52 68.28,-5.31 -62.97,0.87 -82.21,-29.94 -78.12,-91.04 11.49,17.09 30.09,17.88 48.83,16.23 -0.65,-31.81 27.28,-34.39 52.27,-34.82 7.1,-23.7 -23.48,-30.16 -41.79,-30.02 30.37,-22.68 41.79,-23.33 74.46,-7.18 31.52,-53.2 9.11,-101.88 -52.06,-104.68 20.03,-12.35 42.72,-13.28 66.63,-14.72 -16.66,-36.26 -0.57,-63.76 17.09,-95.78 5.74,11.27 8.18,23.55 17.88,31.95 16.65,-6.68 12.85,-20.82 19.31,-33.31 7.54,-14.36 19.39,-24.99 29.94,-37.41 0.86,-1.01 1.72,-2.01 2.59,-2.94 -23.48,1.36 -47.25,-7.83 -63.9,-25.71 19.17,-0.57 39.63,0 52.12,-17.23 15.08,-20.9 -19.17,-63.68 -48.97,-93.48 -30.22,-30.23 -69.86,-69.51 -77.97,-73.67 -15.29,-7.9 -8.69,-1.58 -22.33,-0.07 -19.89,2.15 -34.68,9.12 -54.21,-5.67 -35.32,-26.71 -39.42,-57.87 -40.49,-100.45 15.86,22.4 35.9,27.86 62.18,26.13 -49.19,-41.86 0.28,-111.43 46.59,-96.64 -34.68,14.29 0,67.21 22.83,74.53 -1.86,-20.1 4.96,-44.01 18.46,-59.45 15.86,-18.38 35.97,-14.5 60.67,-15.08 -12.85,11.56 -27.93,22.98 -24.2,42.44 4.16,21.25 24.84,23.33 22.83,49.39 17.81,3.81 56.37,-7.68 52.42,-28.71 11.49,28.43 16.8,64.47 -7.26,86.44 23.7,8.55 116.39,12.92 86.67,-34.75 37.55,25.27 29.22,66.34 -5.03,89.82 14.22,20.39 33.89,32.31 52.27,45.16 12.85,-78.19 67.06,-141.23 145.97,-174.54 55.72,-23.55 91.4,-42.43 108.63,-92.55 -22.69,0.79 -45.66,1.65 -67.63,-0.5 -76.47,-7.69 -155.23,-11.13 -224.74,-48.04 -10.84,-5.81 -97.79,-65.33 -89.39,-72.01 -14,11.06 -22.97,30.15 -11.2,46.38 -37.55,-9.19 -24.05,-55.29 -9.98,-78.55 -16.73,-2.37 -33.67,0.94 -48.03,5.67 -0.29,-32.23 25.2,-31.01 49.04,-40.13 -26.64,-14.36 -46.17,-23.34 -46.17,-58.81 0,-16.51 11.78,-38.05 42,-46.81 -18.73,23.19 8.48,62.18 36.98,59.59 -4.09,-47.24 30.8,-94.41 70.15,-118.1 21.4,-12.86 41.64,-18.1 33.1,-50.41 -4.31,-16.73 -24.56,-35.39 -40.35,-45.52 -20.54,-13.14 -38.63,-18.67 -65.7,-14.14 -23.26,3.94 -34.1,19.88 -59.59,19.81 -46.46,0 -86.31,-55.42 -69.72,-98.29 24.56,22.19 31.02,26.56 65.84,24.99 -1.87,-48.11 20.39,-69.15 52.49,-74.75 -15.44,35.47 11.7,64.41 40.92,48.9 8.98,-4.74 11.63,-27 20.75,-35.76 9.84,-9.47 25.63,-12.78 38.41,-13.64 -16.15,59.09 32.53,80.7 63.4,95.64 40.57,19.67 86.09,7.75 132.11,10.48 -3.3,7.9 -10.05,18.52 -16.58,25.99 29.29,36.26 45.23,68.64 24.12,112.3 22.33,-6.75 67.14,-10.42 78.84,12.85 -32.67,3.3 -66.63,10.48 -99.23,17.3 -32.81,6.75 -62.97,37.98 -62.46,72.37 28.71,1.51 78.4,-2.44 81.85,36.48 -24.06,-2.01 -57.44,8.33 -42.72,33.67 27.21,46.74 108.13,57.8 161.62,56.44 -30.88,-97.72 -17.09,-170.53 70.5,-235.43 -25.27,-17.45 -74.52,11.56 -102.09,-49.26 15.57,9.84 33.74,15.51 54.78,12.14 -35.33,-14.65 -65.34,-75.54 -0.07,-102.32 -22.19,48.33 14.79,59.67 40.28,62.83 10.48,-42.72 40.28,-65.84 80.05,-45.96 -19.89,13.22 -29.87,39.71 3.23,62.61 46.46,-32.81 156.95,-47.53 179.07,-56.07 57.66,-22.11 -24.12,-68.93 15.94,-101.67 -4.09,42.51 54.06,45.38 37.05,-4.38 -7.47,-21.9 -49.62,-53.06 -72.88,-59.66 -35.25,-9.98 -76.82,11.13 -112.72,0.07 -43.01,-13.29 -64.12,-49.83 -59.17,-79.34 16.16,13 36.98,30.3 79.13,26.28 -25.28,-6.1 -53.06,-49.76 6.6,-102.75 -9.98,46.46 34.75,84.08 73.31,92.84 -38.77,-24.92 -27.07,-62.9 0.21,-95.85 5.96,29.58 0.08,39.56 32.53,52.77 28.93,11.63 78.76,2.66 91.98,33.89 19.81,47.32 132.39,84.87 132.39,84.87 0,0 -29.58,9.47 -48.75,10.48"
         style="display:inline;fill:#1d1d35;fill-opacity:1;fill-rule:nonzero;stroke:none;stroke-width:3.00346"
         transform="matrix(0.13333333,0,0,-0.13333333,0,902.66667)" />
      <path
         id="path14-8"
         d="m 120.461,2246.24 c 6.965,24.12 16.227,48.1 26.203,70.86 49.184,112.15 105.621,222.79 143.887,338.96 31.16,94.63 49.902,147.55 142.094,198.82 161.691,90.03 322.664,28.43 433.882,-110.07 50.762,-63.19 45.301,-150.06 48.61,-226.31 3.73,-86.38 18.379,-167.01 30.297,-252.52 9.046,-64.55 31.089,-111.65 56.506,-168.3 31.88,-71.22 69.36,-142.52 123.78,-199.31 47.46,-49.48 114.02,-79.56 163.63,-125.15 30.8,-28.22 70.94,-39.49 105.04,-61.75 41.29,-26.85 69.08,-56.36 114.31,-75.24 43.65,-18.17 84.87,-41.93 128.52,-60.75 55.64,-24.05 288.13,-121.62 358.78,-142.45 114.16,-47.89 184.74,-76.75 276.93,-124.57 86.66,-41.28 172.25,-85.08 256.68,-130.82 75.61,-40.99 150.85,-80.63 214.25,-137.92 112.51,-101.669 138.58,-6.32 220.28,71.51 72.02,68.64 169.23,122.27 260.71,160.69 79.19,33.17 158.39,66.84 239.81,94.2 91.83,30.73 183.8,61.46 274.63,95.21 132.9,49.25 262.71,106.83 387.14,174.83 62.97,34.39 125.87,68.06 178.49,117.46 44.81,41.93 99.59,71.58 145.9,111.79 150.78,130.53 239.38,396.4 275.93,585.6 27.28,140.94 14.71,282.81 141.94,377.59 108.2,80.56 269.1,143.96 381.62,35.9 98.43,-94.42 79.84,-237.23 141.08,-355.05 43.87,-84.29 129.6,-194.72 139.08,-289.28 5.6,-55.36 16.22,-111.86 -24.34,-157.6 -18.31,-20.68 -44.73,-29.51 -70.8,-35.68 -9.62,-2.3 -93.41,-14.15 -98.65,-5.03 53.35,-92.84 -15.44,-277.15 -49.33,-366.32 -22.11,-58.3 -46.45,-119.69 -82.28,-171.1 -53.63,-76.96 -131.03,-172.96 -203.26,-232.7 -41.57,-34.46 -86.09,-65.7 -130.18,-96.85 -104.68,-73.89 -212.31,-144.4 -323.52,-208.077 -122.42,-70.012 -703.78,-279.872 -753.32,-296.961 -81.28,-27.864 -162.55,-55 -240.74,-91.551 -142.88,-66.699 -276.36,-151.422 -411.63,-232.051 -87.38,-51.98 -198.24,-212.809 -302.13,-218.41 -97.5,-5.18 -196.95,132.25 -267.74,185.808 -112.94,85.582 -237.3,156.59 -368.98,209.231 -94.48,37.762 -188.47,65.84 -284.11,98.941 -213.67,73.879 -1036.202,452.04 -1093.284,486.43 -119.332,71.8 -231.696,154.66 -315.414,268.54 -43.871,59.59 -86.664,120.83 -117.176,188.54 -22.691,50.26 -89.895,256.82 -95.066,310.6 -3.446,36.12 8.761,119.69 -16.801,148.12 -25.774,28.65 -65.266,13.29 -95.563,30.3 -86.8044,48.9 -89.031,131.47 -65.695,211.89"
         style="display:inline;fill:#1d1d35;fill-opacity:1;fill-rule:nonzero;stroke:none;stroke-width:3.00346"
         transform="matrix(0.13333333,0,0,-0.13333333,0,902.66667)" />
      <path
         id="path15-1"
         d="m 275.621,1967.37 -21.316,25.1 c 15.078,12.83 31.906,24.51 48.101,35.8 18.789,13.07 38.215,26.6 54.973,41.85 65.629,59.57 290.351,349.75 352.754,433.78 36.32,48.84 48.101,101.95 32.324,145.77 -14.863,41.3 -53.008,71.42 -107.418,84.81 -80.426,19.74 -164.215,8.66 -218.695,-29.2 -39.125,-27.1 -61.84,-65.95 -67.66,-115.49 -6.801,-58.09 24.75,-102.54 84.418,-118.88 64.648,-17.67 148.718,3.26 177.886,68.93 10.45,23.45 7.575,43.82 -8.554,60.58 -25.243,26.18 -76.918,36.14 -112.957,21.63 -18.231,-7.33 -40.036,-24.02 -40.176,-61.92 l -32.957,0.14 c 0.14,43.23 22.371,76.89 60.863,92.35 48.871,19.6 114.219,6.69 148.926,-29.35 25.664,-26.57 30.922,-60.96 15.008,-96.83 -36.395,-81.82 -138.832,-108.78 -216.731,-87.33 -75.656,20.76 -117.168,79.94 -108.402,154.54 6.801,58.44 34.988,106.44 81.547,138.73 62.05,42.98 155.867,56.26 245.336,34.07 65.492,-16.09 111.836,-53.6 130.558,-105.63 19.563,-54.37 6.168,-118.74 -36.812,-176.55 -53.149,-71.49 -286.004,-374 -357.102,-438.55 -18.301,-16.65 -38.637,-30.81 -58.34,-44.52 -16.265,-11.32 -31.691,-22.05 -45.574,-33.83"
         style="display:inline;fill:#ffffff;fill-opacity:1;fill-rule:nonzero;stroke:none;stroke-width:3.00346"
         transform="matrix(0.13333333,0,0,-0.13333333,0,902.66667)" />
      <path
         id="path16-5"
         d="m 5354.3,1969.05 c -14.09,11.19 -29.87,21.35 -45.71,31.66 -19.64,12.76 -39.9,25.91 -58.2,41.4 -71.52,60.69 -304.17,342.7 -357.17,409.27 -18.73,23.53 -31.98,48.14 -39.34,73.17 -10.94,37.27 -6.38,74.64 13.25,108.15 23.98,40.95 68.72,72.44 119.62,84.18 92.97,21.35 188.96,7.43 250.88,-35.86 43.05,-30.12 69.27,-73.8 75.86,-126.28 8.56,-67.7 -30.57,-122.78 -102.02,-143.71 -78.11,-22.89 -185.38,1.23 -222.9,79.93 -15.49,32.47 -11.36,64.06 11.78,88.88 33.94,36.46 102.65,50.03 153.21,30.22 37.72,-14.76 59.39,-46.35 59.53,-86.67 l -32.96,-0.14 c -0.07,27.24 -13.11,46.14 -38.63,56.13 -37.73,14.66 -92.35,4.49 -117.03,-21.98 -13.6,-14.69 -15.7,-32.25 -6.17,-52.27 30.01,-63.04 118.92,-81.48 183.92,-62.48 26.71,7.82 87.85,34.01 78.6,107.98 -5.47,43.62 -26.37,78.39 -62.05,103.36 -54.76,38.28 -140.73,49.99 -224.59,30.78 -42.28,-9.75 -79.16,-35.45 -98.58,-68.72 -14.94,-25.49 -18.44,-53.88 -10.1,-82.21 6.1,-20.89 17.39,-41.72 33.52,-61.91 62.26,-78.29 286.77,-348.73 352.68,-404.68 16.69,-14.13 36.11,-26.71 54.84,-38.88 16.75,-10.87 33.3,-21.67 48.24,-33.45 l -20.48,-25.87"
         style="display:inline;fill:#ffffff;fill-opacity:1;fill-rule:nonzero;stroke:none;stroke-width:3.00346"
         transform="matrix(0.13333333,0,0,-0.13333333,0,902.66667)" />
      <path
         id="path17-3"
         d="m 1229.22,6298.38 -65.84,-221.5 h 133.04 z m -72.52,-242.4 -27.93,-93.62 c -3.3,-10.85 -5.31,-20.04 -5.31,-24.2 0,-7.54 7.32,-10.91 23.26,-10.91 h 37.27 v -20.83 h -143.67 v 20.83 h 23.98 c 32.59,0 35.25,2.51 48.53,47.67 l 146.33,488.96 h 21.9 l 158.96,-536.63 h 49.26 v -20.83 h -208.22 v 20.83 h 59.88 l -37.91,128.73 H 1156.7"
         style="display:inline;fill:#1d1d35;fill-opacity:1;fill-rule:nonzero;stroke:none;stroke-width:3.00346"
         transform="matrix(0.13333333,0,0,-0.13333333,0,902.66667)" />
      <path
         id="path18-5"
         d="m 1700.74,5927.26 c 56.51,0 79.84,13.35 99.08,56.86 18.67,40.13 24.63,88.6 24.63,201.4 0,112 -5.96,160.47 -24.63,200.61 -19.24,43.43 -42.57,56.86 -99.08,56.86 h -65.19 v -515.73 z m -158.32,515.73 h -56.5 v 20.89 h 214.18 c 77.82,0 99.72,-5.02 132.32,-28.43 65.19,-46.81 103.1,-139.58 103.1,-251.58 0,-92.77 -25.91,-172.18 -73.16,-224.02 -29.29,-31.73 -65.19,-50.12 -103.1,-52.63 -12.64,-0.86 -32.6,-0.86 -58.52,-0.86 h -214.82 v 20.9 h 56.5 v 515.73"
         style="display:inline;fill:#1d1d35;fill-opacity:1;fill-rule:nonzero;stroke:none;stroke-width:3.00346"
         transform="matrix(0.13333333,0,0,-0.13333333,0,902.66667)" />
      <path
         id="path19-4"
         d="m 2160.98,6442.98 h -55.86 v 20.89 h 369.77 l 6.68,-161.33 h -18.67 c -8.62,56 -25.28,93.62 -53.21,117.89 -20.6,17.52 -36.54,22.55 -79.76,22.55 h -75.82 v -243.26 h 30.58 c 63.83,0 85.16,24.26 87.09,98.65 h 18.67 v -227.32 h -18.67 c -3.3,84.44 -23.26,107.78 -89.1,107.78 h -28.57 v -251.59 h 75.82 v -20.82 h -224.81 v 20.82 h 55.86 v 515.74"
         style="display:inline;fill:#1d1d35;fill-opacity:1;fill-rule:nonzero;stroke:none;stroke-width:3.00346"
         transform="matrix(0.13333333,0,0,-0.13333333,0,902.66667)" />
      <path
         id="path20-3"
         d="m 2622.48,6376.1 c -11.28,-35.9 -16.59,-98.65 -16.59,-191.42 0,-101.09 5.96,-164.63 19.89,-200.53 18.02,-47.68 48.61,-69.43 97.79,-69.43 45.88,0 75.82,19.24 93.77,60.17 16.01,35.97 23.98,102.02 23.98,193.93 0,134.55 -6.68,192.2 -26.64,232.34 -17.95,35.97 -47.89,54.35 -88.45,54.35 -55.22,0 -87.09,-24.27 -103.75,-79.41 m 329.91,-195.58 c 0,-81.93 -31.95,-169.66 -82.49,-224.02 -39.28,-41.78 -89.75,-64.33 -146.33,-64.33 -71.15,0 -131.03,34.26 -173.61,100.31 -35.18,53.49 -55.14,123.7 -55.14,193.06 0,87.75 29.94,171.32 82.42,228.19 37.99,40.92 91.12,64.33 146.98,64.33 130.38,0 228.17,-127.02 228.17,-297.54"
         style="display:inline;fill:#1d1d35;fill-opacity:1;fill-rule:nonzero;stroke:none;stroke-width:3.00346"
         transform="matrix(0.13333333,0,0,-0.13333333,0,902.66667)" />
      <path
         id="path21-6"
         d="m 3053.48,6395.34 v -407.9 c 0,-55.14 3.3,-60.17 37.9,-60.17 h 27.29 v -20.89 h -142.31 v 20.89 h 18.6 c 35.25,0 38.55,5.03 38.55,60.17 v 395.33 c 0,55.21 -3.3,60.24 -38.55,60.24 h -18.6 v 20.89 H 3128 l 223.44,-356.12 v 274.99 c 0,55.21 -3.3,60.24 -38.63,60.24 h -18.59 v 20.89 h 132.97 v -20.89 h -17.88 c -34.6,0 -37.91,-5.03 -37.91,-60.24 V 5900.5 h -15.29 l -302.63,494.84"
         style="display:inline;fill:#1d1d35;fill-opacity:1;fill-rule:nonzero;stroke:none;stroke-width:3.00346"
         transform="matrix(0.13333333,0,0,-0.13333333,0,902.66667)" />
      <path
         id="path22-5"
         d="m 3592.18,6442.98 h -19.32 c -47.24,0 -67.13,-7.55 -87.74,-35.11 -21.32,-28.44 -31.94,-63.55 -35.97,-115.32 h -18.59 l 8.61,171.32 h 398.42 l 8.61,-171.32 h -18.59 c -4.67,59.31 -19.96,100.24 -47.25,126.16 -19.24,18.38 -37.19,24.27 -79.77,24.27 h -15.29 v -515.74 h 62.54 v -20.82 H 3529 v 20.82 h 63.18 v 515.74"
         style="display:inline;fill:#1d1d35;fill-opacity:1;fill-rule:nonzero;stroke:none;stroke-width:3.00346"
         transform="matrix(0.13333333,0,0,-0.13333333,0,902.66667)" />
      <path
         id="path23-9"
         d="m 3910.06,6442.98 h -55.86 v 20.89 h 367.11 l 11.35,-142.09 h -18.67 c -10.63,56 -23.26,83.57 -45.88,101.95 -18.6,15.08 -36.55,19.25 -79.77,19.25 h -85.15 v -243.26 h 20.6 c 63.9,0 85.16,24.26 87.17,98.65 h 19.24 v -227.32 h -19.24 c -3.38,84.44 -22.62,107.78 -89.18,107.78 h -18.59 v -251.59 h 67.85 c 57.22,0 89.1,10.05 110.35,34.32 21.97,25.92 35.97,61.03 46.6,122.06 h 18.6 l -9.27,-177.2 H 3854.2 v 20.82 h 55.86 v 515.74"
         style="display:inline;fill:#1d1d35;fill-opacity:1;fill-rule:nonzero;stroke:none;stroke-width:3.00346"
         transform="matrix(0.13333333,0,0,-0.13333333,0,902.66667)" />
      <path
         id="path24-5"
         d="m 4554.53,6313.43 h -18.6 c -10.63,89.46 -52.56,142.09 -114.38,142.09 -50.62,0 -88.53,-39.28 -88.53,-92.77 0,-46.81 23.34,-71.08 91.12,-93.62 54.56,-17.52 92.47,-34.25 109.78,-46.82 37.91,-28.43 59.88,-81.92 59.88,-142.95 0,-106.98 -65.84,-187.18 -153.01,-187.18 -40.56,0 -75.82,15.01 -117.03,49.32 l -23.26,-35.1 h -17.95 v 155.44 h 18.59 c 7.97,-41.79 17.31,-65.2 36.55,-90.25 25.99,-35.97 62.54,-56.87 99.16,-56.87 55.86,0 100.37,47.68 100.37,107.85 0,43.43 -17.95,72.73 -55.86,91.11 -0.64,0.79 -33.24,13.36 -98.44,38.41 -35.18,13.36 -48.53,20.89 -63.83,38.48 -24.62,26.72 -38.55,67.72 -38.55,112.81 0,98.64 61.17,174.68 141.66,174.68 33.24,0 61.17,-11.7 94.41,-40.13 l 19.32,25.91 h 18.6 v -150.41"
         style="display:inline;fill:#1d1d35;fill-opacity:1;fill-rule:nonzero;stroke:none;stroke-width:3.00346"
         transform="matrix(0.13333333,0,0,-0.13333333,0,902.66667)" />
      <path
         id="path25-4"
         d="m 2010.9,5736.8 -40.93,-118.97 h 81.42 z m -43.87,-127.51 -28.07,-83.8 h 37.62 v -8.61 h -70.29 v 8.61 h 21.04 l 98.07,277.87 h 12.78 l 93.48,-277.87 h 30.59 v -8.61 h -117.46 v 8.61 h 37.62 l -28.07,83.8 h -87.31"
         style="display:inline;fill:#1d1d35;fill-opacity:1;fill-rule:nonzero;stroke:none;stroke-width:3.00346"
         transform="matrix(0.13333333,0,0,-0.13333333,0,902.66667)" />
      <path
         id="path26-9"
         d="m 2362.89,5516.91 h -6.61 l -14.5,21.03 c -24.41,-17.16 -47.53,-25.34 -71.51,-25.34 -68.28,0 -124.07,66.12 -124.07,146.9 0,46.81 17.73,88.46 49.61,116.75 22.76,20.25 50.84,31.37 77.33,31.37 23.98,0 47.17,-8.11 68.64,-24.41 l 14.5,20.18 h 6.61 v -75.61 h -6.61 c -11.2,45.09 -40.92,70.01 -82.28,70.01 -23.19,0 -44.3,-9.05 -56.29,-23.63 -14.07,-17.59 -19.46,-53.27 -19.46,-126.65 0,-52.41 2.95,-76.9 11.2,-94.13 9.12,-18.02 33.89,-30.88 60.82,-30.88 39.7,0 67.78,24.92 86.01,75.54 h 6.61 v -81.13"
         style="fill:#1d1d35;fill-opacity:1;fill-rule:nonzero;stroke:none;stroke-width:3.00346"
         transform="matrix(0.13333333,0,0,-0.13333333,0,902.66667)" />
      <path
         id="path27-1"
         d="m 2483.23,5736.8 -40.92,-118.97 h 81.42 z m -43.8,-127.51 -28.14,-83.8 h 37.62 v -8.61 h -70.29 v 8.61 h 21.11 l 98,277.87 h 12.78 L 2604,5525.49 h 30.58 v -8.61 h -117.39 v 8.61 h 37.62 l -28.14,83.8 h -87.24"
         style="fill:#1d1d35;fill-opacity:1;fill-rule:nonzero;stroke:none;stroke-width:3.00346"
         transform="matrix(0.13333333,0,0,-0.13333333,0,902.66667)" />
      <path
         id="path28-7"
         d="m 2733.88,5525.5 c 43.43,0 53.34,1.72 72.8,12.06 28.07,15.44 35.54,42.94 35.54,132.69 0,61.82 -6.61,89.31 -25.63,106.05 -11.99,10.33 -33.53,17.16 -55.79,18.02 -7.47,0.43 -17.45,0.43 -29.87,0.43 h -17.37 V 5525.5 Z m -64.55,269.25 h -36.4 v 8.62 h 97.21 c 66.99,0 90.97,-6.47 118.69,-33.1 30.22,-28.3 45.52,-65.27 45.52,-108.64 0,-49.83 -21.11,-93.62 -58.38,-121.56 -24.77,-18.45 -45.45,-23.19 -101.66,-23.19 h -101.38 v 8.62 h 36.4 v 269.25"
         style="fill:#1d1d35;fill-opacity:1;fill-rule:nonzero;stroke:none;stroke-width:3.00346"
         transform="matrix(0.13333333,0,0,-0.13333333,0,902.66667)" />
      <path
         id="path29-5"
         d="m 2950.16,5794.75 h -36.41 v 8.61 h 208.87 l 2.87,-78.62 h -5.74 c -7.47,31.8 -17.02,49.83 -31.02,59.74 -13.28,8.61 -21.97,10.27 -60.03,10.27 h -34.24 v -128.81 c 55.78,-0.44 64.04,6.03 65.33,53.27 h 5.75 V 5601.1 h -5.75 c -1.72,24.05 -2.51,27.93 -5.45,35.61 -6.18,15.44 -17.74,21.04 -44.59,21.04 h -15.29 V 5525.5 h 57 c 25.64,0 29.01,0.43 36.41,3.87 13.64,6.39 25.63,21.9 33.1,42.51 3.73,10.26 4.95,14.22 11.2,34.32 h 5.74 l -8.25,-89.32 h -215.91 v 8.62 h 36.41 v 269.25"
         style="fill:#1d1d35;fill-opacity:1;fill-rule:nonzero;stroke:none;stroke-width:3.00346"
         transform="matrix(0.13333333,0,0,-0.13333333,0,902.66667)" />
      <path
         id="path30-5"
         d="m 3188.77,5794.75 h -36.41 v 8.61 h 90.61 l 64.48,-211.31 66.63,211.31 h 85.59 v -8.61 h -35.98 V 5525.5 h 35.98 v -8.62 h -118.69 v 8.62 h 38.41 v 261.99 l -84.72,-270.61 h -10.77 l -85.58,273.63 V 5525.5 h 36.76 v -8.62 h -82.72 v 8.62 h 36.41 v 269.25"
         style="fill:#1d1d35;fill-opacity:1;fill-rule:nonzero;stroke:none;stroke-width:3.00346"
         transform="matrix(0.13333333,0,0,-0.13333333,0,902.66667)" />
      <path
         id="path31-4"
         d="m 3563.88,5652.62 -84.37,142.16 h -22.33 v 8.55 h 112.51 v -8.55 h -36.83 l 65.34,-112.94 c 3.3,-6.03 4.59,-8.62 5.74,-12.06 l 69.5,125 h -43.01 v 8.55 h 84.8 v -8.55 h -30.16 l -61.24,-112.94 -4.1,-7.76 c -1.72,-2.15 -2.94,-4.66 -3.8,-6.89 l -3.23,-6.39 c -0.86,-2.15 -2.51,-4.74 -4.6,-8.18 v -127.09 h 40.14 v -8.61 h -124.93 v 8.61 h 40.57 v 127.09"
         style="display:inline;fill:#1d1d35;fill-opacity:1;fill-rule:nonzero;stroke:none;stroke-width:3.00346"
         transform="matrix(0.13333333,0,0,-0.13333333,0,902.66667)" />
      <path
         id="path32-1"
         d="m 1512.01,1309.88 c 14.86,51.84 3.66,93.26 -26.5,114.59 -33.74,23.84 -71.29,19.24 -86.73,-2.52 -18.74,-26.49 9.12,-66.48 80.92,-123.56 z m -224.88,-158.11 c 33.82,-23.84 55.07,-52.12 65.05,-86.52 74.03,15.44 119.33,25.5 141.74,57.16 29,40.99 3.66,80.05 -72.74,144.96 l -28.79,-13.14 c 64.91,-51.41 88.89,-84.72 62.83,-121.55 -14.72,-20.83 -37.12,-31.45 -64.62,-30.66 5.6,4.59 10.33,9.04 13.64,13.71 18.74,26.49 -8.83,56.94 -72.81,110.71 -51.55,-26.63 -88.45,-32.45 -111.28,-16.29 -17.67,12.49 -20.54,34.82 -8.84,51.47 11.06,15.51 29.01,19.97 43.01,10.06 11.92,-8.47 13.28,-24.2 3.73,-37.69 -5.16,-7.26 -12.13,-11.64 -22.11,-14.72 1.01,-0.72 1.72,-2.02 3.23,-3.09 14,-9.91 43.3,-4.96 84.65,17.23 -63.83,52.92 -85.58,89.39 -58.01,128.31 11.77,16.65 27.07,26.13 49.04,30.79 -0.36,-0.57 -1.08,-1.57 -1.44,-2.08 -24.27,-34.31 3.31,-70.21 72.81,-129.45 l 27.71,13.86 c -69.5,57.01 -93.12,96.28 -64.47,136.85 33.81,47.74 110.92,60.95 180,12.06 43.08,-30.52 65.12,-65.48 64.97,-99.73 l 22.05,-0.79 -2.01,-9.48 c -41.65,0.58 -84.73,-6.32 -126.8,-21.75 79.12,-62.18 102.31,-109.78 65.62,-161.69 -25.05,-35.33 -65.62,-48.68 -124.07,-61.9 -43,-10.05 -93.69,-17.88 -148.62,-38.19 -14.07,52.84 -37.62,86.66 -81.28,117.53 -28.5,20.18 -62.17,29.95 -104.47,31.81 56.08,24.27 133.12,14.14 192.28,-27.79"
         style="display:inline;fill:#ffffff;fill-opacity:1;fill-rule:nonzero;stroke:none;stroke-width:3.00346"
         transform="matrix(0.13333333,0,0,-0.13333333,0,902.66667)" />
      <path
         id="path33-8"
         d="m 1591.51,895.43 c 11.92,-2.149 25.71,-6.098 40.07,-10.34 l 89.96,163.92 c -15.15,13.35 -21.61,30.73 -24.34,54.71 -14.14,3.38 -26.56,5.89 -38.91,9.77 l -89.11,-162.271 c 15.01,-17.668 21.97,-35.328 22.33,-55.789 m -74.09,79.121 69.78,127.159 c 8.55,15.58 13.72,30.23 12.86,52.41 8.04,-5.09 15.87,-9.4 22.54,-13.07 49.04,-26.92 102.17,-37.26 154.87,-29.86 -4.02,-29.73 4.02,-50.83 21.33,-60.31 3.3,-1.87 7.82,-2.87 13.42,-4.53 -10.84,-9.26 -22.11,-13.93 -36.69,-15.36 l -65.84,-119.912 c -0.28,-0.566 -0.57,-1.078 -0.93,-1.648 -11.34,-20.68 -19.53,-40.852 -21.97,-67.782 -10.77,8.114 -21.54,16.231 -32.16,22.051 -42.37,23.262 -84.08,28 -135.06,18.231 -5.17,28.941 -19.17,49.761 -37.62,59.812 -4.96,2.727 -10.84,5.317 -17.59,7.539 12.56,16.301 29.07,23.91 53.06,25.27"
         style="fill:#ffffff;fill-opacity:1;fill-rule:nonzero;stroke:none;stroke-width:3.00346"
         transform="matrix(0.13333333,0,0,-0.13333333,0,902.66667)" />
      <path
         id="path34-8"
         d="m 1765.54,831.039 117.89,261.561 c 10.99,24.35 15.51,39.06 4.81,63.4 35.26,-11.7 68.14,-8.39 107.7,5.17 l 2.23,-5.88 c -31.59,-14.36 -43.58,-41.07 -61.1,-79.92 L 1822.05,820.199 c 11.56,-11.488 20.39,-24.48 23.76,-44.867 l 19.17,3.867 1.22,-9.617 c -44.59,-9.191 -72.95,-19.391 -82.93,-26.062 -0.64,24.699 -17.3,48.25 -38.77,57.941 -6.96,3.09 -16.73,6.098 -27.64,8.25 11.63,15.008 27.93,21.621 48.68,21.328"
         style="fill:#ffffff;fill-opacity:1;fill-rule:nonzero;stroke:none;stroke-width:3.00346"
         transform="matrix(0.13333333,0,0,-0.13333333,0,902.66667)" />
      <path
         id="path35-3"
         d="m 1991.23,1056.87 -1.43,8.76 c 31.73,8.26 53.77,14.14 66.63,22.9 0.5,-21.97 6.82,-33.96 24.05,-40.49 2.37,-0.94 4.95,-1.22 7.32,-2.15 -14.72,-18.89 -37.47,-25.14 -56.5,-17.89 -10.7,4.1 -19.53,14.94 -25.21,32.1 z m -70.86,-241.171 45.73,120.039 c -7.68,8.41 -12.56,17.024 -15.86,27.864 l -18.31,-3.231 -1.66,8.121 c 30.88,5.879 62.47,15.649 92.05,28.86 1.44,-22.981 11.28,-38.34 26.14,-44.012 3.52,-1.301 9.76,-1.012 18.88,-0.36 -7.61,-18.238 -22.62,-28.871 -46.88,-31.89 l -46.89,-122.981 c -13.21,-34.468 -12.78,-52.988 23.05,-68.07 -29.01,-9.98 -51.91,-21.68 -67.49,-34.109 -36.76,26.929 -31.02,61.531 -8.76,119.769"
         style="fill:#ffffff;fill-opacity:1;fill-rule:nonzero;stroke:none;stroke-width:3.00346"
         transform="matrix(0.13333333,0,0,-0.13333333,0,902.66667)" />
      <path
         id="path36-5"
         d="m 2393.07,862.199 c 16.8,-3.379 31.81,-3.16 47.03,1.571 l 10.12,50.48 c 6.32,31.23 -8.76,36.828 -33.74,41.859 l -48.04,9.692 -17.51,-87.309 c 12.56,-8.402 25.91,-12.992 42.14,-16.293 M 2373.4,761.031 c 14.93,-3.019 29.08,-7.109 42.86,-15.73 l 21.61,107.269 c -14.14,-2.371 -30.01,-3.73 -48.68,0.071 -14.93,2.949 -28.21,8.191 -40.28,15.871 l -21.03,-104.821 c 13.42,2.508 28.07,0.86 45.52,-2.66 m 2.58,-138.711 16.59,5.09 21.83,108.492 c -13.72,9.258 -26.57,13.137 -40.28,15.938 -19.32,3.879 -34.68,5.019 -48.25,1.941 l -17.81,-88.601 c 25.56,-5.098 47.39,-19.239 67.92,-42.86 m -158.96,119.539 12.28,61.102 c -6.18,1.289 -11.78,2.437 -18.02,3.66 -16.23,3.238 -23.63,-1.07 -26.71,-16.66 -6.25,10.988 -7.61,23.551 -4.96,36.687 7.25,36.122 20.82,45.743 54.5,38.922 2.51,-0.429 5.02,-0.929 7.54,-1.441 1.94,9.98 3.87,19.32 5.74,28.652 9.05,44.949 29.01,63.61 90.75,64.188 -19.74,-17.449 -23.19,-31.66 -26.85,-49.758 l -31.02,-154 c -8.9,-44.301 -30.73,-62.609 -93.12,-72.813 17.23,14.723 24.41,34.032 29.87,61.461 m 82.28,-74.961 60.46,300.633 -79.2,15.93 c -48.03,9.699 -63.83,34.249 -53.56,85.369 8.83,-7.61 18.67,-10.26 30.52,-12.63 l 187.1,-37.63 c 55.5,-11.13 81.42,-30.578 67.5,-99.871 L 2459.2,655.551 c -3.38,-16.871 -4.96,-31.442 2.87,-50.539 -7.54,1.508 -11.77,3.008 -12.99,3.297 -36.19,7.254 -79.99,-4.09 -128.74,-33.809 -27.93,22.469 -61.25,37.621 -94.92,44.371 -28.07,5.668 -54.57,3.16 -84.36,-6.391 32.09,43.512 88.81,63.899 158.24,54.418"
         style="fill:#ffffff;fill-opacity:1;fill-rule:nonzero;stroke:none;stroke-width:3.00346"
         transform="matrix(0.13333333,0,0,-0.13333333,0,902.66667)" />
      <path
         id="path37-2"
         d="m 2608.3,821.289 -9.33,-142.809 78.9,45.809 -50.19,100.813 z m -69.07,-198.809 9.83,151.059 c 1.51,22.262 -2.51,39.063 -14.28,54.5 5.74,-0.359 13.35,-0.93 21.61,-1.437 46.96,-3.09 98.94,12.64 126.65,36.328 9.48,-40.129 28.51,-80.27 55.72,-113.942 l -140.59,-82.566 -2.72,-41.934 c 34.03,-6.027 61.31,-17.949 79.41,-33.168 l 18.74,12.782 5.17,-8.043 -73.17,-56.368 c -25.13,25.2 -57.37,39.418 -89.1,41.5 -11.42,0.789 -21.68,-0.429 -32.81,-4.23 1.51,22.258 13.35,38.051 35.54,45.519"
         style="fill:#ffffff;fill-opacity:1;fill-rule:nonzero;stroke:none;stroke-width:3.00346"
         transform="matrix(0.13333333,0,0,-0.13333333,0,902.66667)" />
      <path
         id="path38-2"
         d="m 2880.09,587.852 c 11.2,4.449 25.06,8.32 39.49,12.269 l -9.7,186.75 c -19.96,3.449 -34.53,14.719 -49.54,33.75 -13.78,-4.59 -25.63,-8.98 -38.27,-12.211 l 9.7,-184.879 c 21.97,-7.109 37.26,-18.379 48.32,-35.679 m -104.69,28.289 -7.54,144.89 c -0.86,17.731 -4.23,32.879 -16.65,51.328 9.55,-0.14 18.45,0.36 26.06,0.723 55.93,2.867 106.55,22.109 147.4,56.078 12.28,-27.359 30.16,-41.07 49.9,-40.07 3.81,0.223 8.19,1.73 13.86,3.23 -4.45,-13.57 -11.56,-23.48 -23.19,-32.379 l 7.11,-136.562 c 0,-0.649 0.07,-1.289 0.07,-1.938 1.22,-23.48 4.96,-44.941 17.02,-69.14 -13.5,1.14 -26.93,2.371 -38.99,1.719 -48.25,-2.438 -86.16,-20.391 -124.5,-55.5 -19.6,21.902 -42.43,32.171 -63.4,31.089 -5.74,-0.289 -11.99,-1.218 -18.95,-2.867 2.15,20.528 12.13,35.68 31.8,49.399"
         style="fill:#ffffff;fill-opacity:1;fill-rule:nonzero;stroke:none;stroke-width:3.00346"
         transform="matrix(0.13333333,0,0,-0.13333333,0,902.66667)" />
      <path
         id="path39-6"
         d="m 3458.3,728.469 c -11.77,2.152 -21.61,2.152 -32.09,-0.649 -10.41,-2.8 -19.17,-7.109 -27.72,-14.648 l 16.3,-60.813 c 27.93,18.59 42.36,43.582 43.51,76.11 m -32.52,8.39 c 15.94,4.313 27.14,2.02 31.73,1.942 -0.5,14.371 -2.3,28.359 -5.89,41.859 -2.94,11.059 -7.32,22.403 -12.27,33.602 -7.4,-9.262 -17.02,-15.071 -29.3,-18.383 -10.48,-2.797 -20.03,-4.008 -33.17,-1.566 l 18.81,-70.653 c 9.69,5.809 19.6,10.481 30.09,13.199 m -17.31,67.211 c 11.06,2.95 20.11,8.621 27.5,17.879 -19.24,37.621 -48.82,54.711 -80.13,50.973 l 18.74,-70 c 12.93,-1.863 24.06,-1.512 33.89,1.148 m -13.21,246.63 c -17.02,-24.91 -29.87,-40.86 -48.32,-45.81 -17.23,-4.59 -29.94,1.22 -43.29,16.73 l -17.45,-21.11 44.51,-166.569 z m -93.41,-342.911 c -0.29,1.223 -0.43,1.793 -0.79,3.012 l -63.69,238.449 -22.04,-21.039 -2.8,10.48 c 44.16,36.84 86.31,86.229 127.66,150.639 13.07,-16.95 27.36,-23.62 42.15,-19.68 7.32,1.95 15.72,10.13 25.63,24.63 l 7.97,-2.51 -60.6,-207.071 c 3.66,0.93 6.61,2.371 10.27,3.371 72.52,19.391 133.62,-17.011 150.2,-79.05 20.03,-74.961 -39.85,-164.059 -136.27,-189.829 -107.56,-28.722 -219.06,36.329 -249.15,148.77 -24.77,92.828 15.65,207.641 95.64,273.119 -47.17,-72.521 -57.08,-153.51 -31.52,-249.432 31.88,-119.187 107.63,-178.636 181.37,-158.886 10.48,2.801 21.03,7.539 31.73,14.347 l -58.59,219.43 -14.21,-47.891 5.6,-20.898 c 14.28,-53.488 21.61,-91.039 -39.28,-131.68 6.03,19.391 3.52,31.231 0.72,41.719"
         style="fill:#ffffff;fill-opacity:1;fill-rule:nonzero;stroke:none;stroke-width:3.00346"
         transform="matrix(0.13333333,0,0,-0.13333333,0,902.66667)" />
      <path
         id="path40-6"
         d="m 3597.26,763.352 -103.33,267.668 c -9.54,24.91 -16.87,38.48 -41.64,48.03 33.03,16.8 53.78,42.58 71.94,80.27 l 5.82,-2.59 c -11.99,-32.59 -1.44,-59.88 13.86,-99.65 l 100.8,-261.131 c 16.3,0.211 31.67,-2.73 48.54,-14.648 l 10.77,16.437 7.68,-5.886 c -24.77,-38.192 -37.4,-65.551 -39.7,-77.332 -18.1,16.8 -46.53,21.55 -68.5,13.07 -7.11,-2.719 -16.08,-7.61 -25.34,-13.86 -2.45,18.821 4.23,35.051 19.1,49.622"
         style="fill:#ffffff;fill-opacity:1;fill-rule:nonzero;stroke:none;stroke-width:3.00346"
         transform="matrix(0.13333333,0,0,-0.13333333,0,902.66667)" />
      <path
         id="path41-7"
         d="m 3840.25,844.199 c 8.68,8.403 19.96,17.231 31.87,26.352 l -80.27,169.019 c -19.67,-4.45 -37.48,0.43 -58.66,12.27 -10.98,-9.47 -20.24,-18.09 -30.66,-25.84 l 79.41,-167.23 c 23.05,1.8 41.51,-2.801 58.31,-14.571 m -107.56,-13.707 -62.18,131.028 c -7.61,16.082 -16.51,28.789 -35.04,41.14 8.91,3.45 16.95,7.33 23.84,10.55 50.55,23.99 90.04,61.04 114.95,108.06 21.76,-20.67 43.51,-26.49 61.32,-18.02 3.44,1.66 6.96,4.67 11.56,8.26 1.15,-14.22 -1.65,-26.14 -9.05,-38.77 l 58.66,-123.568 c 0.29,-0.57 0.5,-1.152 0.79,-1.723 10.13,-21.25 21.68,-39.711 42.07,-57.437 -12.85,-4.02 -25.77,-8.043 -36.68,-13.211 -43.66,-20.75 -71.88,-51.77 -93.92,-98.801 -26.49,12.781 -51.48,13.57 -70.43,4.531 -5.24,-2.441 -10.7,-5.75 -16.44,-9.91 -5.89,19.82 -2.37,37.617 10.55,57.871"
         style="fill:#ffffff;fill-opacity:1;fill-rule:nonzero;stroke:none;stroke-width:3.00346"
         transform="matrix(0.13333333,0,0,-0.13333333,0,902.66667)" />
      <path
         id="path42-8"
         d="m 3981.34,913.449 c -2.8,-1.578 -5.53,-3.16 -9.12,-5.89 0.21,17.66 6.25,32.812 16.8,47.601 l -67.71,118.83 c -17.37,30.37 -27.93,36.04 -61.53,20.6 15.58,26.5 23.48,55.08 23.48,85.88 30.87,-1.44 51.34,-16.88 69.64,-48.9 l 11.56,95.21 c 19.75,-16.59 32.6,-22.48 45.31,-15.22 5.53,3.16 9.76,8.54 13.35,16.44 14.01,-32.31 6.18,-60.96 -12.06,-71.3 -13.28,-7.61 -28.65,-7.61 -46.16,0 l -4.46,-38.41 76.9,-134.841 c 15.8,3.16 30.01,3.949 42.15,0.571 l 5.81,12.929 8.69,-2.437 c -17.02,-33.102 -27.43,-61.032 -30.8,-83.434 -28.43,15.293 -59.74,14.934 -81.85,2.371"
         style="fill:#ffffff;fill-opacity:1;fill-rule:nonzero;stroke:none;stroke-width:3.00346"
         transform="matrix(0.13333333,0,0,-0.13333333,0,902.66667)" />
      <path
         id="path43-4"
         d="M 4142.14,1088.28 4073,1196.62 c -11.28,-1.22 -21.19,0.07 -31.81,3.81 l -8.33,-16.59 -7.47,3.52 c 13.65,28.29 24.63,59.45 31.67,91.11 19.31,-12.56 37.48,-13.85 50.83,-5.31 3.23,2.08 6.75,7.32 11.63,15.01 10.05,-17.02 9.69,-35.33 -2.37,-56.65 l 70.8,-110.93 c 19.88,-31.16 35.03,-41.86 68.42,-22.12 -9.26,-29.22 -13.5,-54.57 -12.78,-74.53 -43.51,-13.42 -67.92,11.78 -101.45,64.34 m -151.43,200.68 -7.82,4.02 c 12.2,30.51 20.6,51.69 21.25,67.2 17.88,-12.71 31.3,-14.72 46.81,-4.81 2.16,1.36 3.95,3.23 6.11,4.6 6.46,-23.05 -2.16,-45.1 -19.24,-56.08 -9.7,-6.17 -23.63,-6.75 -40.86,-1.08 l -6.25,-13.85"
         style="display:inline;fill:#ffffff;fill-opacity:1;fill-rule:nonzero;stroke:none;stroke-width:3.00346"
         transform="matrix(0.13333333,0,0,-0.13333333,0,902.66667)" />
      <path
         id="path44-1"
         d="m 4292.49,1339.68 c -11.78,-2.15 -22.4,-0.36 -36.77,6.53 -10.48,-19.24 -21.46,-33.31 -32.88,-41.5 -11.34,-8.11 -24.12,-11.06 -39.85,-12.06 l 144.39,-42.22 -3.02,-9.98 -59.52,17.66 c 0.22,-23.33 5.46,-41.5 17.67,-58.58 22.54,-31.52 59.37,-40.35 101.3,-21.33 l 6.4,24.92 z m 89.39,-225.45 c -54.36,-17.02 -100.67,-4.74 -123.64,27.28 -21.83,30.59 -24.99,74.39 -3.38,119.62 l -102.67,29.8 c 0.5,0.36 0.5,0.36 1.01,0.72 16.08,11.48 25.99,35.82 29,73.16 27.79,-22.4 48.61,-28.58 62.61,-18.6 16.01,11.49 22.19,37.84 22.04,80.71 15.87,-19.97 37.12,-23.48 52.63,-12.35 2.59,1.86 7.04,6.53 11.92,13.93 5.17,-12.64 3.52,-25.64 -2.66,-43.3 l 84.01,-117.46 c 20.03,-27.93 37.69,-34.04 59.95,-18.1 1.58,1.08 3.09,2.23 5.17,3.67 l -4.23,-74.96 c -29.8,-6.47 -51.34,-1.51 -75.03,17.44 l -16.73,-81.56"
         style="display:inline;fill:#ffffff;fill-opacity:1;fill-rule:nonzero;stroke:none;stroke-width:3.00346"
         transform="matrix(0.13333333,0,0,-0.13333333,0,902.66667)" />
    </g>
  </g>
  <g
     inkscape:groupmode="layer"
     id="layer4"
     inkscape:label="Backup_Outline"
     style="display:none"
     transform="translate(0.25511044,38.0504)">
    <path
       id="path4"
       style="display:inline;fill:none;fill-opacity:1;fill-rule:nonzero;stroke:#000000;stroke-width:11.4936;stroke-dasharray:none;stroke-opacity:1"
       inkscape:label="outline"
       d="m 878.56936,3086.8702 v -360.0879 c -3.74034,6.1237 -7.41661,12.2758 -12.04102,18.0322 -111.21767,138.4997 -272.19621,200.0981 -433.88673,110.0684 -92.19173,-51.2697 -110.92996,-104.1935 -142.08984,-198.8232 -38.26591,-116.1697 -94.70776,-226.8152 -143.89161,-338.9649 -9.97597,-22.76 -19.24106,-46.7345 -26.20606,-70.8545 -23.335916,-80.4197 -21.105895,-162.9899 65.69825,-211.8896 28.0664,-15.7577 63.88408,-4.1863 89.5166,-25.1075 -7.32595,-5.4099 -14.52807,-10.9612 -21.35742,-16.7724 l 21.31348,-25.1074 c 5.43295,4.6099 11.1581,9.0459 17.02148,13.4326 10.07345,-37.1058 3.1172,-95.967 5.87403,-124.8633 5.17097,-53.78 72.37742,-260.3455 95.06836,-310.6055 30.51191,-67.7097 73.302,-128.9503 117.17285,-188.54 83.71776,-113.8797 196.0785,-196.7355 315.41017,-268.5352 57.08182,-34.39 879.6168,-412.55188 1093.2862,-486.43067 95.6397,-33.10091 189.6267,-61.17367 284.1064,-98.93555 131.6797,-52.64085 256.0398,-123.65653 368.9795,-209.23829 70.7897,-53.55782 170.2445,-190.98078 267.7442,-185.80078 103.8897,5.60097 214.7589,166.42836 302.1386,218.40821 135.2697,80.62876 268.7417,165.34711 411.6211,232.0459 78.19,36.55088 159.4674,63.6888 240.7471,91.55274 49.54,17.08894 630.8909,226.94134 753.3106,296.95313 111.2097,63.67671 218.8457,134.19131 323.5254,208.08101 44.0897,31.15 88.6109,62.3958 130.1806,96.8555 72.23,59.74 149.6318,155.7305 203.2618,232.6905 35.8297,51.4097 60.1705,112.8084 82.2802,171.1084 28.4465,74.847 80.5792,216.1708 65.3321,314.7216 0.5268,-0.412 1.089,-0.801 1.6113,-1.2158 l 20.4785,25.8692 c -11.8507,9.3441 -24.8104,18.0398 -37.9834,26.6748 -0.047,0.082 -0.07,0.1814 -0.1172,0.2636 5.24,-9.1197 89.0373,2.7391 98.6573,5.0391 26.0697,6.17 52.4859,14.989 70.7959,35.669 40.5597,45.7397 29.9457,102.2428 24.3457,157.6025 -9.48,94.5597 -95.2172,204.9876 -139.0869,289.2773 -61.24,117.8197 -42.6492,260.6438 -141.0792,355.0635 -112.5194,108.0597 -273.4214,44.6564 -381.6211,-35.9033 -83.9884,-62.5671 -106.8773,-145.7963 -120.7031,-235.5908 v 493.8574 3575.4347 h -522.6679 v 366.9286 h 1617.6561 v 595.9463 H -457.37302 V 7029.2335 H 1415.7024 V 6662.3049 H 878.56936 v -177.6856 z"
       transform="matrix(0.04439202,0,0,-0.04439443,20.303713,300.7202)"
       sodipodi:nodetypes="ccccccccccccccccccccccccccccccccccccccccccccccccccccc" />
  </g>
  <g
     inkscape:groupmode="layer"
     id="layer1"
     inkscape:label="Edge.Cuts"
     style="display:inline;stroke-width:3.00346"
     transform="matrix(0.33294017,0,0,0.3329582,20.558823,38.220331)">
    <path
       id="rect1"
       style="fill:none;stroke:#000000;stroke-width:1.53247"
       d="m -60.983068,-114.02288 v 79.460521 H 188.76268 v 48.922244 h -71.62159 v 23.69268 453.029375 48.01301 c -0.49871,-0.81649 -0.98491,-1.63753 -1.6015,-2.40505 -14.82901,-18.4666 -36.294678,-26.68062 -57.853392,-14.67667 -12.292218,6.83595 -14.793484,13.89693 -18.94813,26.51421 -5.102116,15.48928 -12.624942,30.23821 -19.182782,45.19149 -1.330128,3.03466 -2.567646,6.23409 -3.496312,9.45009 -3.111452,10.72261 -2.80963,21.73059 8.764244,28.25054 3.742183,2.10102 8.514377,0.55998 11.932042,3.34947 -0.976792,0.72132 -1.934573,1.46011 -2.845152,2.23494 l 2.839286,3.34947 c 0.724393,-0.61465 1.488473,-1.2101 2.270256,-1.79499 1.343125,4.94744 0.41264,12.79481 0.780217,16.64764 0.689462,7.17066 9.651606,34.71834 12.677062,41.41966 4.06825,9.02795 9.772501,17.19043 15.621941,25.13571 11.162357,15.18395 26.144591,26.23264 42.05546,35.80592 3.7319,2.24836 32.18535,15.59114 63.39118,29.69358 l -57.84166,131.2043 H -60.214583 v 66.57883 H 812.34975 V 918.46526 H 651.63089 l -82.4625,-126.1185 c 16.15553,-6.33167 31.18919,-12.45689 37.2451,-15.92026 14.82795,-8.49022 29.17759,-17.89412 43.13487,-27.74607 5.87862,-4.15333 11.81574,-8.31639 17.35836,-12.91101 9.63066,-7.96533 19.95162,-20.76383 27.10228,-31.02515 4.77729,-6.85462 8.02201,-15.04533 10.96997,-22.81865 3.79286,-9.97959 10.74439,-28.81924 8.71145,-41.95933 0.0702,0.0549 0.14741,0.10307 0.21705,0.15838 l 2.72783,-3.4492 c -1.58009,-1.24588 -3.30622,-2.40345 -5.06261,-3.55478 -0.006,-0.0109 -0.0113,-0.0242 -0.0176,-0.0352 0.69866,1.21595 11.87543,-0.36206 13.15809,-0.66873 3.47596,-0.82266 6.99754,-1.99997 9.43887,-4.7573 5.40796,-6.09862 3.99073,-13.63651 3.24406,-21.0178 -1.264,-12.60794 -12.69407,-27.33018 -18.54335,-38.56879 -8.16533,-15.70928 -5.68922,-34.74915 -18.81321,-47.33843 -15.00257,-14.40795 -36.45762,-5.95465 -50.88424,4.78663 -11.19844,8.34227 -14.2478,19.43972 -16.09124,31.41231 V 491.08194 14.359885 h -69.69158 v -48.922244 l 249.7463,-0.0021 V -114.02394 Z M 278.17673,829.9594 c 5.21261,1.78071 10.41885,3.57053 15.63368,5.6548 17.55727,7.01878 34.13613,16.4877 49.19474,27.89859 9.43862,7.14103 22.70232,25.46268 35.70227,24.77202 13.85194,-0.7468 28.63323,-22.18807 40.28384,-29.11871 15.73864,-9.38116 31.34422,-19.07681 47.71057,-27.32959 l 45.43445,86.62875 H 254.61183 Z"
       sodipodi:nodetypes="ccccccccccccccccccccccccccccccccccccccccccccccccccccccccccccccc" />
    <path
       style="fill:#000000;stroke:none;stroke-width:1px;stroke-linecap:butt;stroke-linejoin:miter;stroke-opacity:1"
       d="M 51.637661,307.62862 57.13103,290.59918"
       id="path1" />
  </g>
  <g
     inkscape:groupmode="layer"
     id="layer2"
     inkscape:label="F.Fab"
     transform="translate(-288.24892,-264.31169)"
     style="display:none">
    <rect
       style="fill:none;stroke:#000000;stroke-width:0.510235;stroke-dasharray:none;stroke-opacity:1"
       id="rect48"
       width="11.56386"
       height="2.8437262"
       x="366.96722"
       y="379.69205" />
    <rect
       style="fill:none;stroke:#000000;stroke-width:0.510235;stroke-dasharray:none;stroke-opacity:1"
       id="rect49"
       width="2.6540008"
       height="12.701978"
       x="370.75867"
       y="374.57333" />
    <rect
       style="fill:none;stroke:#000000;stroke-width:0.510235;stroke-dasharray:none;stroke-opacity:1"
       id="rect50"
       width="1.8957148"
       height="11.564487"
       x="408.10425"
       y="375.71082" />
    <rect
       style="fill:none;stroke:#000000;stroke-width:0.510235;stroke-dasharray:none;stroke-opacity:1"
       id="rect51"
       width="11.37429"
       height="1.8958174"
       x="403.55453"
       y="380.0712" />
    <rect
       style="fill:none;stroke:#000000;stroke-width:0.510235;stroke-dasharray:none;stroke-opacity:1"
       id="rect52"
       width="12.511718"
       height="2.6541445"
       x="403.17538"
       y="417.98755" />
    <rect
       style="fill:none;stroke:#000000;stroke-width:0.510235;stroke-dasharray:none;stroke-opacity:1"
       id="rect53"
       width="2.4644294"
       height="14.976957"
       x="408.10425"
       y="412.67926" />
    <rect
       style="fill:none;stroke:#000000;stroke-width:0.510235;stroke-dasharray:none;stroke-opacity:1"
       id="rect54"
       width="12.511718"
       height="1.8958174"
       x="365.64023"
       y="418.5563" />
    <rect
       style="fill:none;stroke:#000000;stroke-width:0.510235;stroke-dasharray:none;stroke-opacity:1"
       id="rect55"
       width="1.8957148"
       height="14.218631"
       x="370.94824"
       y="412.30011" />
    <ellipse
       style="fill:#ff0000;fill-rule:evenodd;stroke-width:1"
       id="path55"
       cx="332.84436"
       cy="486.61615"
       rx="6.066287"
       ry="6.0666156" />
    <ellipse
       style="fill:#ff0000;fill-rule:evenodd;stroke-width:1"
       id="path55-5"
       cx="536.85223"
       cy="489.60541"
       rx="6.066287"
       ry="6.0666156" />
  </g>
</svg>
