G04 Layer: BoardOutlineLayer*
G04 EasyEDA Pro v2.2.43.4, 2025-11-10 11:02:42*
G04 Gerber Generator version 0.3*
G04 Scale: 100 percent, Rotated: No, Reflected: No*
G04 Dimensions in millimeters*
G04 Leading zeros omitted, absolute positions, 4 integers and 5 decimals*
G04 Generated by one-click*
%FSLAX45Y45*%
%MOMM*%
%ADD10C,0.15*%
%ADD11C,0.135*%
%ADD12C,0.05*%
%ADD13C,0.2379*%
G75*


G04 PolygonModel Start*
G54D10*
G01X12250756Y-6251985D02*
G01X16206991Y-6252393D01*
G54D11*
G01X13357673Y-13434909D02*
G01X13426525Y-13458814D01*
G01X13495391Y-13484725D01*
G01X13609697Y-13535076D01*
G01X13720324Y-13593102D01*
G01X13826824Y-13658382D01*
G01X13928749Y-13730498D01*
G01X13996863Y-13791992D01*
G01X14074236Y-13865485D01*
G01X14157491Y-13926043D01*
G01X14243252Y-13948727D01*
G01X14335745Y-13914456D01*
G01X14427955Y-13840895D01*
G01X14516529Y-13757120D01*
G01X14598114Y-13692206D01*
G01X14701999Y-13629945D01*
G01X14806183Y-13568098D01*
G01X14911403Y-13508114D01*
G01X15018398Y-13451445D01*
G01X15418632Y-14214603D01*
G01X13150089Y-14214603D01*
G01X13357673Y-13434909D01*
G01X10370000Y-5118879D02*
G01X10370000Y-5818888D01*
G01X12570021Y-5818888D01*
G01X12570021Y-6249869D01*
G01X11939103Y-6249869D01*
G01X11939103Y-6458590D01*
G01X11939103Y-10449561D01*
G01X11939103Y-10872533D01*
G01X11924996Y-10851345D01*
G01X11840064Y-10765277D01*
G01X11743867Y-10705100D01*
G01X11639174Y-10675027D01*
G01X11528750Y-10679273D01*
G01X11415363Y-10722051D01*
G01X11332096Y-10784673D01*
G01X11283925Y-10859053D01*
G01X11248448Y-10955628D01*
G01X11211207Y-11056875D01*
G01X11168765Y-11156457D01*
G01X11123920Y-11255153D01*
G01X11079466Y-11353744D01*
G01X11048667Y-11436995D01*
G01X11033844Y-11530736D01*
G01X11054451Y-11616809D01*
G01X11125871Y-11685868D01*
G01X11230981Y-11715376D01*
G01X11205918Y-11735064D01*
G01X11230929Y-11764571D01*
G01X11250928Y-11748758D01*
G01X11257587Y-11825703D01*
G01X11257801Y-11895416D01*
G01X11283530Y-12004973D01*
G01X11330026Y-12153503D01*
G01X11369474Y-12260303D01*
G01X11432397Y-12374597D01*
G01X11507088Y-12481737D01*
G01X11586747Y-12575595D01*
G01X11676636Y-12657989D01*
G01X11774369Y-12731115D01*
G01X11877557Y-12797170D01*
G01X11921866Y-12820054D01*
G01X12009151Y-12862025D01*
G01X12130124Y-12918712D01*
G01X12275494Y-12985746D01*
G01X12435972Y-13058756D01*
G01X11926443Y-14214603D01*
G01X10376770Y-14214603D01*
G01X10376770Y-14801130D01*
G01X18063226Y-14801130D01*
G01X18063226Y-14214603D01*
G01X16647446Y-14214603D01*
G01X15921031Y-13103559D01*
G01X16057488Y-13049188D01*
G01X16171979Y-13000836D01*
G01X16249124Y-12963310D01*
G01X16346311Y-12905768D01*
G01X16441989Y-12845593D01*
G01X16536229Y-12783169D01*
G01X16629101Y-12718880D01*
G01X16706666Y-12663468D01*
G01X16782012Y-12605140D01*
G01X16867616Y-12523182D01*
G01X16949717Y-12427267D01*
G01X17020757Y-12331824D01*
G01X17075117Y-12234348D01*
G01X17117392Y-12130802D01*
G01X17156116Y-12021620D01*
G01X17189620Y-11888905D01*
G01X17194131Y-11761161D01*
G01X17196043Y-11762556D01*
G01X17220073Y-11732170D01*
G01X17175476Y-11700854D01*
G01X17175321Y-11700544D01*
G01X17291231Y-11694653D01*
G01X17374379Y-11652744D01*
G01X17408998Y-11564403D01*
G01X17402956Y-11467587D01*
G01X17367108Y-11352135D01*
G01X17302383Y-11235224D01*
G01X17239607Y-11127814D01*
G01X17199625Y-11019866D01*
G01X17173124Y-10908993D01*
G01X17138433Y-10803273D01*
G01X17073880Y-10710786D01*
G01X16988715Y-10657347D01*
G01X16895607Y-10643544D01*
G01X16800259Y-10660677D01*
G01X16708369Y-10700047D01*
G01X16625639Y-10752954D01*
G01X16548655Y-10833922D01*
G01X16505936Y-10927391D01*
G01X16483890Y-11029681D01*
G01X16483890Y-10449561D01*
G01X16483890Y-6249869D01*
G01X15869974Y-6249869D01*
G01X15869974Y-5818888D01*
G01X18070000Y-5818869D01*
G01X18070000Y-5118869D01*
G01X10370000Y-5118879D01*

G04 Circle Start*
G54D12*
G01X13219354Y-13413740D02*
G03X13279354Y-13413740I30000J0D01*
G03X13219354Y-13413740I-30000J0D01*
G01X12957550Y-13307060D02*
G03X13017550Y-13307060I30000J0D01*
G03X12957550Y-13307060I-30000J0D01*
G01X15445784Y-13307060D02*
G03X15505784Y-13307060I30000J0D01*
G03X15445784Y-13307060I-30000J0D01*
G01X10570000Y-14500860D02*
G03X10830000Y-14500860I130000J0D01*
G03X10570000Y-14500860I-130000J0D01*
G01X15919740Y-13131800D02*
G03X15979740Y-13131800I30000J0D01*
G03X15919740Y-13131800I-30000J0D01*
G01X12622256Y-13169900D02*
G03X12682256Y-13169900I30000J0D01*
G03X12622256Y-13169900I-30000J0D01*
G01X15649996Y-13230860D02*
G03X15709996Y-13230860I30000J0D01*
G03X15649996Y-13230860I-30000J0D01*
G01X12891082Y-13279120D02*
G03X12951082Y-13279120I30000J0D01*
G03X12891082Y-13279120I-30000J0D01*
G01X13087928Y-13360400D02*
G03X13147928Y-13360400I30000J0D01*
G03X13087928Y-13360400I-30000J0D01*
G01X17570000Y-14500860D02*
G03X17830000Y-14500860I130000J0D01*
G03X17570000Y-14500860I-130000J0D01*
G01X15040829Y-13459460D02*
G03X15100829Y-13459460I30000J0D01*
G03X15040829Y-13459460I-30000J0D01*
G01X12689880Y-13195300D02*
G03X12749880Y-13195300I30000J0D01*
G03X12689880Y-13195300I-30000J0D01*
G01X15718594Y-13205460D02*
G03X15778594Y-13205460I30000J0D01*
G03X15718594Y-13205460I-30000J0D01*
G01X12430000Y-13091160D02*
G03X12490000Y-13091160I30000J0D01*
G03X12430000Y-13091160I-30000J0D01*
G01X15784868Y-13177520D02*
G03X15844868Y-13177520I30000J0D01*
G03X15784868Y-13177520I-30000J0D01*
G01X15583952Y-13256260D02*
G03X15643952Y-13256260I30000J0D01*
G03X15583952Y-13256260I-30000J0D01*
G01X15852304Y-13154660D02*
G03X15912304Y-13154660I30000J0D01*
G03X15852304Y-13154660I-30000J0D01*
G01X12824614Y-13251180D02*
G03X12884614Y-13251180I30000J0D01*
G03X12824614Y-13251180I-30000J0D01*
G01X13284328Y-13441680D02*
G03X13344328Y-13441680I30000J0D01*
G03X13284328Y-13441680I-30000J0D01*
G01X13153641Y-13385800D02*
G03X13213641Y-13385800I30000J0D01*
G03X13153641Y-13385800I-30000J0D01*
G01X12493622Y-13116560D02*
G03X12553622Y-13116560I30000J0D01*
G03X12493622Y-13116560I-30000J0D01*
G01X15513276Y-13284200D02*
G03X15573276Y-13284200I30000J0D01*
G03X15513276Y-13284200I-30000J0D01*
G01X17570000Y-5499100D02*
G03X17830000Y-5499100I130000J0D01*
G03X17570000Y-5499100I-130000J0D01*
G01X15310799Y-13355320D02*
G03X15370799Y-13355320I30000J0D01*
G03X15310799Y-13355320I-30000J0D01*
G01X15243306Y-13385800D02*
G03X15303306Y-13385800I30000J0D01*
G03X15243306Y-13385800I-30000J0D01*
G01X12757247Y-13223240D02*
G03X12817247Y-13223240I30000J0D01*
G03X12757247Y-13223240I-30000J0D01*
G01X15174464Y-13408660D02*
G03X15234464Y-13408660I30000J0D01*
G03X15174464Y-13408660I-30000J0D01*
G01X15108322Y-13434060D02*
G03X15168321Y-13434060I30000J0D01*
G03X15108322Y-13434060I-30000J0D01*
G01X15376941Y-13329920D02*
G03X15436941Y-13329920I30000J0D01*
G03X15376941Y-13329920I-30000J0D01*
G01X13022825Y-13332460D02*
G03X13082825Y-13332460I30000J0D01*
G03X13022825Y-13332460I-30000J0D01*
G01X10570000Y-5499100D02*
G03X10830000Y-5499100I130000J0D01*
G03X10570000Y-5499100I-130000J0D01*
G01X12557939Y-13141960D02*
G03X12617939Y-13141960I30000J0D01*
G03X12557939Y-13141960I-30000J0D01*
G04 Circle End*

M02*

