G04 Layer: BottomSilkscreenLayer*
G04 EasyEDA Pro v2.2.43.4, 2025-11-10 11:02:42*
G04 Gerber Generator version 0.3*
G04 Scale: 100 percent, Rotated: No, Reflected: No*
G04 Dimensions in millimeters*
G04 Leading zeros omitted, absolute positions, 4 integers and 5 decimals*
G04 Generated by one-click*
%FSLAX45Y45*%
%MOMM*%
%ADD10C,0.4064*%
%ADD11C,0.2032*%
%ADD12C,0.3048*%
%ADD13C,0.15*%
%ADD14C,0.12*%
%ADD15C,0.127*%
%ADD16C,0.2057*%
%ADD17C,0.2*%
%ADD18C,0.3*%
G75*


G04 Text Start*
G54D10*
G01X15321280Y-12226290D02*
G01X15321280Y-12433046D01*
G01X15321280Y-12226290D02*
G01X15242540Y-12433046D01*
G01X15163800Y-12226290D02*
G01X15242540Y-12433046D01*
G01X15163800Y-12226290D02*
G01X15163800Y-12433046D01*
G01X14957806Y-12295124D02*
G01X14957806Y-12433046D01*
G01X14957806Y-12324842D02*
G01X14977364Y-12305030D01*
G01X14997176Y-12295124D01*
G01X15026640Y-12295124D01*
G01X15046452Y-12305030D01*
G01X15066010Y-12324842D01*
G01X15075916Y-12354306D01*
G01X15075916Y-12373864D01*
G01X15066010Y-12403582D01*
G01X15046452Y-12423140D01*
G01X15026640Y-12433046D01*
G01X14997176Y-12433046D01*
G01X14977364Y-12423140D01*
G01X14957806Y-12403582D01*
G01X14840458Y-12226290D02*
G01X14840458Y-12393676D01*
G01X14830552Y-12423140D01*
G01X14810740Y-12433046D01*
G01X14791182Y-12433046D01*
G01X14869922Y-12295124D02*
G01X14801088Y-12295124D01*
G01X14673834Y-12226290D02*
G01X14673834Y-12393676D01*
G01X14663928Y-12423140D01*
G01X14644116Y-12433046D01*
G01X14624558Y-12433046D01*
G01X14703298Y-12295124D02*
G01X14634464Y-12295124D01*
G01X14536674Y-12226290D02*
G01X14536674Y-12433046D01*
G01X14536674Y-12334494D02*
G01X14507210Y-12305030D01*
G01X14487398Y-12295124D01*
G01X14457934Y-12295124D01*
G01X14438122Y-12305030D01*
G01X14428470Y-12334494D01*
G01X14428470Y-12433046D01*
G01X14340586Y-12354306D02*
G01X14222476Y-12354306D01*
G01X14222476Y-12334494D01*
G01X14232382Y-12314936D01*
G01X14242034Y-12305030D01*
G01X14261846Y-12295124D01*
G01X14291310Y-12295124D01*
G01X14311122Y-12305030D01*
G01X14330680Y-12324842D01*
G01X14340586Y-12354306D01*
G01X14340586Y-12373864D01*
G01X14330680Y-12403582D01*
G01X14311122Y-12423140D01*
G01X14291310Y-12433046D01*
G01X14261846Y-12433046D01*
G01X14242034Y-12423140D01*
G01X14222476Y-12403582D01*
G01X14134592Y-12295124D02*
G01X14095222Y-12433046D01*
G01X14055852Y-12295124D02*
G01X14095222Y-12433046D01*
G01X14055852Y-12295124D02*
G01X14016482Y-12433046D01*
G01X13977112Y-12295124D02*
G01X14016482Y-12433046D01*
G01X13550646Y-12226290D02*
G01X13648944Y-12226290D01*
G01X13658850Y-12314936D01*
G01X13648944Y-12305030D01*
G01X13619480Y-12295124D01*
G01X13590016Y-12295124D01*
G01X13560552Y-12305030D01*
G01X13540740Y-12324842D01*
G01X13530834Y-12354306D01*
G01X13530834Y-12373864D01*
G01X13540740Y-12403582D01*
G01X13560552Y-12423140D01*
G01X13590016Y-12433046D01*
G01X13619480Y-12433046D01*
G01X13648944Y-12423140D01*
G01X13658850Y-12413234D01*
G01X13668756Y-12393676D01*
G01X13433044Y-12314936D02*
G01X13442950Y-12324842D01*
G01X13433044Y-12334494D01*
G01X13423138Y-12324842D01*
G01X13433044Y-12314936D01*
G01X13433044Y-12383770D02*
G01X13442950Y-12393676D01*
G01X13433044Y-12403582D01*
G01X13423138Y-12393676D01*
G01X13433044Y-12383770D01*
G01X13335254Y-12265660D02*
G01X13315442Y-12255754D01*
G01X13285978Y-12226290D01*
G01X13285978Y-12433046D01*
G01X13079984Y-12255754D02*
G01X13089890Y-12236196D01*
G01X13119354Y-12226290D01*
G01X13138912Y-12226290D01*
G01X13168630Y-12236196D01*
G01X13188188Y-12265660D01*
G01X13198094Y-12314936D01*
G01X13198094Y-12364212D01*
G01X13188188Y-12403582D01*
G01X13168630Y-12423140D01*
G01X13138912Y-12433046D01*
G01X13129260Y-12433046D01*
G01X13099542Y-12423140D01*
G01X13079984Y-12403582D01*
G01X13070078Y-12373864D01*
G01X13070078Y-12364212D01*
G01X13079984Y-12334494D01*
G01X13099542Y-12314936D01*
G01X13129260Y-12305030D01*
G01X13138912Y-12305030D01*
G01X13168630Y-12314936D01*
G01X13188188Y-12334494D01*
G01X13198094Y-12364212D01*
G01X14972411Y-12664440D02*
G01X15038451Y-12837922D01*
G01X14972411Y-12664440D02*
G01X14906371Y-12837922D01*
G01X15013559Y-12780010D02*
G01X14931009Y-12780010D01*
G01X14727047Y-12664440D02*
G01X14727047Y-12837922D01*
G01X14727047Y-12746990D02*
G01X14743557Y-12730480D01*
G01X14760067Y-12722352D01*
G01X14784705Y-12722352D01*
G01X14801215Y-12730480D01*
G01X14817725Y-12746990D01*
G01X14826107Y-12771882D01*
G01X14826107Y-12788392D01*
G01X14817725Y-12813030D01*
G01X14801215Y-12829540D01*
G01X14784705Y-12837922D01*
G01X14760067Y-12837922D01*
G01X14743557Y-12829540D01*
G01X14727047Y-12813030D01*
G01X14461871Y-12664440D02*
G01X14461871Y-12837922D01*
G01X14461871Y-12664440D02*
G01X14354429Y-12664440D01*
G01X14461871Y-12746990D02*
G01X14395831Y-12746990D01*
G01X14232763Y-12722352D02*
G01X14249273Y-12730480D01*
G01X14265783Y-12746990D01*
G01X14274165Y-12771882D01*
G01X14274165Y-12788392D01*
G01X14265783Y-12813030D01*
G01X14249273Y-12829540D01*
G01X14232763Y-12837922D01*
G01X14208125Y-12837922D01*
G01X14191615Y-12829540D01*
G01X14175105Y-12813030D01*
G01X14166723Y-12788392D01*
G01X14166723Y-12771882D01*
G01X14175105Y-12746990D01*
G01X14191615Y-12730480D01*
G01X14208125Y-12722352D01*
G01X14232763Y-12722352D01*
G01X14086459Y-12722352D02*
G01X14086459Y-12837922D01*
G01X14086459Y-12755372D02*
G01X14061567Y-12730480D01*
G01X14045057Y-12722352D01*
G01X14020419Y-12722352D01*
G01X14003909Y-12730480D01*
G01X13995527Y-12755372D01*
G01X13995527Y-12837922D01*
G01X13890371Y-12664440D02*
G01X13890371Y-12804902D01*
G01X13882243Y-12829540D01*
G01X13865733Y-12837922D01*
G01X13849223Y-12837922D01*
G01X13915263Y-12722352D02*
G01X13857351Y-12722352D01*
G01X13768959Y-12771882D02*
G01X13669899Y-12771882D01*
G01X13669899Y-12755372D01*
G01X13678027Y-12738862D01*
G01X13686409Y-12730480D01*
G01X13702919Y-12722352D01*
G01X13727557Y-12722352D01*
G01X13744067Y-12730480D01*
G01X13760577Y-12746990D01*
G01X13768959Y-12771882D01*
G01X13768959Y-12788392D01*
G01X13760577Y-12813030D01*
G01X13744067Y-12829540D01*
G01X13727557Y-12837922D01*
G01X13702919Y-12837922D01*
G01X13686409Y-12829540D01*
G01X13669899Y-12813030D01*
G01X13498703Y-12746990D02*
G01X13507085Y-12730480D01*
G01X13531723Y-12722352D01*
G01X13556615Y-12722352D01*
G01X13581253Y-12730480D01*
G01X13589635Y-12746990D01*
G01X13581253Y-12763500D01*
G01X13564743Y-12771882D01*
G01X13523595Y-12780010D01*
G01X13507085Y-12788392D01*
G01X13498703Y-12804902D01*
G01X13498703Y-12813030D01*
G01X13507085Y-12829540D01*
G01X13531723Y-12837922D01*
G01X13556615Y-12837922D01*
G01X13581253Y-12829540D01*
G01X13589635Y-12813030D01*
G01X14922881Y-12994132D02*
G01X14939391Y-12977622D01*
G01X14964029Y-12969240D01*
G01X14997049Y-12969240D01*
G01X15021941Y-12977622D01*
G01X15038451Y-12994132D01*
G01X15038451Y-13010642D01*
G01X15030069Y-13027152D01*
G01X15021941Y-13035280D01*
G01X15005431Y-13043662D01*
G01X14955901Y-13060172D01*
G01X14939391Y-13068300D01*
G01X14931009Y-13076682D01*
G01X14922881Y-13093192D01*
G01X14922881Y-13117830D01*
G01X14939391Y-13134340D01*
G01X14964029Y-13142722D01*
G01X14997049Y-13142722D01*
G01X15021941Y-13134340D01*
G01X15038451Y-13117830D01*
G01X14784705Y-12969240D02*
G01X14784705Y-13142722D01*
G01X14842617Y-12969240D02*
G01X14727047Y-12969240D01*
G01X14646783Y-12969240D02*
G01X14646783Y-13142722D01*
G01X14646783Y-12969240D02*
G01X14539341Y-12969240D01*
G01X14646783Y-13051790D02*
G01X14580743Y-13051790D01*
G01X14646783Y-13142722D02*
G01X14539341Y-13142722D01*
G01X14459077Y-12969240D02*
G01X14459077Y-13142722D01*
G01X14459077Y-12969240D02*
G01X14393037Y-13142722D01*
G01X14326997Y-12969240D02*
G01X14393037Y-13142722D01*
G01X14326997Y-12969240D02*
G01X14326997Y-13142722D01*
G01X14053439Y-13010642D02*
G01X14053439Y-13002260D01*
G01X14045311Y-12985750D01*
G01X14036929Y-12977622D01*
G01X14020419Y-12969240D01*
G01X13987399Y-12969240D01*
G01X13970889Y-12977622D01*
G01X13962761Y-12985750D01*
G01X13954379Y-13002260D01*
G01X13954379Y-13018770D01*
G01X13962761Y-13035280D01*
G01X13979271Y-13060172D01*
G01X14061821Y-13142722D01*
G01X13946251Y-13142722D01*
G01X13816457Y-12969240D02*
G01X13841095Y-12977622D01*
G01X13857605Y-13002260D01*
G01X13865987Y-13043662D01*
G01X13865987Y-13068300D01*
G01X13857605Y-13109702D01*
G01X13841095Y-13134340D01*
G01X13816457Y-13142722D01*
G01X13799947Y-13142722D01*
G01X13775055Y-13134340D01*
G01X13758545Y-13109702D01*
G01X13750417Y-13068300D01*
G01X13750417Y-13043662D01*
G01X13758545Y-13002260D01*
G01X13775055Y-12977622D01*
G01X13799947Y-12969240D01*
G01X13816457Y-12969240D01*
G01X13661771Y-13010642D02*
G01X13661771Y-13002260D01*
G01X13653643Y-12985750D01*
G01X13645261Y-12977622D01*
G01X13628751Y-12969240D01*
G01X13595731Y-12969240D01*
G01X13579221Y-12977622D01*
G01X13571093Y-12985750D01*
G01X13562711Y-13002260D01*
G01X13562711Y-13018770D01*
G01X13571093Y-13035280D01*
G01X13587603Y-13060172D01*
G01X13670153Y-13142722D01*
G01X13554583Y-13142722D01*
G01X13375259Y-12969240D02*
G01X13457809Y-12969240D01*
G01X13465937Y-13043662D01*
G01X13457809Y-13035280D01*
G01X13432917Y-13027152D01*
G01X13408279Y-13027152D01*
G01X13383387Y-13035280D01*
G01X13366877Y-13051790D01*
G01X13358749Y-13076682D01*
G01X13358749Y-13093192D01*
G01X13366877Y-13117830D01*
G01X13383387Y-13134340D01*
G01X13408279Y-13142722D01*
G01X13432917Y-13142722D01*
G01X13457809Y-13134340D01*
G01X13465937Y-13126212D01*
G01X13474319Y-13109702D01*
G54D11*
G01X15966440Y-9958070D02*
G01X15966440Y-10044684D01*
G01X15966440Y-9958070D02*
G01X15933420Y-10044684D01*
G01X15900400Y-9958070D02*
G01X15933420Y-10044684D01*
G01X15900400Y-9958070D02*
G01X15900400Y-10044684D01*
G01X15860268Y-9958070D02*
G01X15856204Y-9962134D01*
G01X15851886Y-9958070D01*
G01X15856204Y-9954006D01*
G01X15860268Y-9958070D01*
G01X15856204Y-9987026D02*
G01X15856204Y-10044684D01*
G01X15762224Y-9999472D02*
G01X15770352Y-9991090D01*
G01X15778734Y-9987026D01*
G01X15791180Y-9987026D01*
G01X15799308Y-9991090D01*
G01X15807690Y-9999472D01*
G01X15811754Y-10011664D01*
G01X15811754Y-10020046D01*
G01X15807690Y-10032492D01*
G01X15799308Y-10040620D01*
G01X15791180Y-10044684D01*
G01X15778734Y-10044684D01*
G01X15770352Y-10040620D01*
G01X15762224Y-10032492D01*
G01X15722092Y-9987026D02*
G01X15722092Y-10044684D01*
G01X15722092Y-10011664D02*
G01X15718028Y-9999472D01*
G01X15709646Y-9991090D01*
G01X15701518Y-9987026D01*
G01X15689072Y-9987026D01*
G01X15628366Y-9987026D02*
G01X15636494Y-9991090D01*
G01X15644876Y-9999472D01*
G01X15648940Y-10011664D01*
G01X15648940Y-10020046D01*
G01X15644876Y-10032492D01*
G01X15636494Y-10040620D01*
G01X15628366Y-10044684D01*
G01X15615920Y-10044684D01*
G01X15607538Y-10040620D01*
G01X15599410Y-10032492D01*
G01X15595346Y-10020046D01*
G01X15595346Y-10011664D01*
G01X15599410Y-9999472D01*
G01X15607538Y-9991090D01*
G01X15615920Y-9987026D01*
G01X15628366Y-9987026D01*
G01X15505684Y-9999472D02*
G01X15513812Y-9991090D01*
G01X15522194Y-9987026D01*
G01X15534640Y-9987026D01*
G01X15542768Y-9991090D01*
G01X15551150Y-9999472D01*
G01X15555214Y-10011664D01*
G01X15555214Y-10020046D01*
G01X15551150Y-10032492D01*
G01X15542768Y-10040620D01*
G01X15534640Y-10044684D01*
G01X15522194Y-10044684D01*
G01X15513812Y-10040620D01*
G01X15505684Y-10032492D01*
G01X15444978Y-9987026D02*
G01X15453106Y-9991090D01*
G01X15461488Y-9999472D01*
G01X15465552Y-10011664D01*
G01X15465552Y-10020046D01*
G01X15461488Y-10032492D01*
G01X15453106Y-10040620D01*
G01X15444978Y-10044684D01*
G01X15432532Y-10044684D01*
G01X15424150Y-10040620D01*
G01X15416022Y-10032492D01*
G01X15411958Y-10020046D01*
G01X15411958Y-10011664D01*
G01X15416022Y-9999472D01*
G01X15424150Y-9991090D01*
G01X15432532Y-9987026D01*
G01X15444978Y-9987026D01*
G01X15371826Y-9987026D02*
G01X15371826Y-10044684D01*
G01X15371826Y-10003536D02*
G01X15359380Y-9991090D01*
G01X15351252Y-9987026D01*
G01X15338806Y-9987026D01*
G01X15330424Y-9991090D01*
G01X15326360Y-10003536D01*
G01X15326360Y-10044684D01*
G01X15273782Y-9958070D02*
G01X15273782Y-10028174D01*
G01X15269718Y-10040620D01*
G01X15261336Y-10044684D01*
G01X15253208Y-10044684D01*
G01X15286228Y-9987026D02*
G01X15257272Y-9987026D01*
G01X15213076Y-9987026D02*
G01X15213076Y-10044684D01*
G01X15213076Y-10011664D02*
G01X15209012Y-9999472D01*
G01X15200630Y-9991090D01*
G01X15192502Y-9987026D01*
G01X15180056Y-9987026D01*
G01X15119350Y-9987026D02*
G01X15127478Y-9991090D01*
G01X15135860Y-9999472D01*
G01X15139924Y-10011664D01*
G01X15139924Y-10020046D01*
G01X15135860Y-10032492D01*
G01X15127478Y-10040620D01*
G01X15119350Y-10044684D01*
G01X15106904Y-10044684D01*
G01X15098522Y-10040620D01*
G01X15090394Y-10032492D01*
G01X15086330Y-10020046D01*
G01X15086330Y-10011664D01*
G01X15090394Y-9999472D01*
G01X15098522Y-9991090D01*
G01X15106904Y-9987026D01*
G01X15119350Y-9987026D01*
G01X15046198Y-9958070D02*
G01X15046198Y-10044684D01*
G01X15006066Y-9958070D02*
G01X15006066Y-10044684D01*
G01X14965934Y-10011664D02*
G01X14916404Y-10011664D01*
G01X14916404Y-10003536D01*
G01X14920468Y-9995154D01*
G01X14924532Y-9991090D01*
G01X14932914Y-9987026D01*
G01X14945360Y-9987026D01*
G01X14953488Y-9991090D01*
G01X14961870Y-9999472D01*
G01X14965934Y-10011664D01*
G01X14965934Y-10020046D01*
G01X14961870Y-10032492D01*
G01X14953488Y-10040620D01*
G01X14945360Y-10044684D01*
G01X14932914Y-10044684D01*
G01X14924532Y-10040620D01*
G01X14916404Y-10032492D01*
G01X14876272Y-9987026D02*
G01X14876272Y-10044684D01*
G01X14876272Y-10011664D02*
G01X14872208Y-9999472D01*
G01X14863826Y-9991090D01*
G01X14855698Y-9987026D01*
G01X14843252Y-9987026D01*
G54D12*
G01X14589760Y-10571480D02*
G01X14589760Y-10718292D01*
G01X14525752Y-10620502D02*
G01X14525752Y-10718292D01*
G01X14525752Y-10648442D02*
G01X14504670Y-10627360D01*
G01X14490700Y-10620502D01*
G01X14469872Y-10620502D01*
G01X14455902Y-10627360D01*
G01X14448790Y-10648442D01*
G01X14448790Y-10718292D01*
G01X14384782Y-10571480D02*
G01X14377670Y-10578592D01*
G01X14370812Y-10571480D01*
G01X14377670Y-10564622D01*
G01X14384782Y-10571480D01*
G01X14377670Y-10620502D02*
G01X14377670Y-10718292D01*
G01X14285722Y-10571480D02*
G01X14285722Y-10690352D01*
G01X14278864Y-10711180D01*
G01X14264894Y-10718292D01*
G01X14250924Y-10718292D01*
G01X14306804Y-10620502D02*
G01X14257782Y-10620502D01*
G01X14186916Y-10571480D02*
G01X14179804Y-10578592D01*
G01X14172946Y-10571480D01*
G01X14179804Y-10564622D01*
G01X14186916Y-10571480D01*
G01X14179804Y-10620502D02*
G01X14179804Y-10718292D01*
G01X14025118Y-10620502D02*
G01X14025118Y-10718292D01*
G01X14025118Y-10641330D02*
G01X14039088Y-10627360D01*
G01X14053058Y-10620502D01*
G01X14073886Y-10620502D01*
G01X14087856Y-10627360D01*
G01X14101826Y-10641330D01*
G01X14108938Y-10662412D01*
G01X14108938Y-10676382D01*
G01X14101826Y-10697210D01*
G01X14087856Y-10711180D01*
G01X14073886Y-10718292D01*
G01X14053058Y-10718292D01*
G01X14039088Y-10711180D01*
G01X14025118Y-10697210D01*
G01X13961110Y-10571480D02*
G01X13961110Y-10718292D01*
G01X13820140Y-10641330D02*
G01X13827252Y-10627360D01*
G01X13848080Y-10620502D01*
G01X13869162Y-10620502D01*
G01X13889990Y-10627360D01*
G01X13897102Y-10641330D01*
G01X13889990Y-10655300D01*
G01X13876020Y-10662412D01*
G01X13841222Y-10669270D01*
G01X13827252Y-10676382D01*
G01X13820140Y-10690352D01*
G01X13820140Y-10697210D01*
G01X13827252Y-10711180D01*
G01X13848080Y-10718292D01*
G01X13869162Y-10718292D01*
G01X13889990Y-10711180D01*
G01X13897102Y-10697210D01*
G01X12631420Y-8567420D02*
G01X12631420Y-8516620D01*
G01X12631420Y-8516620D02*
G01X12631420Y-8465820D01*
G01X12631420Y-8465820D02*
G01X12631420Y-8415020D01*
G01X12656820Y-8465820D02*
G01X12631420Y-8465820D01*
G01X12631420Y-8465820D02*
G01X12580620Y-8465820D01*
G01X12580620Y-8465820D02*
G01X12555220Y-8465820D01*
G01X12656820Y-8516620D02*
G01X12631420Y-8516620D01*
G01X12631420Y-8516620D02*
G01X12580620Y-8516620D01*
G01X12580620Y-8516620D02*
G01X12555220Y-8516620D01*
G01X12580620Y-8567420D02*
G01X12580620Y-8516620D01*
G01X12580620Y-8516620D02*
G01X12580620Y-8465820D01*
G01X12580620Y-8465820D02*
G01X12580620Y-8415020D01*
G01X12479020Y-8567420D02*
G01X12479020Y-8415020D01*
G01X12504420Y-8440420D02*
G01X12479020Y-8415020D01*
G01X12504420Y-8567420D02*
G01X12479020Y-8567420D01*
G01X12479020Y-8567420D02*
G01X12453620Y-8567420D01*
G01X13660120Y-8554720D02*
G01X13660120Y-8503920D01*
G01X13660120Y-8503920D02*
G01X13660120Y-8453120D01*
G01X13660120Y-8453120D02*
G01X13660120Y-8402320D01*
G01X13685520Y-8453120D02*
G01X13660120Y-8453120D01*
G01X13660120Y-8453120D02*
G01X13609320Y-8453120D01*
G01X13609320Y-8453120D02*
G01X13583920Y-8453120D01*
G01X13685520Y-8503920D02*
G01X13660120Y-8503920D01*
G01X13660120Y-8503920D02*
G01X13609320Y-8503920D01*
G01X13609320Y-8503920D02*
G01X13583920Y-8503920D01*
G01X13609320Y-8554720D02*
G01X13609320Y-8503920D01*
G01X13609320Y-8503920D02*
G01X13609320Y-8453120D01*
G01X13609320Y-8453120D02*
G01X13609320Y-8402320D01*
G01X13533120Y-8554720D02*
G01X13431520Y-8554720D01*
G01X13533120Y-8554720D02*
G01X13431520Y-8453120D01*
G01X13431520Y-8453120D02*
G01X13431520Y-8427720D01*
G01X13456920Y-8402320D02*
G01X13431520Y-8427720D01*
G01X13507720Y-8402320D02*
G01X13456920Y-8402320D01*
G01X13533120Y-8427720D02*
G01X13507720Y-8402320D01*
G01X13672820Y-9570720D02*
G01X13672820Y-9519920D01*
G01X13672820Y-9519920D02*
G01X13672820Y-9469120D01*
G01X13672820Y-9469120D02*
G01X13672820Y-9418320D01*
G01X13698220Y-9469120D02*
G01X13672820Y-9469120D01*
G01X13672820Y-9469120D02*
G01X13622020Y-9469120D01*
G01X13622020Y-9469120D02*
G01X13596620Y-9469120D01*
G01X13698220Y-9519920D02*
G01X13672820Y-9519920D01*
G01X13672820Y-9519920D02*
G01X13622020Y-9519920D01*
G01X13622020Y-9519920D02*
G01X13596620Y-9519920D01*
G01X13622020Y-9570720D02*
G01X13622020Y-9519920D01*
G01X13622020Y-9519920D02*
G01X13622020Y-9469120D01*
G01X13622020Y-9469120D02*
G01X13622020Y-9418320D01*
G01X13545820Y-9494520D02*
G01X13469620Y-9418320D01*
G01X13545820Y-9494520D02*
G01X13469620Y-9494520D01*
G01X13469620Y-9494520D02*
G01X13444220Y-9494520D01*
G01X13469620Y-9570720D02*
G01X13469620Y-9494520D01*
G01X13469620Y-9494520D02*
G01X13469620Y-9418320D01*
G01X12682220Y-9570720D02*
G01X12682220Y-9519920D01*
G01X12682220Y-9519920D02*
G01X12682220Y-9469120D01*
G01X12682220Y-9469120D02*
G01X12682220Y-9418320D01*
G01X12707620Y-9469120D02*
G01X12682220Y-9469120D01*
G01X12682220Y-9469120D02*
G01X12631420Y-9469120D01*
G01X12631420Y-9469120D02*
G01X12606020Y-9469120D01*
G01X12707620Y-9519920D02*
G01X12682220Y-9519920D01*
G01X12682220Y-9519920D02*
G01X12631420Y-9519920D01*
G01X12631420Y-9519920D02*
G01X12606020Y-9519920D01*
G01X12631420Y-9570720D02*
G01X12631420Y-9519920D01*
G01X12631420Y-9519920D02*
G01X12631420Y-9469120D01*
G01X12631420Y-9469120D02*
G01X12631420Y-9418320D01*
G01X12504420Y-9494520D02*
G01X12479020Y-9494520D01*
G01X12555220Y-9545320D02*
G01X12529820Y-9570720D01*
G01X12529820Y-9570720D02*
G01X12479020Y-9570720D01*
G01X12479020Y-9570720D02*
G01X12453620Y-9545320D01*
G01X12453620Y-9545320D02*
G01X12453620Y-9519920D01*
G01X12479020Y-9494520D02*
G01X12453620Y-9519920D01*
G01X12479020Y-9494520D02*
G01X12453620Y-9469120D01*
G01X12453620Y-9469120D02*
G01X12453620Y-9443720D01*
G01X12479020Y-9418320D02*
G01X12453620Y-9443720D01*
G01X12529820Y-9418320D02*
G01X12479020Y-9418320D01*
G01X12555220Y-9443720D02*
G01X12529820Y-9418320D01*
G01X13355320Y-8808720D02*
G01X13253720Y-8808720D01*
G01X13355320Y-8808720D02*
G01X13355320Y-8656320D01*
G01X13202920Y-8732520D02*
G01X13152120Y-8732520D01*
G01X13202920Y-8808720D02*
G01X13101320Y-8808720D01*
G01X13202920Y-8656320D02*
G01X13101320Y-8656320D01*
G01X13202920Y-8808720D02*
G01X13202920Y-8732520D01*
G01X13202920Y-8732520D02*
G01X13202920Y-8656320D01*
G01X13050520Y-8656320D02*
G01X12974574Y-8656320D01*
G01X13050520Y-8808720D02*
G01X13050520Y-8656320D01*
G01X13050520Y-8808720D02*
G01X12974320Y-8808720D01*
G01X12974574Y-8656320D02*
G01X12948920Y-8681720D01*
G01X12948920Y-8783320D02*
G01X12948920Y-8681720D01*
G01X12974320Y-8808720D02*
G01X12948920Y-8783320D01*
G01X12898120Y-8808720D02*
G01X12821920Y-8808720D01*
G01X12821920Y-8808720D02*
G01X12796520Y-8783320D01*
G01X12821920Y-8757920D02*
G01X12796520Y-8783320D01*
G01X12872720Y-8757920D02*
G01X12821920Y-8757920D01*
G01X12898120Y-8732520D02*
G01X12872720Y-8757920D01*
G01X12898120Y-8732520D02*
G01X12872720Y-8707120D01*
G01X12872720Y-8707120D02*
G01X12796520Y-8707120D01*
G01X12466320Y-7995920D02*
G01X12364720Y-7995920D01*
G01X12758420Y-7995920D02*
G01X12707620Y-7995920D01*
G01X12707620Y-7995920D02*
G01X12656820Y-7995920D01*
G01X12707620Y-8046720D02*
G01X12707620Y-7995920D01*
G01X12707620Y-7995920D02*
G01X12707620Y-7945120D01*
G01X13749020Y-7983220D02*
G01X13698220Y-7983220D01*
G01X13698220Y-7983220D02*
G01X13647420Y-7983220D01*
G01X13698220Y-8034020D02*
G01X13698220Y-7983220D01*
G01X13698220Y-7983220D02*
G01X13698220Y-7932420D01*
G01X13732509Y-8973920D02*
G01X13681709Y-8973920D01*
G01X13681709Y-8973920D02*
G01X13630909Y-8973920D01*
G01X13681709Y-9024720D02*
G01X13681709Y-8973920D01*
G01X13681709Y-8973920D02*
G01X13681709Y-8923120D01*
G01X12758420Y-8986520D02*
G01X12707620Y-8986520D01*
G01X12707620Y-8986520D02*
G01X12656820Y-8986520D01*
G01X12707620Y-9037320D02*
G01X12707620Y-8986520D01*
G01X12707620Y-8986520D02*
G01X12707620Y-8935720D01*
G01X13469620Y-7970520D02*
G01X13368020Y-7970520D01*
G01X13482320Y-8973820D02*
G01X13380720Y-8973820D01*
G01X12466320Y-8986520D02*
G01X12364720Y-8986520D01*
G54D13*
G01X12735068Y-13810562D02*
G01X12735068Y-13866188D01*
G01X12735068Y-13810562D02*
G01X12711192Y-13810562D01*
G01X12703318Y-13813102D01*
G01X12700778Y-13815896D01*
G01X12697984Y-13820976D01*
G01X12697984Y-13826310D01*
G01X12700778Y-13831644D01*
G01X12703318Y-13834438D01*
G01X12711192Y-13836978D01*
G01X12735068Y-13836978D01*
G01X12716526Y-13836978D02*
G01X12697984Y-13866188D01*
G01X12670298Y-13810562D02*
G01X12670298Y-13866188D01*
G01X12670298Y-13810562D02*
G01X12635754Y-13810562D01*
G01X12670298Y-13836978D02*
G01X12648962Y-13836978D01*
G01X12670298Y-13866188D02*
G01X12635754Y-13866188D01*
G01X12608068Y-13810562D02*
G01X12608068Y-13866188D01*
G01X12608068Y-13810562D02*
G01X12573524Y-13810562D01*
G01X12608068Y-13836978D02*
G01X12586732Y-13836978D01*
G01X12532376Y-13826310D02*
G01X12532376Y-13858314D01*
G01X12545838Y-13834438D02*
G01X12519168Y-13850440D01*
G01X12519168Y-13834438D02*
G01X12545838Y-13850440D01*
G01X12478020Y-13826310D02*
G01X12478020Y-13858314D01*
G01X12491482Y-13834438D02*
G01X12464812Y-13850440D01*
G01X12464812Y-13834438D02*
G01X12491482Y-13850440D01*
G01X16075068Y-13790562D02*
G01X16075068Y-13846188D01*
G01X16075068Y-13790562D02*
G01X16051192Y-13790562D01*
G01X16043318Y-13793102D01*
G01X16040778Y-13795896D01*
G01X16037984Y-13800976D01*
G01X16037984Y-13806310D01*
G01X16040778Y-13811644D01*
G01X16043318Y-13814438D01*
G01X16051192Y-13816978D01*
G01X16075068Y-13816978D01*
G01X16056526Y-13816978D02*
G01X16037984Y-13846188D01*
G01X16010298Y-13790562D02*
G01X16010298Y-13846188D01*
G01X16010298Y-13790562D02*
G01X15975754Y-13790562D01*
G01X16010298Y-13816978D02*
G01X15988962Y-13816978D01*
G01X16010298Y-13846188D02*
G01X15975754Y-13846188D01*
G01X15948068Y-13790562D02*
G01X15948068Y-13846188D01*
G01X15948068Y-13790562D02*
G01X15913524Y-13790562D01*
G01X15948068Y-13816978D02*
G01X15926732Y-13816978D01*
G01X15872376Y-13806310D02*
G01X15872376Y-13838314D01*
G01X15885838Y-13814438D02*
G01X15859168Y-13830440D01*
G01X15859168Y-13814438D02*
G01X15885838Y-13830440D01*
G01X15818020Y-13806310D02*
G01X15818020Y-13838314D01*
G01X15831482Y-13814438D02*
G01X15804812Y-13830440D01*
G01X15804812Y-13814438D02*
G01X15831482Y-13830440D01*
G01X12735068Y-5220562D02*
G01X12735068Y-5276188D01*
G01X12735068Y-5220562D02*
G01X12711192Y-5220562D01*
G01X12703318Y-5223102D01*
G01X12700778Y-5225896D01*
G01X12697984Y-5230976D01*
G01X12697984Y-5236310D01*
G01X12700778Y-5241644D01*
G01X12703318Y-5244438D01*
G01X12711192Y-5246978D01*
G01X12735068Y-5246978D01*
G01X12716526Y-5246978D02*
G01X12697984Y-5276188D01*
G01X12670298Y-5220562D02*
G01X12670298Y-5276188D01*
G01X12670298Y-5220562D02*
G01X12635754Y-5220562D01*
G01X12670298Y-5246978D02*
G01X12648962Y-5246978D01*
G01X12670298Y-5276188D02*
G01X12635754Y-5276188D01*
G01X12608068Y-5220562D02*
G01X12608068Y-5276188D01*
G01X12608068Y-5220562D02*
G01X12573524Y-5220562D01*
G01X12608068Y-5246978D02*
G01X12586732Y-5246978D01*
G01X12532376Y-5236310D02*
G01X12532376Y-5268314D01*
G01X12545838Y-5244438D02*
G01X12519168Y-5260440D01*
G01X12519168Y-5244438D02*
G01X12545838Y-5260440D01*
G01X12478020Y-5236310D02*
G01X12478020Y-5268314D01*
G01X12491482Y-5244438D02*
G01X12464812Y-5260440D01*
G01X12464812Y-5244438D02*
G01X12491482Y-5260440D01*
G01X15635068Y-5220562D02*
G01X15635068Y-5276188D01*
G01X15635068Y-5220562D02*
G01X15611192Y-5220562D01*
G01X15603318Y-5223102D01*
G01X15600778Y-5225896D01*
G01X15597984Y-5230976D01*
G01X15597984Y-5236310D01*
G01X15600778Y-5241644D01*
G01X15603318Y-5244438D01*
G01X15611192Y-5246978D01*
G01X15635068Y-5246978D01*
G01X15616526Y-5246978D02*
G01X15597984Y-5276188D01*
G01X15570298Y-5220562D02*
G01X15570298Y-5276188D01*
G01X15570298Y-5220562D02*
G01X15535754Y-5220562D01*
G01X15570298Y-5246978D02*
G01X15548962Y-5246978D01*
G01X15570298Y-5276188D02*
G01X15535754Y-5276188D01*
G01X15508068Y-5220562D02*
G01X15508068Y-5276188D01*
G01X15508068Y-5220562D02*
G01X15473524Y-5220562D01*
G01X15508068Y-5246978D02*
G01X15486732Y-5246978D01*
G01X15432376Y-5236310D02*
G01X15432376Y-5268314D01*
G01X15445838Y-5244438D02*
G01X15419168Y-5260440D01*
G01X15419168Y-5244438D02*
G01X15445838Y-5260440D01*
G01X15378020Y-5236310D02*
G01X15378020Y-5268314D01*
G01X15391482Y-5244438D02*
G01X15364812Y-5260440D01*
G01X15364812Y-5244438D02*
G01X15391482Y-5260440D01*
G54D11*
G01X14160010Y-9900470D02*
G01X14160010Y-9987084D01*
G01X14160010Y-9900470D02*
G01X14122926Y-9900470D01*
G01X14110480Y-9904534D01*
G01X14106416Y-9908852D01*
G01X14102098Y-9916980D01*
G01X14102098Y-9925362D01*
G01X14106416Y-9933490D01*
G01X14110480Y-9937554D01*
G01X14122926Y-9941872D01*
G01X14160010Y-9941872D01*
G01X14131054Y-9941872D02*
G01X14102098Y-9987084D01*
G01X14020564Y-9900470D02*
G01X14061966Y-9958382D01*
G01X13999990Y-9958382D01*
G01X14020564Y-9900470D02*
G01X14020564Y-9987084D01*
G01X14110470Y-7334791D02*
G01X14197084Y-7334791D01*
G01X14110470Y-7334791D02*
G01X14110470Y-7371875D01*
G01X14114534Y-7384321D01*
G01X14118852Y-7388385D01*
G01X14126980Y-7392703D01*
G01X14135362Y-7392703D01*
G01X14143490Y-7388385D01*
G01X14147554Y-7384321D01*
G01X14151872Y-7371875D01*
G01X14151872Y-7334791D02*
G01X14151872Y-7371875D01*
G01X14155936Y-7384321D01*
G01X14160000Y-7388385D01*
G01X14168382Y-7392703D01*
G01X14180574Y-7392703D01*
G01X14188956Y-7388385D01*
G01X14193020Y-7384321D01*
G01X14197084Y-7371875D01*
G01X14197084Y-7334791D01*
G01X14139426Y-7482365D02*
G01X14197084Y-7482365D01*
G01X14151872Y-7482365D02*
G01X14143490Y-7474237D01*
G01X14139426Y-7465855D01*
G01X14139426Y-7453409D01*
G01X14143490Y-7445281D01*
G01X14151872Y-7436899D01*
G01X14164064Y-7432835D01*
G01X14172446Y-7432835D01*
G01X14184892Y-7436899D01*
G01X14193020Y-7445281D01*
G01X14197084Y-7453409D01*
G01X14197084Y-7465855D01*
G01X14193020Y-7474237D01*
G01X14184892Y-7482365D01*
G01X14110470Y-7534943D02*
G01X14180574Y-7534943D01*
G01X14193020Y-7539007D01*
G01X14197084Y-7547389D01*
G01X14197084Y-7555517D01*
G01X14139426Y-7522497D02*
G01X14139426Y-7551453D01*
G01X14110470Y-7608095D02*
G01X14180574Y-7608095D01*
G01X14193020Y-7612159D01*
G01X14197084Y-7620541D01*
G01X14197084Y-7628669D01*
G01X14139426Y-7595649D02*
G01X14139426Y-7624605D01*
G01X14164064Y-7668801D02*
G01X14164064Y-7718331D01*
G01X14155936Y-7718331D01*
G01X14147554Y-7714267D01*
G01X14143490Y-7710203D01*
G01X14139426Y-7701821D01*
G01X14139426Y-7689375D01*
G01X14143490Y-7681247D01*
G01X14151872Y-7672865D01*
G01X14164064Y-7668801D01*
G01X14172446Y-7668801D01*
G01X14184892Y-7672865D01*
G01X14193020Y-7681247D01*
G01X14197084Y-7689375D01*
G01X14197084Y-7701821D01*
G01X14193020Y-7710203D01*
G01X14184892Y-7718331D01*
G01X14139426Y-7758463D02*
G01X14197084Y-7758463D01*
G01X14164064Y-7758463D02*
G01X14151872Y-7762527D01*
G01X14143490Y-7770909D01*
G01X14139426Y-7779037D01*
G01X14139426Y-7791483D01*
G01X14139426Y-7835679D02*
G01X14197084Y-7860571D01*
G01X14139426Y-7885209D02*
G01X14197084Y-7860571D01*
G01X14213594Y-7852189D01*
G01X14221976Y-7844061D01*
G01X14226040Y-7835679D01*
G01X14226040Y-7831615D01*
G01X16499738Y-11175916D02*
G01X16508120Y-11167534D01*
G01X16520566Y-11163470D01*
G01X16537076Y-11163470D01*
G01X16549268Y-11167534D01*
G01X16557650Y-11175916D01*
G01X16557650Y-11184044D01*
G01X16553586Y-11192426D01*
G01X16549268Y-11196490D01*
G01X16541140Y-11200554D01*
G01X16516248Y-11208936D01*
G01X16508120Y-11213000D01*
G01X16504056Y-11217064D01*
G01X16499738Y-11225446D01*
G01X16499738Y-11237892D01*
G01X16508120Y-11246020D01*
G01X16520566Y-11250084D01*
G01X16537076Y-11250084D01*
G01X16549268Y-11246020D01*
G01X16557650Y-11237892D01*
G01X16459606Y-11163470D02*
G01X16439032Y-11250084D01*
G01X16418204Y-11163470D02*
G01X16439032Y-11250084D01*
G01X16418204Y-11163470D02*
G01X16397630Y-11250084D01*
G01X16377056Y-11163470D02*
G01X16397630Y-11250084D01*
G01X16336924Y-11179980D02*
G01X16328542Y-11175916D01*
G01X16316350Y-11163470D01*
G01X16316350Y-11250084D01*
G01X14157978Y-10200470D02*
G01X14157978Y-10287084D01*
G01X14157978Y-10200470D02*
G01X14120894Y-10200470D01*
G01X14108448Y-10204534D01*
G01X14104384Y-10208852D01*
G01X14100066Y-10216980D01*
G01X14100066Y-10225362D01*
G01X14104384Y-10233490D01*
G01X14108448Y-10237554D01*
G01X14120894Y-10241872D01*
G01X14157978Y-10241872D01*
G01X14129022Y-10241872D02*
G01X14100066Y-10287084D01*
G01X14010404Y-10200470D02*
G01X14051552Y-10200470D01*
G01X14055870Y-10237554D01*
G01X14051552Y-10233490D01*
G01X14039360Y-10229426D01*
G01X14026914Y-10229426D01*
G01X14014468Y-10233490D01*
G01X14006340Y-10241872D01*
G01X14002022Y-10254064D01*
G01X14002022Y-10262446D01*
G01X14006340Y-10274892D01*
G01X14014468Y-10283020D01*
G01X14026914Y-10287084D01*
G01X14039360Y-10287084D01*
G01X14051552Y-10283020D01*
G01X14055870Y-10278956D01*
G01X14059934Y-10270574D01*
G01X13052211Y-7472868D02*
G01X13060593Y-7464486D01*
G01X13073039Y-7460422D01*
G01X13089549Y-7460422D01*
G01X13101741Y-7464486D01*
G01X13110123Y-7472868D01*
G01X13110123Y-7480996D01*
G01X13106059Y-7489378D01*
G01X13101741Y-7493442D01*
G01X13093613Y-7497506D01*
G01X13068721Y-7505888D01*
G01X13060593Y-7509952D01*
G01X13056529Y-7514016D01*
G01X13052211Y-7522398D01*
G01X13052211Y-7534844D01*
G01X13060593Y-7542972D01*
G01X13073039Y-7547036D01*
G01X13089549Y-7547036D01*
G01X13101741Y-7542972D01*
G01X13110123Y-7534844D01*
G01X13012079Y-7460422D02*
G01X12991505Y-7547036D01*
G01X12970677Y-7460422D02*
G01X12991505Y-7547036D01*
G01X12970677Y-7460422D02*
G01X12950103Y-7547036D01*
G01X12929529Y-7460422D02*
G01X12950103Y-7547036D01*
G01X12885333Y-7480996D02*
G01X12885333Y-7476932D01*
G01X12881015Y-7468804D01*
G01X12876951Y-7464486D01*
G01X12868823Y-7460422D01*
G01X12852313Y-7460422D01*
G01X12843931Y-7464486D01*
G01X12839867Y-7468804D01*
G01X12835803Y-7476932D01*
G01X12835803Y-7485314D01*
G01X12839867Y-7493442D01*
G01X12847995Y-7505888D01*
G01X12889397Y-7547036D01*
G01X12831485Y-7547036D01*
G01X12421870Y-6908546D02*
G01X12425934Y-6900164D01*
G01X12434316Y-6892036D01*
G01X12442444Y-6887718D01*
G01X12454890Y-6883654D01*
G01X12475464Y-6883654D01*
G01X12487910Y-6887718D01*
G01X12496292Y-6892036D01*
G01X12504420Y-6900164D01*
G01X12508484Y-6908546D01*
G01X12508484Y-6925056D01*
G01X12504420Y-6933184D01*
G01X12496292Y-6941566D01*
G01X12487910Y-6945630D01*
G01X12475464Y-6949694D01*
G01X12454890Y-6949694D01*
G01X12442444Y-6945630D01*
G01X12434316Y-6941566D01*
G01X12425934Y-6933184D01*
G01X12421870Y-6925056D01*
G01X12421870Y-6908546D01*
G01X12421870Y-6989826D02*
G01X12508484Y-6989826D01*
G01X12421870Y-6989826D02*
G01X12421870Y-7043420D01*
G01X12463272Y-6989826D02*
G01X12463272Y-7022846D01*
G01X12421870Y-7083552D02*
G01X12508484Y-7083552D01*
G01X12421870Y-7083552D02*
G01X12421870Y-7137146D01*
G01X12463272Y-7083552D02*
G01X12463272Y-7116572D01*
G01X13539470Y-6940550D02*
G01X13543534Y-6932168D01*
G01X13551916Y-6924040D01*
G01X13560044Y-6919722D01*
G01X13572490Y-6915658D01*
G01X13593064Y-6915658D01*
G01X13605510Y-6919722D01*
G01X13613892Y-6924040D01*
G01X13622020Y-6932168D01*
G01X13626084Y-6940550D01*
G01X13626084Y-6957060D01*
G01X13622020Y-6965188D01*
G01X13613892Y-6973570D01*
G01X13605510Y-6977634D01*
G01X13593064Y-6981698D01*
G01X13572490Y-6981698D01*
G01X13560044Y-6977634D01*
G01X13551916Y-6973570D01*
G01X13543534Y-6965188D01*
G01X13539470Y-6957060D01*
G01X13539470Y-6940550D01*
G01X13539470Y-7021830D02*
G01X13626084Y-7021830D01*
G01X13539470Y-7021830D02*
G01X13626084Y-7079742D01*
G01X13539470Y-7079742D02*
G01X13626084Y-7079742D01*
G01X15109309Y-9620470D02*
G01X15109309Y-9682446D01*
G01X15105245Y-9694892D01*
G01X15096863Y-9703020D01*
G01X15084417Y-9707084D01*
G01X15076289Y-9707084D01*
G01X15063843Y-9703020D01*
G01X15055715Y-9694892D01*
G01X15051397Y-9682446D01*
G01X15051397Y-9620470D01*
G01X15011265Y-9636980D02*
G01X15002883Y-9632916D01*
G01X14990691Y-9620470D01*
G01X14990691Y-9707084D01*
G01X14167978Y-9310470D02*
G01X14167978Y-9397084D01*
G01X14167978Y-9310470D02*
G01X14130894Y-9310470D01*
G01X14118448Y-9314534D01*
G01X14114384Y-9318852D01*
G01X14110066Y-9326980D01*
G01X14110066Y-9335362D01*
G01X14114384Y-9343490D01*
G01X14118448Y-9347554D01*
G01X14130894Y-9351872D01*
G01X14167978Y-9351872D01*
G01X14139022Y-9351872D02*
G01X14110066Y-9397084D01*
G01X14065870Y-9331044D02*
G01X14065870Y-9326980D01*
G01X14061552Y-9318852D01*
G01X14057488Y-9314534D01*
G01X14049360Y-9310470D01*
G01X14032850Y-9310470D01*
G01X14024468Y-9314534D01*
G01X14020404Y-9318852D01*
G01X14016340Y-9326980D01*
G01X14016340Y-9335362D01*
G01X14020404Y-9343490D01*
G01X14028532Y-9355936D01*
G01X14069934Y-9397084D01*
G01X14012022Y-9397084D01*
G01X14157978Y-9600470D02*
G01X14157978Y-9687084D01*
G01X14157978Y-9600470D02*
G01X14120894Y-9600470D01*
G01X14108448Y-9604534D01*
G01X14104384Y-9608852D01*
G01X14100066Y-9616980D01*
G01X14100066Y-9625362D01*
G01X14104384Y-9633490D01*
G01X14108448Y-9637554D01*
G01X14120894Y-9641872D01*
G01X14157978Y-9641872D01*
G01X14129022Y-9641872D02*
G01X14100066Y-9687084D01*
G01X14051552Y-9600470D02*
G01X14006340Y-9600470D01*
G01X14030978Y-9633490D01*
G01X14018532Y-9633490D01*
G01X14010404Y-9637554D01*
G01X14006340Y-9641872D01*
G01X14002022Y-9654064D01*
G01X14002022Y-9662446D01*
G01X14006340Y-9674892D01*
G01X14014468Y-9683020D01*
G01X14026914Y-9687084D01*
G01X14039360Y-9687084D01*
G01X14051552Y-9683020D01*
G01X14055870Y-9678956D01*
G01X14059934Y-9670574D01*
G01X12687824Y-11384830D02*
G01X12749069Y-11446076D01*
G01X12687824Y-11384830D02*
G01X12661601Y-11411053D01*
G01X12655674Y-11422727D01*
G01X12655854Y-11428654D01*
G01X12658548Y-11437455D01*
G01X12667349Y-11446255D01*
G01X12676149Y-11448949D01*
G01X12682076Y-11449129D01*
G01X12693751Y-11443202D01*
G01X12719973Y-11416980D01*
G01X12638971Y-11474633D02*
G01X12679741Y-11515403D01*
G01X12656393Y-11492055D02*
G01X12644898Y-11486307D01*
G01X12633044Y-11486307D01*
G01X12624423Y-11489181D01*
G01X12615622Y-11497982D01*
G01X12572697Y-11540907D02*
G01X12581318Y-11538034D01*
G01X12593172Y-11538034D01*
G01X12604666Y-11543781D01*
G01X12610593Y-11549708D01*
G01X12616520Y-11561382D01*
G01X12616341Y-11573057D01*
G01X12613467Y-11581678D01*
G01X12604666Y-11590478D01*
G01X12595866Y-11593532D01*
G01X12584371Y-11593532D01*
G01X12572697Y-11587605D01*
G01X12566770Y-11581678D01*
G01X12561022Y-11570183D01*
G01X12560843Y-11558509D01*
G01X12563896Y-11549708D01*
G01X12572697Y-11540907D01*
G01X12485947Y-11627656D02*
G01X12532645Y-11674354D01*
G01X12544319Y-11680281D01*
G01X12550067Y-11680281D01*
G01X12558867Y-11677227D01*
G01X12567668Y-11668427D01*
G01X12570542Y-11659806D01*
G01X12494748Y-11636457D02*
G01X12494569Y-11624783D01*
G01X12497622Y-11615982D01*
G01X12506422Y-11607181D01*
G01X12515044Y-11604308D01*
G01X12526897Y-11604308D01*
G01X12538392Y-11610055D01*
G01X12544319Y-11615982D01*
G01X12550246Y-11627656D01*
G01X12550067Y-11639331D01*
G01X12547193Y-11647952D01*
G01X12538392Y-11656753D01*
G01X12529592Y-11659806D01*
G01X12518097Y-11659806D01*
G01X12457570Y-11656034D02*
G01X12498340Y-11696804D01*
G01X12474992Y-11673456D02*
G01X12463497Y-11667708D01*
G01X12451643Y-11667708D01*
G01X12443022Y-11670582D01*
G01X12434221Y-11679383D01*
G01X12370821Y-11742783D02*
G01X12411591Y-11783554D01*
G01X12379621Y-11751584D02*
G01X12379442Y-11739910D01*
G01X12382495Y-11731109D01*
G01X12391296Y-11722308D01*
G01X12399917Y-11719435D01*
G01X12411771Y-11719435D01*
G01X12423265Y-11725182D01*
G01X12429192Y-11731109D01*
G01X12435119Y-11742783D01*
G01X12434940Y-11754458D01*
G01X12432066Y-11763079D01*
G01X12423265Y-11771879D01*
G01X12414465Y-11774933D01*
G01X12402970Y-11774933D01*
G01X12342443Y-11771161D02*
G01X12383213Y-11811931D01*
G01X12354117Y-11782835D02*
G01X12336516Y-11782835D01*
G01X12327895Y-11785709D01*
G01X12319094Y-11794510D01*
G01X12316041Y-11803310D01*
G01X12321968Y-11814985D01*
G01X12351064Y-11844081D01*
G01X12321968Y-11814985D02*
G01X12304367Y-11814985D01*
G01X12295746Y-11817858D01*
G01X12286945Y-11826659D01*
G01X12284071Y-11835280D01*
G01X12289819Y-11847134D01*
G01X12318915Y-11876230D01*
G01X12249767Y-11863837D02*
G01X12290537Y-11904608D01*
G01X12261441Y-11875512D02*
G01X12243840Y-11875512D01*
G01X12235219Y-11878385D01*
G01X12226418Y-11887186D01*
G01X12223365Y-11895987D01*
G01X12229292Y-11907661D01*
G01X12258388Y-11936757D01*
G01X12229292Y-11907661D02*
G01X12211690Y-11907661D01*
G01X12203069Y-11910535D01*
G01X12194269Y-11919335D01*
G01X12191395Y-11927956D01*
G01X12197142Y-11939810D01*
G01X12226238Y-11968906D01*
G01X12136616Y-11936038D02*
G01X12136616Y-11941786D01*
G01X12130689Y-11941965D01*
G01X12130868Y-11936038D01*
G01X12136616Y-11936038D01*
G01X12154217Y-11959387D02*
G01X12194987Y-12000157D01*
G01X12122786Y-11990818D02*
G01X12163556Y-12031588D01*
G01X12134460Y-12002492D02*
G01X12116859Y-12002492D01*
G01X12108238Y-12005366D01*
G01X12099437Y-12014167D01*
G01X12096384Y-12022967D01*
G01X12102311Y-12034642D01*
G01X12131407Y-12063738D01*
G01X12027236Y-12086368D02*
G01X12073933Y-12133065D01*
G01X12085608Y-12138992D01*
G01X12091355Y-12138992D01*
G01X12100156Y-12135939D01*
G01X12108956Y-12127138D01*
G01X12111830Y-12118517D01*
G01X12036037Y-12095169D02*
G01X12035857Y-12083494D01*
G01X12038910Y-12074694D01*
G01X12047711Y-12065893D01*
G01X12056332Y-12063019D01*
G01X12068186Y-12063019D01*
G01X12079681Y-12068767D01*
G01X12085608Y-12074694D01*
G01X12091535Y-12086368D01*
G01X12091355Y-12098042D01*
G01X12088481Y-12106663D01*
G01X12079681Y-12115464D01*
G01X12070880Y-12118517D01*
G01X12059385Y-12118517D01*
G01X11913007Y-12159647D02*
G01X11974253Y-12220892D01*
G01X11913007Y-12159647D02*
G01X11886785Y-12185869D01*
G01X11880858Y-12197544D01*
G01X11881037Y-12203470D01*
G01X11883732Y-12212271D01*
G01X11892532Y-12221072D01*
G01X11901333Y-12223766D01*
G01X11907260Y-12223945D01*
G01X11918934Y-12218019D01*
G01X11945156Y-12191796D01*
G01X11849607Y-12263997D02*
G01X11858228Y-12261124D01*
G01X11870082Y-12261124D01*
G01X11881576Y-12266871D01*
G01X11887503Y-12272798D01*
G01X11893430Y-12284472D01*
G01X11893251Y-12296147D01*
G01X11890377Y-12304768D01*
G01X11881576Y-12313568D01*
G01X11872776Y-12316622D01*
G01X11861281Y-12316622D01*
G01X11849607Y-12310695D01*
G01X11843680Y-12304768D01*
G01X11837932Y-12293273D01*
G01X11837753Y-12281599D01*
G01X11840806Y-12272798D01*
G01X11849607Y-12263997D01*
G01X11797880Y-12315724D02*
G01X11838651Y-12356494D01*
G01X11815302Y-12333145D02*
G01X11803807Y-12327398D01*
G01X11791953Y-12327398D01*
G01X11783332Y-12330272D01*
G01X11774532Y-12339072D01*
G01X11716878Y-12355776D02*
G01X11766449Y-12405347D01*
G01X11772376Y-12417021D01*
G01X11769323Y-12425822D01*
G01X11763576Y-12431569D01*
G01X11746154Y-12367450D02*
G01X11725679Y-12387925D01*
G01X14159309Y-9010470D02*
G01X14159309Y-9097084D01*
G01X14159309Y-9010470D02*
G01X14122225Y-9010470D01*
G01X14109779Y-9014534D01*
G01X14105715Y-9018852D01*
G01X14101397Y-9026980D01*
G01X14101397Y-9035362D01*
G01X14105715Y-9043490D01*
G01X14109779Y-9047554D01*
G01X14122225Y-9051872D01*
G01X14159309Y-9051872D01*
G01X14130353Y-9051872D02*
G01X14101397Y-9097084D01*
G01X14061265Y-9026980D02*
G01X14052883Y-9022916D01*
G01X14040691Y-9010470D01*
G01X14040691Y-9097084D01*
G04 Text End*

G04 PolygonModel Start*
G54D14*
G01X14391294Y-9875500D02*
G01X14436707Y-9875500D01*
G01X14391294Y-10022500D02*
G01X14436707Y-10022500D01*
G01X14556000Y-6740000D02*
G01X14556000Y-7090000D01*
G01X14556000Y-8130000D02*
G01X14556000Y-8480000D01*
G01X14764000Y-6532000D02*
G01X14556000Y-6740000D01*
G01X14764000Y-8688000D02*
G01X14556000Y-8480000D01*
G01X15010000Y-6532000D02*
G01X14764000Y-6532000D01*
G01X15010000Y-8688000D02*
G01X14764000Y-8688000D01*
G01X15673000Y-6532000D02*
G01X15610000Y-6532000D01*
G01X15673000Y-8688000D02*
G01X15610000Y-8688000D01*
G01X16068000Y-6676000D02*
G01X15673000Y-6532000D01*
G01X16068000Y-8544000D02*
G01X15673000Y-8688000D01*
G01X16068000Y-6676000D02*
G02X16166653Y-7009665I-73000J-203000D01*
G01X16165000Y-8210000D02*
G02X16068817Y-8542524I-170000J-131000D01*
G01X14391294Y-10170500D02*
G01X14436707Y-10170500D01*
G01X14391294Y-10317500D02*
G01X14436707Y-10317500D01*
G54D15*
G01X15254500Y-9550000D02*
G01X15254500Y-9523000D01*
G01X15254500Y-9796000D02*
G01X15254500Y-9823000D01*
G01X15281500Y-9523000D02*
G01X15254500Y-9523000D01*
G01X15281500Y-9823000D02*
G01X15254500Y-9823000D01*
G01X15527500Y-9523000D02*
G01X15554500Y-9523000D01*
G01X15527500Y-9823000D02*
G01X15554500Y-9823000D01*
G01X15554500Y-9550000D02*
G01X15554500Y-9523000D01*
G01X15554500Y-9796000D02*
G01X15554500Y-9823000D01*
G54D14*
G01X14391294Y-9285500D02*
G01X14436707Y-9285500D01*
G01X14391294Y-9432500D02*
G01X14436707Y-9432500D01*
G01X14391294Y-9580500D02*
G01X14436707Y-9580500D01*
G01X14391294Y-9727500D02*
G01X14436707Y-9727500D01*
G54D15*
G01X11294244Y-11760704D02*
G01X11725296Y-12191756D01*
G01X11725296Y-12191756D02*
G01X12425756Y-11491296D01*
G01X11994704Y-11060244D02*
G01X11294244Y-11760704D01*
G01X12425756Y-11491296D02*
G01X11994704Y-11060244D01*
G54D14*
G01X14391294Y-8990500D02*
G01X14436707Y-8990500D01*
G01X14391294Y-9137500D02*
G01X14436707Y-9137500D01*

G04 Rect Start*
G54D12*
G01X12928600Y-11925300D02*
G01X12928600Y-10845800D01*
G01X15392400Y-10845800D01*
G01X15392400Y-11925300D01*
G01X12928600Y-11925300D01*
G04 Rect End*

G04 Circle Start*
G54D17*
G01X15640500Y-9594260D02*
G03X15660500Y-9594260I10000J0D01*
G03X15640500Y-9594260I-10000J0D01*
G54D18*
G01X11490796Y-11448573D02*
G03X11520796Y-11448573I15000J0D01*
G03X11490796Y-11448573I-15000J0D01*
G04 Circle End*

M02*

