G04 Layer: TopSilkscreenLayer*
G04 EasyEDA Pro v2.2.43.4, 2025-11-10 11:02:42*
G04 Gerber Generator version 0.3*
G04 Scale: 100 percent, Rotated: No, Reflected: No*
G04 Dimensions in millimeters*
G04 Leading zeros omitted, absolute positions, 4 integers and 5 decimals*
G04 Generated by one-click*
%FSLAX45Y45*%
%MOMM*%
%ADD10C,0.2032*%
%ADD11C,0.12*%
%ADD12C,0.9339*%
G75*


G04 Text Start*
G54D10*
G01X13192760Y-14447520D02*
G01X13192760Y-14567662D01*
G01X13272770Y-14447520D02*
G01X13192760Y-14527530D01*
G01X13221462Y-14499082D02*
G01X13272770Y-14567662D01*
G01X13389102Y-14487652D02*
G01X13389102Y-14567662D01*
G01X13389102Y-14504670D02*
G01X13377672Y-14493240D01*
G01X13366242Y-14487652D01*
G01X13349224Y-14487652D01*
G01X13337794Y-14493240D01*
G01X13326364Y-14504670D01*
G01X13320522Y-14521942D01*
G01X13320522Y-14533372D01*
G01X13326364Y-14550390D01*
G01X13337794Y-14561820D01*
G01X13349224Y-14567662D01*
G01X13366242Y-14567662D01*
G01X13377672Y-14561820D01*
G01X13389102Y-14550390D01*
G01X13454126Y-14447520D02*
G01X13454126Y-14544802D01*
G01X13459714Y-14561820D01*
G01X13471144Y-14567662D01*
G01X13482574Y-14567662D01*
G01X13436854Y-14487652D02*
G01X13476986Y-14487652D01*
G01X13530326Y-14447520D02*
G01X13536168Y-14453362D01*
G01X13541756Y-14447520D01*
G01X13536168Y-14441932D01*
G01X13530326Y-14447520D01*
G01X13536168Y-14487652D02*
G01X13536168Y-14567662D01*
G01X13589508Y-14521942D02*
G01X13658088Y-14521942D01*
G01X13658088Y-14510512D01*
G01X13652500Y-14499082D01*
G01X13646658Y-14493240D01*
G01X13635228Y-14487652D01*
G01X13618210Y-14487652D01*
G01X13606780Y-14493240D01*
G01X13595350Y-14504670D01*
G01X13589508Y-14521942D01*
G01X13589508Y-14533372D01*
G01X13595350Y-14550390D01*
G01X13606780Y-14561820D01*
G01X13618210Y-14567662D01*
G01X13635228Y-14567662D01*
G01X13646658Y-14561820D01*
G01X13658088Y-14550390D01*
G01X13717270Y-14430502D02*
G01X13717270Y-14464792D01*
G01X13828014Y-14504670D02*
G01X13822172Y-14493240D01*
G01X13805154Y-14487652D01*
G01X13787882Y-14487652D01*
G01X13770864Y-14493240D01*
G01X13765022Y-14504670D01*
G01X13770864Y-14516100D01*
G01X13782294Y-14521942D01*
G01X13810742Y-14527530D01*
G01X13822172Y-14533372D01*
G01X13828014Y-14544802D01*
G01X13828014Y-14550390D01*
G01X13822172Y-14561820D01*
G01X13805154Y-14567662D01*
G01X13787882Y-14567662D01*
G01X13770864Y-14561820D01*
G01X13765022Y-14550390D01*
G01X14003782Y-14447520D02*
G01X14003782Y-14567662D01*
G01X14003782Y-14447520D02*
G01X14043914Y-14447520D01*
G01X14060932Y-14453362D01*
G01X14072362Y-14464792D01*
G01X14078204Y-14476222D01*
G01X14083792Y-14493240D01*
G01X14083792Y-14521942D01*
G01X14078204Y-14538960D01*
G01X14072362Y-14550390D01*
G01X14060932Y-14561820D01*
G01X14043914Y-14567662D01*
G01X14003782Y-14567662D01*
G01X14200124Y-14487652D02*
G01X14200124Y-14567662D01*
G01X14200124Y-14504670D02*
G01X14188694Y-14493240D01*
G01X14177264Y-14487652D01*
G01X14160246Y-14487652D01*
G01X14148816Y-14493240D01*
G01X14137386Y-14504670D01*
G01X14131544Y-14521942D01*
G01X14131544Y-14533372D01*
G01X14137386Y-14550390D01*
G01X14148816Y-14561820D01*
G01X14160246Y-14567662D01*
G01X14177264Y-14567662D01*
G01X14188694Y-14561820D01*
G01X14200124Y-14550390D01*
G01X14316456Y-14447520D02*
G01X14316456Y-14567662D01*
G01X14316456Y-14504670D02*
G01X14305026Y-14493240D01*
G01X14293596Y-14487652D01*
G01X14276578Y-14487652D01*
G01X14265148Y-14493240D01*
G01X14253718Y-14504670D01*
G01X14247876Y-14521942D01*
G01X14247876Y-14533372D01*
G01X14253718Y-14550390D01*
G01X14265148Y-14561820D01*
G01X14276578Y-14567662D01*
G01X14293596Y-14567662D01*
G01X14305026Y-14561820D01*
G01X14316456Y-14550390D01*
G01X14492224Y-14487652D02*
G01X14515084Y-14567662D01*
G01X14537944Y-14487652D02*
G01X14515084Y-14567662D01*
G01X14537944Y-14487652D02*
G01X14560804Y-14567662D01*
G01X14583664Y-14487652D02*
G01X14560804Y-14567662D01*
G01X14699996Y-14487652D02*
G01X14699996Y-14567662D01*
G01X14699996Y-14504670D02*
G01X14688566Y-14493240D01*
G01X14677136Y-14487652D01*
G01X14660118Y-14487652D01*
G01X14648688Y-14493240D01*
G01X14637258Y-14504670D01*
G01X14631416Y-14521942D01*
G01X14631416Y-14533372D01*
G01X14637258Y-14550390D01*
G01X14648688Y-14561820D01*
G01X14660118Y-14567662D01*
G01X14677136Y-14567662D01*
G01X14688566Y-14561820D01*
G01X14699996Y-14550390D01*
G01X14810740Y-14504670D02*
G01X14804898Y-14493240D01*
G01X14787880Y-14487652D01*
G01X14770608Y-14487652D01*
G01X14753590Y-14493240D01*
G01X14747748Y-14504670D01*
G01X14753590Y-14516100D01*
G01X14765020Y-14521942D01*
G01X14793468Y-14527530D01*
G01X14804898Y-14533372D01*
G01X14810740Y-14544802D01*
G01X14810740Y-14550390D01*
G01X14804898Y-14561820D01*
G01X14787880Y-14567662D01*
G01X14770608Y-14567662D01*
G01X14753590Y-14561820D01*
G01X14747748Y-14550390D01*
G01X14986508Y-14447520D02*
G01X14986508Y-14567662D01*
G01X14986508Y-14510512D02*
G01X15003780Y-14493240D01*
G01X15015210Y-14487652D01*
G01X15032228Y-14487652D01*
G01X15043658Y-14493240D01*
G01X15049500Y-14510512D01*
G01X15049500Y-14567662D01*
G01X15097252Y-14521942D02*
G01X15165832Y-14521942D01*
G01X15165832Y-14510512D01*
G01X15160244Y-14499082D01*
G01X15154402Y-14493240D01*
G01X15142972Y-14487652D01*
G01X15125954Y-14487652D01*
G01X15114524Y-14493240D01*
G01X15103094Y-14504670D01*
G01X15097252Y-14521942D01*
G01X15097252Y-14533372D01*
G01X15103094Y-14550390D01*
G01X15114524Y-14561820D01*
G01X15125954Y-14567662D01*
G01X15142972Y-14567662D01*
G01X15154402Y-14561820D01*
G01X15165832Y-14550390D01*
G01X15213584Y-14487652D02*
G01X15213584Y-14567662D01*
G01X15213584Y-14521942D02*
G01X15219426Y-14504670D01*
G01X15230856Y-14493240D01*
G01X15242286Y-14487652D01*
G01X15259304Y-14487652D01*
G01X15307056Y-14521942D02*
G01X15375636Y-14521942D01*
G01X15375636Y-14510512D01*
G01X15370048Y-14499082D01*
G01X15364206Y-14493240D01*
G01X15352776Y-14487652D01*
G01X15335758Y-14487652D01*
G01X15324328Y-14493240D01*
G01X15312898Y-14504670D01*
G01X15307056Y-14521942D01*
G01X15307056Y-14533372D01*
G01X15312898Y-14550390D01*
G01X15324328Y-14561820D01*
G01X15335758Y-14567662D01*
G01X15352776Y-14567662D01*
G01X15364206Y-14561820D01*
G01X15375636Y-14550390D01*
G01X13560160Y-5239820D02*
G01X13560160Y-5359962D01*
G01X13640170Y-5239820D02*
G01X13560160Y-5319830D01*
G01X13588862Y-5291382D02*
G01X13640170Y-5359962D01*
G01X13756502Y-5279952D02*
G01X13756502Y-5359962D01*
G01X13756502Y-5296970D02*
G01X13745072Y-5285540D01*
G01X13733642Y-5279952D01*
G01X13716624Y-5279952D01*
G01X13705194Y-5285540D01*
G01X13693764Y-5296970D01*
G01X13687922Y-5314242D01*
G01X13687922Y-5325672D01*
G01X13693764Y-5342690D01*
G01X13705194Y-5354120D01*
G01X13716624Y-5359962D01*
G01X13733642Y-5359962D01*
G01X13745072Y-5354120D01*
G01X13756502Y-5342690D01*
G01X13821526Y-5239820D02*
G01X13821526Y-5337102D01*
G01X13827114Y-5354120D01*
G01X13838544Y-5359962D01*
G01X13849974Y-5359962D01*
G01X13804254Y-5279952D02*
G01X13844386Y-5279952D01*
G01X13897726Y-5239820D02*
G01X13903568Y-5245662D01*
G01X13909156Y-5239820D01*
G01X13903568Y-5234232D01*
G01X13897726Y-5239820D01*
G01X13903568Y-5279952D02*
G01X13903568Y-5359962D01*
G01X13956908Y-5314242D02*
G01X14025488Y-5314242D01*
G01X14025488Y-5302812D01*
G01X14019900Y-5291382D01*
G01X14014058Y-5285540D01*
G01X14002628Y-5279952D01*
G01X13985610Y-5279952D01*
G01X13974180Y-5285540D01*
G01X13962750Y-5296970D01*
G01X13956908Y-5314242D01*
G01X13956908Y-5325672D01*
G01X13962750Y-5342690D01*
G01X13974180Y-5354120D01*
G01X13985610Y-5359962D01*
G01X14002628Y-5359962D01*
G01X14014058Y-5354120D01*
G01X14025488Y-5342690D01*
G01X14201256Y-5279952D02*
G01X14224116Y-5359962D01*
G01X14246976Y-5279952D02*
G01X14224116Y-5359962D01*
G01X14246976Y-5279952D02*
G01X14269836Y-5359962D01*
G01X14292696Y-5279952D02*
G01X14269836Y-5359962D01*
G01X14409028Y-5279952D02*
G01X14409028Y-5359962D01*
G01X14409028Y-5296970D02*
G01X14397598Y-5285540D01*
G01X14386168Y-5279952D01*
G01X14369150Y-5279952D01*
G01X14357720Y-5285540D01*
G01X14346290Y-5296970D01*
G01X14340448Y-5314242D01*
G01X14340448Y-5325672D01*
G01X14346290Y-5342690D01*
G01X14357720Y-5354120D01*
G01X14369150Y-5359962D01*
G01X14386168Y-5359962D01*
G01X14397598Y-5354120D01*
G01X14409028Y-5342690D01*
G01X14519772Y-5296970D02*
G01X14513930Y-5285540D01*
G01X14496912Y-5279952D01*
G01X14479640Y-5279952D01*
G01X14462622Y-5285540D01*
G01X14456780Y-5296970D01*
G01X14462622Y-5308400D01*
G01X14474052Y-5314242D01*
G01X14502500Y-5319830D01*
G01X14513930Y-5325672D01*
G01X14519772Y-5337102D01*
G01X14519772Y-5342690D01*
G01X14513930Y-5354120D01*
G01X14496912Y-5359962D01*
G01X14479640Y-5359962D01*
G01X14462622Y-5354120D01*
G01X14456780Y-5342690D01*
G01X14695540Y-5239820D02*
G01X14695540Y-5359962D01*
G01X14695540Y-5302812D02*
G01X14712812Y-5285540D01*
G01X14724242Y-5279952D01*
G01X14741260Y-5279952D01*
G01X14752690Y-5285540D01*
G01X14758532Y-5302812D01*
G01X14758532Y-5359962D01*
G01X14806284Y-5314242D02*
G01X14874864Y-5314242D01*
G01X14874864Y-5302812D01*
G01X14869276Y-5291382D01*
G01X14863434Y-5285540D01*
G01X14852004Y-5279952D01*
G01X14834986Y-5279952D01*
G01X14823556Y-5285540D01*
G01X14812126Y-5296970D01*
G01X14806284Y-5314242D01*
G01X14806284Y-5325672D01*
G01X14812126Y-5342690D01*
G01X14823556Y-5354120D01*
G01X14834986Y-5359962D01*
G01X14852004Y-5359962D01*
G01X14863434Y-5354120D01*
G01X14874864Y-5342690D01*
G01X14922616Y-5279952D02*
G01X14922616Y-5359962D01*
G01X14922616Y-5314242D02*
G01X14928458Y-5296970D01*
G01X14939888Y-5285540D01*
G01X14951318Y-5279952D01*
G01X14968336Y-5279952D01*
G01X15016088Y-5314242D02*
G01X15084668Y-5314242D01*
G01X15084668Y-5302812D01*
G01X15079080Y-5291382D01*
G01X15073238Y-5285540D01*
G01X15061808Y-5279952D01*
G01X15044790Y-5279952D01*
G01X15033360Y-5285540D01*
G01X15021930Y-5296970D01*
G01X15016088Y-5314242D01*
G01X15016088Y-5325672D01*
G01X15021930Y-5342690D01*
G01X15033360Y-5354120D01*
G01X15044790Y-5359962D01*
G01X15061808Y-5359962D01*
G01X15073238Y-5354120D01*
G01X15084668Y-5342690D01*
G04 Text End*

G04 PolygonModel Start*
G54D11*
G01X12417000Y-8086400D02*
G01X12417000Y-8102000D01*
G01X12417000Y-8318000D02*
G01X12417000Y-8333600D01*
G01X12417000Y-8086448D02*
G02X12740140Y-8101994I156000J-123552D01*
G01X12468904Y-8102000D02*
G02X12677091Y-8101995I104096J-108000D01*
G01X12677091Y-8318005D02*
G02X12468904Y-8318000I-104091J108005D01*
G01X12740140Y-8318006D02*
G02X12417000Y-8333552I-167140J108006D01*
G01X13401000Y-8076400D02*
G01X13401000Y-8092000D01*
G01X13401000Y-8308000D02*
G01X13401000Y-8323600D01*
G01X13401000Y-8076449D02*
G02X13724140Y-8091994I156000J-123552D01*
G01X13452904Y-8092000D02*
G02X13661091Y-8091995I104096J-108000D01*
G01X13661091Y-8308005D02*
G02X13452904Y-8308000I-104091J108005D01*
G01X13724140Y-8308006D02*
G02X13401000Y-8323552I-167140J108006D01*
G01X12407000Y-9086400D02*
G01X12407000Y-9102000D01*
G01X12407000Y-9318000D02*
G01X12407000Y-9333600D01*
G01X12407000Y-9086449D02*
G02X12730140Y-9101994I156000J-123552D01*
G01X12458904Y-9102000D02*
G02X12667091Y-9101995I104096J-108000D01*
G01X12667091Y-9318005D02*
G02X12458904Y-9318000I-104091J108005D01*
G01X12730140Y-9318006D02*
G02X12407000Y-9333552I-167140J108006D01*
G01X13401000Y-9076400D02*
G01X13401000Y-9092000D01*
G01X13401000Y-9308000D02*
G01X13401000Y-9323600D01*
G01X13401000Y-9076448D02*
G02X13724140Y-9091994I156000J-123552D01*
G01X13452904Y-9092000D02*
G02X13661091Y-9091995I104096J-108000D01*
G01X13661091Y-9308005D02*
G02X13452904Y-9308000I-104091J108005D01*
G01X13724140Y-9308006D02*
G02X13401000Y-9323551I-167140J108006D01*

M02*

