G04 Layer: TopLayer*
G04 EasyEDA Pro v2.2.43.4, 2025-11-10 11:02:42*
G04 Gerber Generator version 0.3*
G04 Scale: 100 percent, Rotated: No, Reflected: No*
G04 Dimensions in millimeters*
G04 Leading zeros omitted, absolute positions, 4 integers and 5 decimals*
G04 Generated by one-click*
%FSLAX45Y45*%
%MOMM*%
%ADD10C,0.8*%
%ADD11C,0.90508*%
%ADD12R,1.8X1.8*%
%ADD13C,1.8*%
%ADD14C,0.991*%
%ADD15C,0.6*%
%ADD16C,0.1020*%
%ADD17C,0.1*%
G75*


G04 Copper Start*
G36*
G01X12004357Y-6458590D02*
G01X12004357Y-6315123D01*
G01X12234272Y-6315123D01*
G01X12242443Y-6316708D01*
G01X12250749Y-6317239D01*
G01X16206984Y-6317647D01*
G01X16216063Y-6317014D01*
G01X16224964Y-6315123D01*
G01X16418636Y-6315123D01*
G01X16418636Y-11029681D01*
G01X16420571Y-11045452D01*
G01X16426260Y-11060288D01*
G01X16435366Y-11073310D01*
G01X16447350Y-11083744D01*
G01X16461500Y-11090973D01*
G01X16476978Y-11094568D01*
G01X16492865Y-11094315D01*
G01X16508221Y-11090229D01*
G01X16522134Y-11082554D01*
G01X16533779Y-11071743D01*
G01X16542466Y-11058438D01*
G01X16547680Y-11043429D01*
G01X16568231Y-10948069D01*
G01X16603466Y-10870975D01*
G01X16667470Y-10803659D01*
G01X16739002Y-10757913D01*
G01X16819120Y-10723587D01*
G01X16896619Y-10709661D01*
G01X16965617Y-10719890D01*
G01X17027962Y-10759010D01*
G01X17079426Y-10832745D01*
G01X17110284Y-10926783D01*
G01X17136204Y-11035186D01*
G01X17138437Y-11042540D01*
G01X17178513Y-11150688D01*
G01X17183269Y-11160741D01*
G01X17245669Y-11267508D01*
G01X17306775Y-11377881D01*
G01X17338316Y-11479463D01*
G01X17342971Y-11554046D01*
G01X17322727Y-11605704D01*
G01X17274162Y-11630182D01*
G01X17172009Y-11635374D01*
G01X17156117Y-11638180D01*
G01X17141399Y-11644801D01*
G01X17128756Y-11654830D01*
G01X17118961Y-11667656D01*
G01X17112614Y-11682493D01*
G01X17110101Y-11698434D01*
G01X17111578Y-11714505D01*
G01X17116953Y-11729721D01*
G01X17117108Y-11730031D01*
G01X17122912Y-11739520D01*
G01X17130242Y-11747886D01*
G01X17128918Y-11758858D01*
G01X17124652Y-11879664D01*
G01X17093595Y-12002686D01*
G01X17056392Y-12107578D01*
G01X17016200Y-12206020D01*
G01X16965853Y-12296299D01*
G01X16898698Y-12386522D01*
G01X16820149Y-12478288D01*
G01X16739359Y-12555638D01*
G01X16667695Y-12611115D01*
G01X16591556Y-12665507D01*
G01X16499626Y-12729143D01*
G01X16406584Y-12790775D01*
G01X16312298Y-12850074D01*
G01X16218178Y-12905798D01*
G01X16144964Y-12941412D01*
G01X16032704Y-12988820D01*
G01X15896877Y-13042940D01*
G01X15883724Y-13050022D01*
G01X15872526Y-13059909D01*
G01X15853683Y-13063808D01*
G01X15836007Y-13071414D01*
G01X15820222Y-13082417D01*
G01X15804200Y-13082865D01*
G01X15788480Y-13085994D01*
G01X15773507Y-13091714D01*
G01X15759705Y-13099864D01*
G01X15747466Y-13110213D01*
G01X15730038Y-13112031D01*
G01X15713238Y-13117011D01*
G01X15697634Y-13124984D01*
G01X15683755Y-13135680D01*
G01X15665073Y-13136782D01*
G01X15646966Y-13141516D01*
G01X15630134Y-13149699D01*
G01X15615227Y-13161015D01*
G01X15596275Y-13162661D01*
G01X15578028Y-13168040D01*
G01X15561213Y-13176939D01*
G01X15546502Y-13189001D01*
G01X15528846Y-13190045D01*
G01X15511687Y-13194337D01*
G01X15495617Y-13201726D01*
G01X15481190Y-13211960D01*
G01X15462943Y-13212676D01*
G01X15445168Y-13216860D01*
G01X15428518Y-13224360D01*
G01X15413605Y-13234899D01*
G01X15394176Y-13235525D01*
G01X15375278Y-13240083D01*
G01X15357700Y-13248381D01*
G01X15342172Y-13260076D01*
G01X15326267Y-13261181D01*
G01X15310769Y-13264923D01*
G01X15296113Y-13271198D01*
G01X15282708Y-13279830D01*
G01X15270931Y-13290576D01*
G01X15254708Y-13292379D01*
G01X15239031Y-13296926D01*
G01X15224361Y-13304083D01*
G01X15211128Y-13313639D01*
G01X15191699Y-13314265D01*
G01X15172801Y-13318823D01*
G01X15155222Y-13327121D01*
G01X15139694Y-13338816D01*
G01X15121622Y-13340281D01*
G01X15104154Y-13345145D01*
G01X15087925Y-13353230D01*
G01X15073521Y-13364244D01*
G01X15056145Y-13365345D01*
G01X15039260Y-13369590D01*
G01X15023429Y-13376837D01*
G01X15009182Y-13386845D01*
G01X14998219Y-13389390D01*
G01X14987857Y-13393780D01*
G01X14880827Y-13450468D01*
G01X14879086Y-13451425D01*
G01X14773846Y-13511420D01*
G01X14772873Y-13511986D01*
G01X14668684Y-13573837D01*
G01X14668449Y-13573977D01*
G01X14564426Y-13636333D01*
G01X14557483Y-13641145D01*
G01X14475816Y-13706130D01*
G01X14471689Y-13709712D01*
G01X14385112Y-13791599D01*
G01X14303244Y-13856909D01*
G01X14239959Y-13880358D01*
G01X14185992Y-13866083D01*
G01X14116077Y-13815229D01*
G01X14041780Y-13744657D01*
G01X14040586Y-13743552D01*
G01X13972355Y-13681965D01*
G01X13966438Y-13677228D01*
G01X13864442Y-13605067D01*
G01X13860924Y-13602747D01*
G01X13754351Y-13537425D01*
G01X13750633Y-13535314D01*
G01X13639928Y-13477251D01*
G01X13636001Y-13475359D01*
G01X13521630Y-13424981D01*
G01X13518369Y-13423651D01*
G01X13449473Y-13397729D01*
G01X13447927Y-13397170D01*
G01X13381443Y-13374087D01*
G01X13367547Y-13362680D01*
G01X13351755Y-13354087D01*
G01X13334629Y-13348615D01*
G01X13316781Y-13346458D01*
G01X13302690Y-13334819D01*
G01X13286636Y-13326085D01*
G01X13269209Y-13320578D01*
G01X13251051Y-13318501D01*
G01X13236413Y-13306501D01*
G01X13219691Y-13297631D01*
G01X13201545Y-13292244D01*
G01X13182692Y-13290551D01*
G01X13169075Y-13280043D01*
G01X13153790Y-13272155D01*
G01X13137336Y-13267144D01*
G01X13120249Y-13265174D01*
G01X13105699Y-13253228D01*
G01X13089085Y-13244377D01*
G01X13071054Y-13238967D01*
G01X13052311Y-13237208D01*
G01X13038401Y-13226515D01*
G01X13022765Y-13218555D01*
G01X13005936Y-13213597D01*
G01X12988482Y-13211811D01*
G01X12974236Y-13200076D01*
G01X12957993Y-13191309D01*
G01X12940366Y-13185838D01*
G01X12922014Y-13183871D01*
G01X12907580Y-13172010D01*
G01X12891109Y-13163195D01*
G01X12873234Y-13157764D01*
G01X12854642Y-13155926D01*
G01X12840209Y-13144067D01*
G01X12823739Y-13135253D01*
G01X12805865Y-13129823D01*
G01X12787276Y-13127986D01*
G01X12772249Y-13115733D01*
G01X12755052Y-13106777D01*
G01X12736398Y-13101489D01*
G01X12717060Y-13100088D01*
G01X12703608Y-13089674D01*
G01X12688518Y-13081818D01*
G01X12672271Y-13076773D01*
G01X12655386Y-13074698D01*
G01X12641032Y-13062875D01*
G01X12624656Y-13054067D01*
G01X12606880Y-13048608D01*
G01X12588382Y-13046707D01*
G01X12574517Y-13036043D01*
G01X12558936Y-13028094D01*
G01X12542164Y-13023128D01*
G01X12524766Y-13021313D01*
G01X12509728Y-13009917D01*
G01X12492739Y-13001709D01*
G01X12474465Y-12997011D01*
G01X12455624Y-12996007D01*
G01X12302516Y-12926350D01*
G01X12157456Y-12859458D01*
G01X12037130Y-12803072D01*
G01X11950966Y-12761641D01*
G01X11910189Y-12740581D01*
G01X11811555Y-12677441D01*
G01X11718332Y-12607689D01*
G01X11633853Y-12530254D01*
G01X11558845Y-12441876D01*
G01X11487898Y-12340107D01*
G01X11428993Y-12233112D01*
G01X11391798Y-12132408D01*
G01X11346513Y-11987744D01*
G01X11323031Y-11887756D01*
G01X11322836Y-11825394D01*
G01X11322598Y-11820077D01*
G01X11320846Y-11799828D01*
G01X11540710Y-11799828D01*
G01X11541664Y-11822898D01*
G01X11546403Y-11845496D01*
G01X11554796Y-11867006D01*
G01X11566616Y-11886842D01*
G01X11581538Y-11904461D01*
G01X11581538Y-11904461D01*
G01X11599158Y-11919384D01*
G01X11618993Y-11931204D01*
G01X11640504Y-11939597D01*
G01X11663102Y-11944335D01*
G01X11686172Y-11945289D01*
G01X11709085Y-11942433D01*
G01X11731215Y-11935845D01*
G01X11751958Y-11925704D01*
G01X11770750Y-11912287D01*
G01X11787077Y-11895960D01*
G01X11800494Y-11877169D01*
G01X11810635Y-11856425D01*
G01X11817223Y-11834295D01*
G01X11820079Y-11811382D01*
G01X11819125Y-11788312D01*
G01X11814387Y-11765714D01*
G01X11805993Y-11744204D01*
G01X11794174Y-11724368D01*
G01X11779251Y-11706749D01*
G01X11761632Y-11691826D01*
G01X11741796Y-11680006D01*
G01X11720286Y-11671613D01*
G01X11697687Y-11666875D01*
G01X11674617Y-11665921D01*
G01X11651705Y-11668777D01*
G01X11629575Y-11675365D01*
G01X11608831Y-11685506D01*
G01X11590040Y-11698923D01*
G01X11573713Y-11715250D01*
G01X11560296Y-11734041D01*
G01X11550155Y-11754785D01*
G01X11543566Y-11776915D01*
G01X11540710Y-11799828D01*
G01X11320846Y-11799828D01*
G01X11315939Y-11743132D01*
G01X11313730Y-11731036D01*
G01X11309290Y-11719570D01*
G01X11302778Y-11709140D01*
G01X11294426Y-11700116D01*
G01X11289789Y-11687096D01*
G01X11282513Y-11675343D01*
G01X11272925Y-11665388D01*
G01X11261455Y-11657674D01*
G01X11248618Y-11652550D01*
G01X11159380Y-11627499D01*
G01X11113483Y-11583119D01*
G01X11100320Y-11528137D01*
G01X11112110Y-11453572D01*
G01X11137925Y-11383795D01*
G01X11828265Y-11383795D01*
G01X11831850Y-11407304D01*
G01X11839367Y-11429866D01*
G01X11850600Y-11450828D01*
G01X11865222Y-11469582D01*
G01X11882812Y-11485587D01*
G01X11902860Y-11498378D01*
G01X11924786Y-11507587D01*
G01X11947956Y-11512946D01*
G01X11971699Y-11514301D01*
G01X11973053Y-11538044D01*
G01X11978413Y-11561213D01*
G01X11987622Y-11583139D01*
G01X12000413Y-11603187D01*
G01X12016418Y-11620777D01*
G01X12035172Y-11635400D01*
G01X12056134Y-11646633D01*
G01X12078695Y-11654150D01*
G01X12102205Y-11657735D01*
G01X12125982Y-11657283D01*
G01X12149339Y-11652808D01*
G01X12171599Y-11644439D01*
G01X12192118Y-11632418D01*
G01X12210303Y-11617093D01*
G01X12210303Y-11617093D01*
G01X12225628Y-11598908D01*
G01X12237649Y-11578388D01*
G01X12246018Y-11556128D01*
G01X12250493Y-11532772D01*
G01X12250945Y-11508995D01*
G01X12247361Y-11485485D01*
G01X12239843Y-11462923D01*
G01X12228610Y-11441962D01*
G01X12213988Y-11423208D01*
G01X12196398Y-11407203D01*
G01X12176350Y-11394411D01*
G01X12154424Y-11385202D01*
G01X12131254Y-11379843D01*
G01X12107511Y-11378488D01*
G01X12107225Y-11373462D01*
G01X15029796Y-11373462D01*
G01X15032146Y-11393905D01*
G01X15037948Y-11413649D01*
G01X15047030Y-11432115D01*
G01X15059128Y-11448761D01*
G01X15073887Y-11463101D01*
G01X15090875Y-11474715D01*
G01X15109595Y-11483262D01*
G01X15129497Y-11488493D01*
G01X15150000Y-11490254D01*
G01X15170503Y-11488493D01*
G01X15190405Y-11483262D01*
G01X15209125Y-11474715D01*
G01X15226113Y-11463101D01*
G01X15240872Y-11448761D01*
G01X15252970Y-11432115D01*
G01X15262052Y-11413649D01*
G01X15267854Y-11393905D01*
G01X15270204Y-11373462D01*
G01X15269034Y-11352917D01*
G01X15264379Y-11332872D01*
G01X15256374Y-11313914D01*
G01X15245254Y-11296599D01*
G01X15245254Y-10949455D01*
G01X16009456Y-10185254D01*
G01X16060000Y-10185254D01*
G01X16078583Y-10183423D01*
G01X16096452Y-10178003D01*
G01X16112920Y-10169201D01*
G01X16127355Y-10157355D01*
G01X16155452Y-10129257D01*
G01X16175559Y-10124876D01*
G01X16194624Y-10117132D01*
G01X16212090Y-10106250D01*
G01X16227445Y-10092549D01*
G01X16240239Y-10076431D01*
G01X16250098Y-10058368D01*
G01X16256732Y-10038889D01*
G01X16259949Y-10018563D01*
G01X16259652Y-9997987D01*
G01X16255852Y-9977763D01*
G01X16248660Y-9958482D01*
G01X16238285Y-9940710D01*
G01X16225032Y-9924968D01*
G01X16209290Y-9911715D01*
G01X16191518Y-9901340D01*
G01X16172237Y-9894148D01*
G01X16152013Y-9890348D01*
G01X16131437Y-9890051D01*
G01X16111111Y-9893268D01*
G01X16091632Y-9899902D01*
G01X16073569Y-9909761D01*
G01X16057451Y-9922555D01*
G01X16043750Y-9937910D01*
G01X16032869Y-9955376D01*
G01X16025124Y-9974441D01*
G01X16020743Y-9994548D01*
G01X16020545Y-9994746D01*
G01X15970000Y-9994746D01*
G01X15951417Y-9996576D01*
G01X15933548Y-10001997D01*
G01X15917080Y-10010799D01*
G01X15902645Y-10022645D01*
G01X15082645Y-10842645D01*
G01X15082645Y-10842645D01*
G01X15070799Y-10857080D01*
G01X15061997Y-10873548D01*
G01X15056576Y-10891417D01*
G01X15054746Y-10910000D01*
G01X15054746Y-11296599D01*
G01X15043626Y-11313914D01*
G01X15035621Y-11332872D01*
G01X15030966Y-11352917D01*
G01X15029796Y-11373462D01*
G01X12107225Y-11373462D01*
G01X12106157Y-11354746D01*
G01X12100797Y-11331576D01*
G01X12091589Y-11309650D01*
G01X12078797Y-11289602D01*
G01X12062792Y-11272012D01*
G01X12044038Y-11257389D01*
G01X12023077Y-11246157D01*
G01X12000515Y-11238639D01*
G01X11977005Y-11235055D01*
G01X11953228Y-11235506D01*
G01X11929871Y-11239982D01*
G01X11907611Y-11248351D01*
G01X11887092Y-11260372D01*
G01X11868907Y-11275696D01*
G01X11853582Y-11293882D01*
G01X11841561Y-11314401D01*
G01X11833192Y-11336661D01*
G01X11828717Y-11360018D01*
G01X11828265Y-11383795D01*
G01X11137925Y-11383795D01*
G01X11139882Y-11378505D01*
G01X11183406Y-11281975D01*
G01X11228186Y-11183423D01*
G01X11228795Y-11182040D01*
G01X11271260Y-11082399D01*
G01X11272449Y-11079402D01*
G01X11309699Y-10978130D01*
G01X11342661Y-10888401D01*
G01X11380572Y-10829864D01*
G01X11447127Y-10779811D01*
G01X11541858Y-10744071D01*
G01X11631220Y-10740635D01*
G01X11717036Y-10765285D01*
G01X11798981Y-10816547D01*
G01X11874151Y-10892723D01*
G01X11884788Y-10908699D01*
G01X11894568Y-10920227D01*
G01X11906738Y-10929195D01*
G01X11920646Y-10935122D01*
G01X11935544Y-10937690D01*
G01X11950633Y-10936760D01*
G01X11965103Y-10932383D01*
G01X11978178Y-10924794D01*
G01X11989155Y-10914400D01*
G01X11997446Y-10901759D01*
G01X12002606Y-10887549D01*
G01X12004357Y-10872533D01*
G01X12004357Y-10850000D01*
G01X14309746Y-10850000D01*
G01X14311507Y-10870503D01*
G01X14316738Y-10890405D01*
G01X14325285Y-10909125D01*
G01X14336899Y-10926112D01*
G01X14351239Y-10940872D01*
G01X14367885Y-10952970D01*
G01X14386351Y-10962052D01*
G01X14406095Y-10967854D01*
G01X14426538Y-10970204D01*
G01X14447083Y-10969034D01*
G01X14467128Y-10964379D01*
G01X14486086Y-10956374D01*
G01X14503401Y-10945254D01*
G01X14807782Y-10945254D01*
G01X14826365Y-10943424D01*
G01X14844234Y-10938003D01*
G01X14860702Y-10929201D01*
G01X14875137Y-10917355D01*
G01X15597355Y-10195137D01*
G01X15609201Y-10180702D01*
G01X15618003Y-10164234D01*
G01X15623424Y-10146365D01*
G01X15625254Y-10127782D01*
G01X15625254Y-9935125D01*
G01X15645280Y-9939349D01*
G01X15665732Y-9940117D01*
G01X15686019Y-9937405D01*
G01X15705552Y-9931292D01*
G01X15723765Y-9921956D01*
G01X15740131Y-9909666D01*
G01X15754176Y-9894779D01*
G01X15765493Y-9877725D01*
G01X15773754Y-9858999D01*
G01X15778720Y-9839144D01*
G01X15780247Y-9818734D01*
G01X15778291Y-9798361D01*
G01X15772908Y-9778615D01*
G01X15764255Y-9760067D01*
G01X15752581Y-9743256D01*
G01X15738226Y-9728667D01*
G01X15731020Y-9717605D01*
G01X15722355Y-9707645D01*
G01X15461254Y-9446545D01*
G01X15461254Y-9337401D01*
G01X15472646Y-9319566D01*
G01X15480735Y-9300011D01*
G01X15485271Y-9279340D01*
G01X15486114Y-9258194D01*
G01X15483236Y-9237228D01*
G01X15476727Y-9217091D01*
G01X15466790Y-9198407D01*
G01X15453731Y-9181755D01*
G01X15437955Y-9167649D01*
G01X15419950Y-9156527D01*
G01X15400275Y-9148734D01*
G01X15379538Y-9144511D01*
G01X15358382Y-9143988D01*
G01X15337462Y-9147182D01*
G01X15317425Y-9153993D01*
G01X15298893Y-9164212D01*
G01X15282440Y-9177521D01*
G01X15268574Y-9193508D01*
G01X15257725Y-9211678D01*
G01X15250230Y-9231469D01*
G01X15246320Y-9252267D01*
G01X15246116Y-9273429D01*
G01X15234885Y-9256123D01*
G01X15220861Y-9240992D01*
G01X15204458Y-9228481D01*
G01X15186157Y-9218957D01*
G01X15166498Y-9212702D01*
G01X15146058Y-9209899D01*
G01X15125441Y-9210631D01*
G01X15105252Y-9214876D01*
G01X15086085Y-9222509D01*
G01X15068506Y-9233307D01*
G01X15053031Y-9246950D01*
G01X15040115Y-9263037D01*
G01X15030139Y-9281096D01*
G01X15023397Y-9300593D01*
G01X15020087Y-9320957D01*
G01X15020306Y-9341586D01*
G01X15024047Y-9361874D01*
G01X15031202Y-9381225D01*
G01X15011090Y-9386215D01*
G01X14992134Y-9394584D01*
G01X14974895Y-9406084D01*
G01X14959887Y-9420372D01*
G01X14947555Y-9437024D01*
G01X14938264Y-9455547D01*
G01X14932292Y-9475389D01*
G01X14929814Y-9495962D01*
G01X14930905Y-9516656D01*
G01X14935533Y-9536854D01*
G01X14943559Y-9555958D01*
G01X14954746Y-9573401D01*
G01X14954746Y-9690000D01*
G01X14956577Y-9708583D01*
G01X14961997Y-9726452D01*
G01X14970799Y-9742920D01*
G01X14982645Y-9757355D01*
G01X15350743Y-10125453D01*
G01X15350743Y-10125453D01*
G01X15354647Y-10143979D01*
G01X15361409Y-10161663D01*
G01X14768326Y-10754746D01*
G01X14503401Y-10754746D01*
G01X14486086Y-10743626D01*
G01X14467128Y-10735621D01*
G01X14447083Y-10730966D01*
G01X14426538Y-10729796D01*
G01X14406095Y-10732146D01*
G01X14386351Y-10737948D01*
G01X14367885Y-10747030D01*
G01X14351239Y-10759128D01*
G01X14336899Y-10773887D01*
G01X14325285Y-10790875D01*
G01X14316738Y-10809594D01*
G01X14311507Y-10829497D01*
G01X14309746Y-10850000D01*
G01X12004357Y-10850000D01*
G01X12004357Y-9120000D01*
G01X12303206Y-9120000D01*
G01X12303206Y-9300000D01*
G01X12304664Y-9311076D01*
G01X12308939Y-9321397D01*
G01X12315740Y-9330260D01*
G01X12324603Y-9337061D01*
G01X12334924Y-9341336D01*
G01X12346000Y-9342794D01*
G01X12526000Y-9342794D01*
G01X12536948Y-9341370D01*
G01X12547168Y-9337192D01*
G01X12555978Y-9330539D01*
G01X12574323Y-9348240D01*
G01X12594982Y-9363177D01*
G01X12617541Y-9375049D01*
G01X12641549Y-9383620D01*
G01X12666527Y-9388719D01*
G01X12691974Y-9390243D01*
G01X12717381Y-9388162D01*
G01X12742241Y-9382518D01*
G01X12766056Y-9373423D01*
G01X12788350Y-9361059D01*
G01X12964645Y-9537355D01*
G01X12979080Y-9549201D01*
G01X12995548Y-9558003D01*
G01X13013417Y-9563424D01*
G01X13032000Y-9565254D01*
G01X13956599Y-9565254D01*
G01X13973915Y-9576374D01*
G01X13992872Y-9584379D01*
G01X14012917Y-9589034D01*
G01X14033462Y-9590204D01*
G01X14053906Y-9587854D01*
G01X14073649Y-9582052D01*
G01X14092115Y-9572970D01*
G01X14108761Y-9560872D01*
G01X14123101Y-9546113D01*
G01X14134715Y-9529125D01*
G01X14143263Y-9510406D01*
G01X14148493Y-9490503D01*
G01X14150254Y-9470000D01*
G01X14148493Y-9449497D01*
G01X14143263Y-9429595D01*
G01X14134715Y-9410875D01*
G01X14123101Y-9393888D01*
G01X14108761Y-9379128D01*
G01X14092115Y-9367030D01*
G01X14073649Y-9357948D01*
G01X14053906Y-9352146D01*
G01X14033462Y-9349796D01*
G01X14012917Y-9350966D01*
G01X13992872Y-9355621D01*
G01X13973915Y-9363626D01*
G01X13956599Y-9374746D01*
G01X13728218Y-9374746D01*
G01X13752760Y-9366624D01*
G01X13775888Y-9355074D01*
G01X13797126Y-9340335D01*
G01X13816038Y-9322709D01*
G01X13832233Y-9302559D01*
G01X13845380Y-9280300D01*
G01X13855207Y-9256389D01*
G01X13861512Y-9231318D01*
G01X13864167Y-9205603D01*
G01X13863115Y-9179773D01*
G01X13858380Y-9154359D01*
G01X13850058Y-9129883D01*
G01X13838320Y-9106850D01*
G01X13823408Y-9085733D01*
G01X13805628Y-9066966D01*
G01X13785347Y-9050935D01*
G01X13762981Y-9037971D01*
G01X13738991Y-9028339D01*
G01X13713869Y-9022238D01*
G01X13688134Y-9019793D01*
G01X13662313Y-9021055D01*
G01X13636938Y-9025998D01*
G01X13612531Y-9034520D01*
G01X13589595Y-9046445D01*
G01X13568600Y-9061529D01*
G01X13549978Y-9079461D01*
G01X13541168Y-9072808D01*
G01X13530948Y-9068630D01*
G01X13520000Y-9067206D01*
G01X13340000Y-9067206D01*
G01X13328924Y-9068664D01*
G01X13318603Y-9072939D01*
G01X13309740Y-9079740D01*
G01X13302939Y-9088603D01*
G01X13298664Y-9098924D01*
G01X13297206Y-9110000D01*
G01X13297206Y-9290000D01*
G01X13298664Y-9301076D01*
G01X13302939Y-9311397D01*
G01X13309740Y-9320260D01*
G01X13318603Y-9327061D01*
G01X13328924Y-9331336D01*
G01X13340000Y-9332794D01*
G01X13520000Y-9332794D01*
G01X13530948Y-9331370D01*
G01X13541168Y-9327192D01*
G01X13549978Y-9320539D01*
G01X13569165Y-9338940D01*
G01X13590850Y-9354320D01*
G01X13614561Y-9366342D01*
G01X13639783Y-9374746D01*
G01X13071456Y-9374746D01*
G01X12865474Y-9168765D01*
G01X12857660Y-9143806D01*
G01X12846316Y-9120240D01*
G01X12831681Y-9098565D01*
G01X12814064Y-9079235D01*
G01X12793835Y-9062658D01*
G01X12771420Y-9049183D01*
G01X12747291Y-9039093D01*
G01X12721956Y-9032602D01*
G01X12695949Y-9029844D01*
G01X12669816Y-9030880D01*
G01X12644108Y-9035686D01*
G01X12619366Y-9044162D01*
G01X12596111Y-9056129D01*
G01X12574832Y-9071336D01*
G01X12555978Y-9089461D01*
G01X12555978Y-9089461D01*
G01X12547168Y-9082808D01*
G01X12536948Y-9078630D01*
G01X12526000Y-9077206D01*
G01X12346000Y-9077206D01*
G01X12334924Y-9078664D01*
G01X12324603Y-9082939D01*
G01X12315740Y-9089740D01*
G01X12308939Y-9098603D01*
G01X12304664Y-9108924D01*
G01X12303206Y-9120000D01*
G01X12004357Y-9120000D01*
G01X12004357Y-8120000D01*
G01X12313206Y-8120000D01*
G01X12313206Y-8300000D01*
G01X12314664Y-8311076D01*
G01X12318939Y-8321397D01*
G01X12325740Y-8330260D01*
G01X12334603Y-8337061D01*
G01X12344924Y-8341336D01*
G01X12356000Y-8342794D01*
G01X12536000Y-8342794D01*
G01X12546948Y-8341370D01*
G01X12557168Y-8337192D01*
G01X12565978Y-8330539D01*
G01X12584347Y-8348260D01*
G01X12605033Y-8363209D01*
G01X12627624Y-8375086D01*
G01X12651666Y-8383653D01*
G01X12676677Y-8388739D01*
G01X12702156Y-8390241D01*
G01X12727591Y-8388130D01*
G01X12752473Y-8382447D01*
G01X12776304Y-8373307D01*
G01X12798604Y-8360893D01*
G01X12818927Y-8345454D01*
G01X12836867Y-8327299D01*
G01X12852062Y-8306792D01*
G01X12864208Y-8284345D01*
G01X12873062Y-8260407D01*
G01X12878447Y-8235459D01*
G01X12880254Y-8210000D01*
G01X12878447Y-8184541D01*
G01X12873062Y-8159593D01*
G01X12864208Y-8135655D01*
G01X12852062Y-8113208D01*
G01X12849685Y-8110000D01*
G01X13297206Y-8110000D01*
G01X13297206Y-8290000D01*
G01X13298664Y-8301076D01*
G01X13302939Y-8311397D01*
G01X13309740Y-8320260D01*
G01X13318603Y-8327061D01*
G01X13328924Y-8331336D01*
G01X13340000Y-8332794D01*
G01X13520000Y-8332794D01*
G01X13530948Y-8331370D01*
G01X13541168Y-8327192D01*
G01X13549978Y-8320539D01*
G01X13568046Y-8338008D01*
G01X13588367Y-8352793D01*
G01X13610548Y-8364609D01*
G01X13634156Y-8373225D01*
G01X13658733Y-8378474D01*
G01X13683801Y-8380254D01*
G01X13708873Y-8378530D01*
G01X13733462Y-8373335D01*
G01X13757089Y-8364771D01*
G01X13779295Y-8353004D01*
G01X13934746Y-8508456D01*
G01X13934746Y-9066599D01*
G01X13934746Y-9066599D01*
G01X13923626Y-9083914D01*
G01X13915621Y-9102872D01*
G01X13910966Y-9122917D01*
G01X13909796Y-9143462D01*
G01X13912146Y-9163906D01*
G01X13917948Y-9183649D01*
G01X13927030Y-9202115D01*
G01X13939128Y-9218761D01*
G01X13953888Y-9233101D01*
G01X13970875Y-9244715D01*
G01X13989595Y-9253262D01*
G01X14009497Y-9258493D01*
G01X14030000Y-9260254D01*
G01X14050503Y-9258493D01*
G01X14070406Y-9253262D01*
G01X14089125Y-9244715D01*
G01X14106113Y-9233101D01*
G01X14120872Y-9218761D01*
G01X14132970Y-9202115D01*
G01X14142052Y-9183649D01*
G01X14147854Y-9163906D01*
G01X14150204Y-9143462D01*
G01X14149034Y-9122917D01*
G01X14144379Y-9102872D01*
G01X14136374Y-9083914D01*
G01X14125254Y-9066599D01*
G01X14125254Y-8469000D01*
G01X14123424Y-8450417D01*
G01X14118003Y-8432548D01*
G01X14109201Y-8416080D01*
G01X14097355Y-8401645D01*
G01X13860851Y-8165142D01*
G01X13853800Y-8139507D01*
G01X13843054Y-8115188D01*
G01X13828849Y-8092714D01*
G01X13811491Y-8072574D01*
G01X13791360Y-8055206D01*
G01X13768894Y-8040989D01*
G01X13744580Y-8030231D01*
G01X13718948Y-8023167D01*
G01X13692556Y-8019949D01*
G01X13665978Y-8020649D01*
G01X13639792Y-8025251D01*
G01X13614568Y-8033655D01*
G01X13590854Y-8045678D01*
G01X13569167Y-8061058D01*
G01X13549978Y-8079461D01*
G01X13541168Y-8072808D01*
G01X13530948Y-8068630D01*
G01X13520000Y-8067206D01*
G01X13340000Y-8067206D01*
G01X13328924Y-8068664D01*
G01X13318603Y-8072939D01*
G01X13309740Y-8079740D01*
G01X13302939Y-8088603D01*
G01X13298664Y-8098924D01*
G01X13297206Y-8110000D01*
G01X12849685Y-8110000D01*
G01X12836867Y-8092701D01*
G01X12818927Y-8074546D01*
G01X12798604Y-8059107D01*
G01X12776304Y-8046693D01*
G01X12752473Y-8037553D01*
G01X12727591Y-8031870D01*
G01X12702156Y-8029759D01*
G01X12676677Y-8031261D01*
G01X12651666Y-8036347D01*
G01X12627624Y-8044915D01*
G01X12605033Y-8056792D01*
G01X12584347Y-8071740D01*
G01X12565978Y-8089461D01*
G01X12557168Y-8082808D01*
G01X12546948Y-8078630D01*
G01X12536000Y-8077206D01*
G01X12536000Y-8077206D01*
G01X12356000Y-8077206D01*
G01X12344924Y-8078664D01*
G01X12334603Y-8082939D01*
G01X12325740Y-8089740D01*
G01X12318939Y-8098603D01*
G01X12314664Y-8108924D01*
G01X12313206Y-8120000D01*
G01X12004357Y-8120000D01*
G01X12004357Y-6458590D01*
G37*
G54D10*
G01X12004357Y-6458590D02*
G01X12004357Y-6315123D01*
G01X12234272Y-6315123D01*
G03X12250749Y-6317239I16483J63138D01*
G01X16206984Y-6317647D01*
G03X16224964Y-6315123I7J65254D01*
G01X16418636Y-6315123D01*
G01X16418636Y-11029681D01*
G03X16547680Y-11043429I65254J0D01*
G01X16568231Y-10948069D01*
G01X16603466Y-10870975D01*
G01X16667470Y-10803659D01*
G01X16739002Y-10757913D01*
G01X16819120Y-10723587D01*
G01X16896619Y-10709661D01*
G01X16965617Y-10719890D01*
G01X17027962Y-10759010D01*
G01X17079426Y-10832745D01*
G01X17110284Y-10926783D01*
G01X17136204Y-11035186D01*
G03X17138437Y-11042540I62230J14879D01*
G01X17178513Y-11150688D01*
G03X17183269Y-11160741I59997J22233D01*
G01X17245669Y-11267508D01*
G01X17306775Y-11377881D01*
G01X17338316Y-11479463D01*
G01X17342971Y-11554046D01*
G01X17322727Y-11605704D01*
G01X17274162Y-11630182D01*
G01X17172009Y-11635374D01*
G03X17116953Y-11729721I3312J-65170D01*
G01X17117108Y-11730031D01*
G03X17130242Y-11747886I58368J29177D01*
G03X17128918Y-11758858I63889J-13275D01*
G01X17124652Y-11879664D01*
G01X17093595Y-12002686D01*
G01X17056392Y-12107578D01*
G01X17016200Y-12206020D01*
G01X16965853Y-12296299D01*
G01X16898698Y-12386522D01*
G01X16820149Y-12478288D01*
G01X16739359Y-12555638D01*
G01X16667695Y-12611115D01*
G01X16591556Y-12665507D01*
G01X16499626Y-12729143D01*
G01X16406584Y-12790775D01*
G01X16312298Y-12850074D01*
G01X16218178Y-12905798D01*
G01X16144964Y-12941412D01*
G01X16032704Y-12988820D01*
G01X15896877Y-13042940D01*
G03X15872526Y-13059909I24154J-60619D01*
G03X15820222Y-13082417I9778J-94751D01*
G03X15747466Y-13110213I-5354J-95103D01*
G03X15683755Y-13135680I1129J-95247D01*
G03X15615227Y-13161015I-3760J-95180D01*
G03X15546502Y-13189001I-1275J-95245D01*
G03X15481190Y-13211960I-3226J-95199D01*
G03X15413605Y-13234899I-5407J-95100D01*
G03X15342172Y-13260076I-6664J-95021D01*
G03X15270931Y-13290576I-1373J-95244D01*
G03X15211128Y-13313639I2375J-95224D01*
G03X15139694Y-13338816I-6664J-95021D01*
G03X15073521Y-13364244I-1373J-95244D01*
G03X15009182Y-13386845I-2692J-95216D01*
G03X14987857Y-13393780I9217J-64600D01*
G01X14880827Y-13450468D01*
G01X14879086Y-13451425D01*
G01X14773846Y-13511420D01*
G01X14772873Y-13511986D01*
G01X14668684Y-13573837D01*
G01X14668449Y-13573977D01*
G01X14564426Y-13636333D01*
G03X14557483Y-13641145I32897J-54879D01*
G01X14475816Y-13706130D01*
G03X14471689Y-13709712I39840J-50067D01*
G01X14385112Y-13791599D01*
G01X14303244Y-13856909D01*
G01X14239959Y-13880358D01*
G01X14185992Y-13866083D01*
G01X14116077Y-13815229D01*
G01X14041780Y-13744657D01*
G01X14040586Y-13743552D01*
G01X13972355Y-13681965D01*
G03X13966438Y-13677228I-42872J-47497D01*
G01X13864442Y-13605067D01*
G03X13860924Y-13602747I-36955J-52233D01*
G01X13754351Y-13537425D01*
G03X13750633Y-13535314I-33437J-54552D01*
G01X13639928Y-13477251D01*
G03X13636001Y-13475359I-29719J-56663D01*
G01X13521630Y-13424981D01*
G03X13518369Y-13423651I-25792J-58555D01*
G01X13449473Y-13397729D01*
G01X13447927Y-13397170D01*
G01X13381443Y-13374087D01*
G03X13316781Y-13346458I-67115J-67593D01*
G03X13251051Y-13318501I-67427J-67282D01*
G03X13182692Y-13290551I-67411J-67299D01*
G03X13120249Y-13265174I-64764J-69849D01*
G03X13052311Y-13237208I-67424J-67286D01*
G03X12988482Y-13211811I-64761J-69852D01*
G03X12922014Y-13183871I-67400J-67309D01*
G03X12854642Y-13155926I-67400J-67309D01*
G03X12787276Y-13127986I-67395J-67314D01*
G03X12717060Y-13100088I-67395J-67314D01*
G03X12655386Y-13074698I-64804J-69812D01*
G03X12588382Y-13046707I-67447J-67262D01*
G03X12524766Y-13021313I-64760J-69853D01*
G03X12455624Y-12996007I-64766J-69847D01*
G01X12302516Y-12926350D01*
G01X12157456Y-12859458D01*
G01X12037130Y-12803072D01*
G01X11950966Y-12761641D01*
G01X11910189Y-12740581D01*
G01X11811555Y-12677441D01*
G01X11718332Y-12607689D01*
G01X11633853Y-12530254D01*
G01X11558845Y-12441876D01*
G01X11487898Y-12340107D01*
G01X11428993Y-12233112D01*
G01X11391798Y-12132408D01*
G01X11346513Y-11987744D01*
G01X11323031Y-11887756D01*
G01X11322836Y-11825394D01*
G03X11322598Y-11820077I-63984J-200D01*
G01X11315939Y-11743132D01*
G03X11294426Y-11700116I-65011J-5626D01*
G03X11248618Y-11652550I-63445J-15259D01*
G01X11159380Y-11627499D01*
G01X11113483Y-11583119D01*
G01X11100320Y-11528137D01*
G01X11112110Y-11453572D01*
G01X11139882Y-11378505D01*
G01X11183406Y-11281975D01*
G01X11228186Y-11183423D01*
G01X11228795Y-11182040D01*
G01X11271260Y-11082399D01*
G03X11272449Y-11079402I-58861J25086D01*
G01X11309699Y-10978130D01*
G01X11342661Y-10888401D01*
G01X11380572Y-10829864D01*
G01X11447127Y-10779811D01*
G01X11541858Y-10744071D01*
G01X11631220Y-10740635D01*
G01X11717036Y-10765285D01*
G01X11798981Y-10816547D01*
G01X11874151Y-10892723D01*
G01X11884788Y-10908699D01*
G03X12004357Y-10872533I54315J36166D01*
G01X12004357Y-6458590D01*
G01X11581538Y-11904461D02*
G03X11779251Y-11706749I98856J98856D01*
G03X11581538Y-11904461I-98856J-98856D01*
G01X12210303Y-11617093D02*
G03X12107511Y-11378488I-98856J98856D01*
G03X11868907Y-11275696I-139748J3936D01*
G03X11971699Y-11514301I98856J-98856D01*
G03X12210303Y-11617093I139748J-3936D01*
G01X12555978Y-9089461D02*
G03X12526000Y-9077206I-29978J-30539D01*
G01X12346000Y-9077206D01*
G03X12303206Y-9120000I0J-42794D01*
G01X12303206Y-9300000D01*
G03X12346000Y-9342794I42794J0D01*
G01X12526000Y-9342794D01*
G03X12555978Y-9330539I0J42794D01*
G03X12788350Y-9361059I134022J120539D01*
G01X12964645Y-9537355D01*
G03X13032000Y-9565254I67355J67355D01*
G01X13956599Y-9565254D01*
G03X14150254Y-9470000I73401J95254D01*
G03X13956599Y-9374746I-120254J0D01*
G01X13728218Y-9374746D01*
G03X13838320Y-9106850I-44217J174746D01*
G03X13549978Y-9079461I-154320J-93150D01*
G03X13520000Y-9067206I-29978J-30539D01*
G01X13340000Y-9067206D01*
G03X13297206Y-9110000I0J-42794D01*
G01X13297206Y-9290000D01*
G03X13340000Y-9332794I42794J0D01*
G01X13520000Y-9332794D01*
G03X13549978Y-9320539I0J42794D01*
G03X13639783Y-9374746I134022J120539D01*
G01X13071456Y-9374746D01*
G01X12865474Y-9168765D01*
G03X12555978Y-9089461I-175474J-41235D01*
G01X12536000Y-8077206D02*
G01X12356000Y-8077206D01*
G03X12313206Y-8120000I0J-42794D01*
G01X12313206Y-8300000D01*
G03X12356000Y-8342794I42794J0D01*
G01X12536000Y-8342794D01*
G03X12565978Y-8330539I0J42794D01*
G03X12880254Y-8210000I134022J120539D01*
G03X12565978Y-8089461I-180254J0D01*
G03X12536000Y-8077206I-29978J-30539D01*
G01X13934746Y-9066599D02*
G03X14030000Y-9260254I95254J-73401D01*
G03X14125254Y-9066599I0J120254D01*
G01X14125254Y-8469000D01*
G03X14097355Y-8401645I-95254J0D01*
G01X13860851Y-8165142D01*
G03X13549978Y-8079461I-176851J-34858D01*
G03X13520000Y-8067206I-29978J-30539D01*
G01X13340000Y-8067206D01*
G03X13297206Y-8110000I0J-42794D01*
G01X13297206Y-8290000D01*
G03X13340000Y-8332794I42794J0D01*
G01X13520000Y-8332794D01*
G03X13549978Y-8320539I0J42794D01*
G03X13779295Y-8353004I134022J120539D01*
G01X13934746Y-8508456D01*
G01X13934746Y-9066599D01*
G01X15350743Y-10125453D02*
G03X15361409Y-10161663I119257J15452D01*
G01X14768326Y-10754746D01*
G01X14503401Y-10754746D01*
G03X14309746Y-10850000I-73401J-95254D01*
G03X14503401Y-10945254I120254J0D01*
G01X14807782Y-10945254D01*
G03X14875137Y-10917355I0J95254D01*
G01X15597355Y-10195137D01*
G03X15625254Y-10127782I-67355J67355D01*
G01X15625254Y-9935125D01*
G03X15765493Y-9877725I34746J115125D01*
G03X15738226Y-9728667I-105493J57725D01*
G03X15722355Y-9707645I-83226J-46333D01*
G01X15461254Y-9446545D01*
G01X15461254Y-9337401D01*
G03X15400275Y-9148734I-95254J73401D01*
G03X15246116Y-9273429I-34275J-115266D01*
G03X15086085Y-9222509I-106116J-56571D01*
G03X15031202Y-9381225I53915J-107490D01*
G03X14954746Y-9573401I18798J-118775D01*
G01X14954746Y-9690000D01*
G03X14982645Y-9757355I95254J0D01*
G01X15350743Y-10125453D01*
G01X15082645Y-10842645D02*
G03X15054746Y-10910000I67355J-67355D01*
G01X15054746Y-11296599D01*
G03X15150000Y-11490254I95254J-73401D01*
G03X15245254Y-11296599I0J120254D01*
G01X15245254Y-10949455D01*
G01X16009456Y-10185254D01*
G01X16060000Y-10185254D01*
G03X16127355Y-10157355I0J95254D01*
G01X16155452Y-10129257D01*
G03X16225032Y-9924968I-15452J119257D01*
G03X16020743Y-9994548I-85032J-85032D01*
G01X16020545Y-9994746D01*
G01X15970000Y-9994746D01*
G03X15902645Y-10022645I0J-95254D01*
G01X15082645Y-10842645D01*
G54D11*
G01X12346254Y-9210000D02*
G01X12343206Y-9210000D01*
G01X12436000Y-9120254D02*
G01X12436000Y-9117206D01*
G01X12436000Y-9299746D02*
G01X12436000Y-9302794D01*
G01X12356254Y-8210000D02*
G01X12353206Y-8210000D01*
G01X12446000Y-8120254D02*
G01X12446000Y-8117206D01*
G01X12446000Y-8299746D02*
G01X12446000Y-8302794D01*
G01X13340254Y-8200000D02*
G01X13337206Y-8200000D01*
G01X13430000Y-8110254D02*
G01X13430000Y-8107206D01*
G01X13430000Y-8289746D02*
G01X13430000Y-8292794D01*
G01X13340254Y-9200000D02*
G01X13337206Y-9200000D01*
G01X13430000Y-9110254D02*
G01X13430000Y-9107206D01*
G01X13430000Y-9289746D02*
G01X13430000Y-9292794D01*
G04 Copper End*

G04 Pad Start*
G54D12*
G01X12446000Y-8210000D03*
G54D13*
G01X12700000Y-8210000D03*
G54D12*
G01X13430000Y-8200000D03*
G54D13*
G01X13684000Y-8200000D03*
G54D12*
G01X12436000Y-9210000D03*
G54D13*
G01X12690000Y-9210000D03*
G54D12*
G01X13430000Y-9200000D03*
G54D13*
G01X13684000Y-9200000D03*
G54D14*
G01X11680395Y-11805605D03*
G01X11967763Y-11374553D03*
G01X12111447Y-11518237D03*
G04 Pad End*

G04 Via Start*
G54D15*
G01X15727000Y-9673000D03*
G01X14030000Y-9140000D03*
G01X14030000Y-9470000D03*
G01X15150000Y-11370000D03*
G01X16140000Y-10010000D03*
G01X15140000Y-9330000D03*
G01X14430000Y-10850000D03*
G01X15660000Y-9820000D03*
G01X15366000Y-9264000D03*
G01X15050000Y-9500000D03*
G01X15470000Y-10110000D03*
G04 Via End*

G04 Track Start*
G54D17*
G01X14030000Y-9140000D02*
G01X14030000Y-8469000D01*
G01X13743000Y-8182000D01*
G01X14030000Y-9470000D02*
G01X13032000Y-9470000D01*
G01X12761000Y-9199000D01*
G01X15150000Y-10910000D02*
G01X15150000Y-11370000D01*
G01X16060000Y-10090000D02*
G01X16140000Y-10010000D01*
G01X15970000Y-10090000D02*
G01X16060000Y-10090000D01*
G01X15970000Y-10090000D02*
G01X15150000Y-10910000D01*
G01X15530000Y-9720000D02*
G01X15140000Y-9330000D01*
G01X15530000Y-10127782D02*
G01X15530000Y-9720000D01*
G01X14807782Y-10850000D02*
G01X15530000Y-10127782D01*
G01X14430000Y-10850000D02*
G01X14807782Y-10850000D01*
G01X15366000Y-9486000D02*
G01X15366000Y-9264000D01*
G01X15655000Y-9775000D02*
G01X15366000Y-9486000D01*
G01X15660000Y-9820000D02*
G01X15655000Y-9815000D01*
G01X15655000Y-9775000D01*
G01X15050000Y-9690000D02*
G01X15470000Y-10110000D01*
G01X15050000Y-9500000D02*
G01X15050000Y-9690000D01*
G04 Track End*

M02*

