G04 Layer: TopAssemblyLayer*
G04 EasyEDA Pro v2.2.43.4, 2025-11-10 11:02:42*
G04 Gerber Generator version 0.3*
G04 Scale: 100 percent, Rotated: No, Reflected: No*
G04 Dimensions in millimeters*
G04 Leading zeros omitted, absolute positions, 4 integers and 5 decimals*
G04 Generated by one-click*
%FSLAX45Y45*%
%MOMM*%
%ADD10C,0.2032*%
%ADD11C,0.15*%
%ADD12C,0.3*%
%ADD13C,0.12*%
%ADD14C,0.1*%
%ADD15C,0.8654*%
G75*


G04 Text Start*
G54D10*
G01X14043660Y-6113526D02*
G01X14068552Y-6171184D01*
G01X14093190Y-6113526D02*
G01X14068552Y-6171184D01*
G01X14182852Y-6125972D02*
G01X14174724Y-6117590D01*
G01X14166342Y-6113526D01*
G01X14153896Y-6113526D01*
G01X14145768Y-6117590D01*
G01X14137386Y-6125972D01*
G01X14133322Y-6138164D01*
G01X14133322Y-6146546D01*
G01X14137386Y-6158992D01*
G01X14145768Y-6167120D01*
G01X14153896Y-6171184D01*
G01X14166342Y-6171184D01*
G01X14174724Y-6167120D01*
G01X14182852Y-6158992D01*
G01X14222984Y-6113526D02*
G01X14222984Y-6154674D01*
G01X14227048Y-6167120D01*
G01X14235430Y-6171184D01*
G01X14247876Y-6171184D01*
G01X14256004Y-6167120D01*
G01X14268450Y-6154674D01*
G01X14268450Y-6113526D02*
G01X14268450Y-6171184D01*
G01X14321028Y-6084570D02*
G01X14321028Y-6154674D01*
G01X14325092Y-6167120D01*
G01X14333474Y-6171184D01*
G01X14341602Y-6171184D01*
G01X14308582Y-6113526D02*
G01X14337538Y-6113526D01*
G54D11*
G01X11745528Y-8168090D02*
G01X11745528Y-8241496D01*
G01X11745528Y-8241496D02*
G01X11787438Y-8241496D01*
G01X11819188Y-8168090D02*
G01X11819188Y-8241496D01*
G01X11819188Y-8168090D02*
G01X11864654Y-8168090D01*
G01X11819188Y-8202888D02*
G01X11847128Y-8202888D01*
G01X11819188Y-8241496D02*
G01X11864654Y-8241496D01*
G01X11896404Y-8168090D02*
G01X11896404Y-8241496D01*
G01X11896404Y-8168090D02*
G01X11921042Y-8168090D01*
G01X11931456Y-8171392D01*
G01X11938568Y-8178504D01*
G01X11941870Y-8185616D01*
G01X11945426Y-8196030D01*
G01X11945426Y-8213556D01*
G01X11941870Y-8223970D01*
G01X11938568Y-8231082D01*
G01X11931456Y-8237940D01*
G01X11921042Y-8241496D01*
G01X11896404Y-8241496D01*
G01X11977176Y-8265880D02*
G01X12040168Y-8265880D01*
G01X12096556Y-8168090D02*
G01X12096556Y-8241496D01*
G01X12071918Y-8168090D02*
G01X12120940Y-8168090D01*
G01X12152690Y-8168090D02*
G01X12152690Y-8241496D01*
G01X12201712Y-8168090D02*
G01X12201712Y-8241496D01*
G01X12152690Y-8202888D02*
G01X12201712Y-8202888D01*
G01X12258100Y-8168090D02*
G01X12258100Y-8241496D01*
G01X12233462Y-8168090D02*
G01X12282484Y-8168090D01*
G01X12317790Y-8199586D02*
G01X12314234Y-8202888D01*
G01X12317790Y-8206444D01*
G01X12321346Y-8202888D01*
G01X12317790Y-8199586D01*
G01X12317790Y-8223970D02*
G01X12314234Y-8227526D01*
G01X12317790Y-8231082D01*
G01X12321346Y-8227526D01*
G01X12317790Y-8223970D01*
G01X12353096Y-8168090D02*
G01X12353096Y-8241496D01*
G01X12353096Y-8241496D02*
G01X12395260Y-8241496D01*
G01X12427010Y-8168090D02*
G01X12427010Y-8241496D01*
G01X12427010Y-8168090D02*
G01X12472476Y-8168090D01*
G01X12427010Y-8202888D02*
G01X12454950Y-8202888D01*
G01X12427010Y-8241496D02*
G01X12472476Y-8241496D01*
G01X12504226Y-8168090D02*
G01X12504226Y-8241496D01*
G01X12504226Y-8168090D02*
G01X12528864Y-8168090D01*
G01X12539278Y-8171392D01*
G01X12546390Y-8178504D01*
G01X12549692Y-8185616D01*
G01X12553248Y-8196030D01*
G01X12553248Y-8213556D01*
G01X12549692Y-8223970D01*
G01X12546390Y-8231082D01*
G01X12539278Y-8237940D01*
G01X12528864Y-8241496D01*
G01X12504226Y-8241496D01*
G01X12584998Y-8265880D02*
G01X12647990Y-8265880D01*
G01X12679740Y-8168090D02*
G01X12679740Y-8241496D01*
G01X12679740Y-8168090D02*
G01X12704378Y-8168090D01*
G01X12714792Y-8171392D01*
G01X12721904Y-8178504D01*
G01X12725206Y-8185616D01*
G01X12728762Y-8196030D01*
G01X12728762Y-8213556D01*
G01X12725206Y-8223970D01*
G01X12721904Y-8231082D01*
G01X12714792Y-8237940D01*
G01X12704378Y-8241496D01*
G01X12679740Y-8241496D01*
G01X12767624Y-8168090D02*
G01X12805978Y-8168090D01*
G01X12785150Y-8196030D01*
G01X12795564Y-8196030D01*
G01X12802676Y-8199586D01*
G01X12805978Y-8202888D01*
G01X12809534Y-8213556D01*
G01X12809534Y-8220414D01*
G01X12805978Y-8231082D01*
G01X12799120Y-8237940D01*
G01X12788452Y-8241496D01*
G01X12778038Y-8241496D01*
G01X12767624Y-8237940D01*
G01X12764068Y-8234384D01*
G01X12760512Y-8227526D01*
G01X12844840Y-8223970D02*
G01X12841284Y-8227526D01*
G01X12844840Y-8231082D01*
G01X12848396Y-8227526D01*
G01X12844840Y-8223970D01*
G01X12901228Y-8168090D02*
G01X12890814Y-8171392D01*
G01X12883702Y-8182060D01*
G01X12880146Y-8199586D01*
G01X12880146Y-8210000D01*
G01X12883702Y-8227526D01*
G01X12890814Y-8237940D01*
G01X12901228Y-8241496D01*
G01X12908086Y-8241496D01*
G01X12918754Y-8237940D01*
G01X12925612Y-8227526D01*
G01X12929168Y-8210000D01*
G01X12929168Y-8199586D01*
G01X12925612Y-8182060D01*
G01X12918754Y-8171392D01*
G01X12908086Y-8168090D01*
G01X12901228Y-8168090D01*
G01X12960918Y-8192474D02*
G01X12960918Y-8241496D01*
G01X12960918Y-8206444D02*
G01X12971586Y-8196030D01*
G01X12978444Y-8192474D01*
G01X12988858Y-8192474D01*
G01X12995970Y-8196030D01*
G01X12999526Y-8206444D01*
G01X12999526Y-8241496D01*
G01X12999526Y-8206444D02*
G01X13009940Y-8196030D01*
G01X13017052Y-8192474D01*
G01X13027466Y-8192474D01*
G01X13034578Y-8196030D01*
G01X13037880Y-8206444D01*
G01X13037880Y-8241496D01*
G01X13069630Y-8192474D02*
G01X13069630Y-8241496D01*
G01X13069630Y-8206444D02*
G01X13080298Y-8196030D01*
G01X13087156Y-8192474D01*
G01X13097570Y-8192474D01*
G01X13104682Y-8196030D01*
G01X13108238Y-8206444D01*
G01X13108238Y-8241496D01*
G01X13108238Y-8206444D02*
G01X13118652Y-8196030D01*
G01X13125764Y-8192474D01*
G01X13136178Y-8192474D01*
G01X13143290Y-8196030D01*
G01X13146592Y-8206444D01*
G01X13146592Y-8241496D01*
G01X11794550Y-8168090D02*
G01X11794550Y-8241496D01*
G01X11794550Y-8241496D02*
G01X11836460Y-8241496D01*
G01X11868210Y-8168090D02*
G01X11871766Y-8171392D01*
G01X11875322Y-8168090D01*
G01X11871766Y-8164534D01*
G01X11868210Y-8168090D01*
G01X11871766Y-8192474D02*
G01X11871766Y-8241496D01*
G01X11949236Y-8192474D02*
G01X11949236Y-8248608D01*
G01X11945680Y-8259022D01*
G01X11942124Y-8262578D01*
G01X11935012Y-8265880D01*
G01X11924598Y-8265880D01*
G01X11917740Y-8262578D01*
G01X11949236Y-8202888D02*
G01X11942124Y-8196030D01*
G01X11935012Y-8192474D01*
G01X11924598Y-8192474D01*
G01X11917740Y-8196030D01*
G01X11910628Y-8202888D01*
G01X11907072Y-8213556D01*
G01X11907072Y-8220414D01*
G01X11910628Y-8231082D01*
G01X11917740Y-8237940D01*
G01X11924598Y-8241496D01*
G01X11935012Y-8241496D01*
G01X11942124Y-8237940D01*
G01X11949236Y-8231082D01*
G01X11980986Y-8168090D02*
G01X11980986Y-8241496D01*
G01X11980986Y-8206444D02*
G01X11991654Y-8196030D01*
G01X11998512Y-8192474D01*
G01X12008926Y-8192474D01*
G01X12016038Y-8196030D01*
G01X12019594Y-8206444D01*
G01X12019594Y-8241496D01*
G01X12062012Y-8168090D02*
G01X12062012Y-8227526D01*
G01X12065314Y-8237940D01*
G01X12072426Y-8241496D01*
G01X12079284Y-8241496D01*
G01X12051344Y-8192474D02*
G01X12075982Y-8192474D01*
G01X12189520Y-8213556D02*
G01X12231430Y-8213556D01*
G01X12231430Y-8206444D01*
G01X12227874Y-8199586D01*
G01X12224572Y-8196030D01*
G01X12217460Y-8192474D01*
G01X12207046Y-8192474D01*
G01X12199934Y-8196030D01*
G01X12193076Y-8202888D01*
G01X12189520Y-8213556D01*
G01X12189520Y-8220414D01*
G01X12193076Y-8231082D01*
G01X12199934Y-8237940D01*
G01X12207046Y-8241496D01*
G01X12217460Y-8241496D01*
G01X12224572Y-8237940D01*
G01X12231430Y-8231082D01*
G01X12263180Y-8192474D02*
G01X12263180Y-8241496D01*
G01X12263180Y-8206444D02*
G01X12273848Y-8196030D01*
G01X12280706Y-8192474D01*
G01X12291120Y-8192474D01*
G01X12298232Y-8196030D01*
G01X12301788Y-8206444D01*
G01X12301788Y-8241496D01*
G01X12301788Y-8206444D02*
G01X12312202Y-8196030D01*
G01X12319314Y-8192474D01*
G01X12329728Y-8192474D01*
G01X12336840Y-8196030D01*
G01X12340142Y-8206444D01*
G01X12340142Y-8241496D01*
G01X12371892Y-8168090D02*
G01X12375448Y-8171392D01*
G01X12379004Y-8168090D01*
G01X12375448Y-8164534D01*
G01X12371892Y-8168090D01*
G01X12375448Y-8192474D02*
G01X12375448Y-8241496D01*
G01X12421422Y-8168090D02*
G01X12421422Y-8227526D01*
G01X12424724Y-8237940D01*
G01X12431836Y-8241496D01*
G01X12438694Y-8241496D01*
G01X12410754Y-8192474D02*
G01X12435392Y-8192474D01*
G01X12481112Y-8168090D02*
G01X12481112Y-8227526D01*
G01X12484414Y-8237940D01*
G01X12491526Y-8241496D01*
G01X12498384Y-8241496D01*
G01X12470444Y-8192474D02*
G01X12495082Y-8192474D01*
G01X12530134Y-8168090D02*
G01X12533690Y-8171392D01*
G01X12537246Y-8168090D01*
G01X12533690Y-8164534D01*
G01X12530134Y-8168090D01*
G01X12533690Y-8192474D02*
G01X12533690Y-8241496D01*
G01X12568996Y-8192474D02*
G01X12568996Y-8241496D01*
G01X12568996Y-8206444D02*
G01X12579664Y-8196030D01*
G01X12586522Y-8192474D01*
G01X12596936Y-8192474D01*
G01X12604048Y-8196030D01*
G01X12607604Y-8206444D01*
G01X12607604Y-8241496D01*
G01X12681518Y-8192474D02*
G01X12681518Y-8248608D01*
G01X12677962Y-8259022D01*
G01X12674406Y-8262578D01*
G01X12667294Y-8265880D01*
G01X12656880Y-8265880D01*
G01X12650022Y-8262578D01*
G01X12681518Y-8202888D02*
G01X12674406Y-8196030D01*
G01X12667294Y-8192474D01*
G01X12656880Y-8192474D01*
G01X12650022Y-8196030D01*
G01X12642910Y-8202888D01*
G01X12639354Y-8213556D01*
G01X12639354Y-8220414D01*
G01X12642910Y-8231082D01*
G01X12650022Y-8237940D01*
G01X12656880Y-8241496D01*
G01X12667294Y-8241496D01*
G01X12674406Y-8237940D01*
G01X12681518Y-8231082D01*
G01X12833664Y-8168090D02*
G01X12833664Y-8241496D01*
G01X12833664Y-8202888D02*
G01X12826806Y-8196030D01*
G01X12819694Y-8192474D01*
G01X12809280Y-8192474D01*
G01X12802168Y-8196030D01*
G01X12795310Y-8202888D01*
G01X12791754Y-8213556D01*
G01X12791754Y-8220414D01*
G01X12795310Y-8231082D01*
G01X12802168Y-8237940D01*
G01X12809280Y-8241496D01*
G01X12819694Y-8241496D01*
G01X12826806Y-8237940D01*
G01X12833664Y-8231082D01*
G01X12865414Y-8168090D02*
G01X12868970Y-8171392D01*
G01X12872526Y-8168090D01*
G01X12868970Y-8164534D01*
G01X12865414Y-8168090D01*
G01X12868970Y-8192474D02*
G01X12868970Y-8241496D01*
G01X12921802Y-8192474D02*
G01X12914944Y-8196030D01*
G01X12907832Y-8202888D01*
G01X12904276Y-8213556D01*
G01X12904276Y-8220414D01*
G01X12907832Y-8231082D01*
G01X12914944Y-8237940D01*
G01X12921802Y-8241496D01*
G01X12932216Y-8241496D01*
G01X12939328Y-8237940D01*
G01X12946440Y-8231082D01*
G01X12949742Y-8220414D01*
G01X12949742Y-8213556D01*
G01X12946440Y-8202888D01*
G01X12939328Y-8196030D01*
G01X12932216Y-8192474D01*
G01X12921802Y-8192474D01*
G01X13023656Y-8168090D02*
G01X13023656Y-8241496D01*
G01X13023656Y-8202888D02*
G01X13016544Y-8196030D01*
G01X13009432Y-8192474D01*
G01X12999018Y-8192474D01*
G01X12992160Y-8196030D01*
G01X12985048Y-8202888D01*
G01X12981492Y-8213556D01*
G01X12981492Y-8220414D01*
G01X12985048Y-8231082D01*
G01X12992160Y-8237940D01*
G01X12999018Y-8241496D01*
G01X13009432Y-8241496D01*
G01X13016544Y-8237940D01*
G01X13023656Y-8231082D01*
G01X13055406Y-8213556D02*
G01X13097570Y-8213556D01*
G01X13097570Y-8206444D01*
G01X13094014Y-8199586D01*
G01X13090458Y-8196030D01*
G01X13083346Y-8192474D01*
G01X13072932Y-8192474D01*
G01X13066074Y-8196030D01*
G01X13058962Y-8202888D01*
G01X13055406Y-8213556D01*
G01X13055406Y-8220414D01*
G01X13058962Y-8231082D01*
G01X13066074Y-8237940D01*
G01X13072932Y-8241496D01*
G01X13083346Y-8241496D01*
G01X13090458Y-8237940D01*
G01X13097570Y-8231082D01*
G54D12*
G01X11345411Y-8165112D02*
G01X11345411Y-8243852D01*
G01X11345411Y-8243852D02*
G01X11390369Y-8243852D01*
G01X11438375Y-8165112D02*
G01X11438375Y-8243852D01*
G01X11438375Y-8165112D02*
G01X11487143Y-8165112D01*
G01X11438375Y-8202450D02*
G01X11468347Y-8202450D01*
G01X11438375Y-8243852D02*
G01X11487143Y-8243852D01*
G01X11535149Y-8165112D02*
G01X11535149Y-8243852D01*
G01X11535149Y-8165112D02*
G01X11561311Y-8165112D01*
G01X11572741Y-8168668D01*
G01X11580107Y-8176288D01*
G01X11583917Y-8183654D01*
G01X11587727Y-8195084D01*
G01X11587727Y-8213626D01*
G01X11583917Y-8225056D01*
G01X11580107Y-8232422D01*
G01X11572741Y-8240042D01*
G01X11561311Y-8243852D01*
G01X11535149Y-8243852D01*
G01X11654529Y-8187464D02*
G01X11654529Y-8232422D01*
G01X11635733Y-8198640D02*
G01X11673325Y-8221246D01*
G01X11673325Y-8198640D02*
G01X11635733Y-8221246D01*
G01X11805405Y-8165112D02*
G01X11805405Y-8243852D01*
G01X11805405Y-8243852D02*
G01X11850363Y-8243852D01*
G01X11898369Y-8165112D02*
G01X11898369Y-8243852D01*
G01X11898369Y-8165112D02*
G01X11947137Y-8165112D01*
G01X11898369Y-8202450D02*
G01X11928341Y-8202450D01*
G01X11898369Y-8243852D02*
G01X11947137Y-8243852D01*
G01X11995143Y-8165112D02*
G01X11995143Y-8243852D01*
G01X11995143Y-8165112D02*
G01X12021305Y-8165112D01*
G01X12032735Y-8168668D01*
G01X12040101Y-8176288D01*
G01X12043911Y-8183654D01*
G01X12047721Y-8195084D01*
G01X12047721Y-8213626D01*
G01X12043911Y-8225056D01*
G01X12040101Y-8232422D01*
G01X12032735Y-8240042D01*
G01X12021305Y-8243852D01*
G01X11995143Y-8243852D01*
G01X12095727Y-8270014D02*
G01X12163291Y-8270014D01*
G01X12263875Y-8176288D02*
G01X12256255Y-8168668D01*
G01X12245079Y-8165112D01*
G01X12230093Y-8165112D01*
G01X12218917Y-8168668D01*
G01X12211297Y-8176288D01*
G01X12211297Y-8183654D01*
G01X12215107Y-8191274D01*
G01X12218917Y-8195084D01*
G01X12226283Y-8198640D01*
G01X12248889Y-8206260D01*
G01X12256255Y-8210070D01*
G01X12260065Y-8213626D01*
G01X12263875Y-8221246D01*
G01X12263875Y-8232422D01*
G01X12256255Y-8240042D01*
G01X12245079Y-8243852D01*
G01X12230093Y-8243852D01*
G01X12218917Y-8240042D01*
G01X12211297Y-8232422D01*
G01X12311881Y-8165112D02*
G01X12311881Y-8243852D01*
G01X12311881Y-8165112D02*
G01X12341853Y-8243852D01*
G01X12371825Y-8165112D02*
G01X12341853Y-8243852D01*
G01X12371825Y-8165112D02*
G01X12371825Y-8243852D01*
G01X12419831Y-8165112D02*
G01X12419831Y-8243852D01*
G01X12419831Y-8165112D02*
G01X12445993Y-8165112D01*
G01X12457423Y-8168668D01*
G01X12464789Y-8176288D01*
G01X12468599Y-8183654D01*
G01X12472409Y-8195084D01*
G01X12472409Y-8213626D01*
G01X12468599Y-8225056D01*
G01X12464789Y-8232422D01*
G01X12457423Y-8240042D01*
G01X12445993Y-8243852D01*
G01X12419831Y-8243852D01*
G01X12524225Y-8198640D02*
G01X12520415Y-8202450D01*
G01X12524225Y-8206260D01*
G01X12528035Y-8202450D01*
G01X12524225Y-8198640D01*
G01X12524225Y-8225056D02*
G01X12520415Y-8228866D01*
G01X12524225Y-8232422D01*
G01X12528035Y-8228866D01*
G01X12524225Y-8225056D01*
G01X12594837Y-8187464D02*
G01X12594837Y-8232422D01*
G01X12576041Y-8198640D02*
G01X12613633Y-8221246D01*
G01X12613633Y-8198640D02*
G01X12576041Y-8221246D01*
G01X12745713Y-8165112D02*
G01X12745713Y-8243852D01*
G01X12745713Y-8243852D02*
G01X12790671Y-8243852D01*
G01X12838677Y-8165112D02*
G01X12838677Y-8243852D01*
G01X12838677Y-8165112D02*
G01X12887445Y-8165112D01*
G01X12838677Y-8202450D02*
G01X12868649Y-8202450D01*
G01X12838677Y-8243852D02*
G01X12887445Y-8243852D01*
G01X12935451Y-8165112D02*
G01X12935451Y-8243852D01*
G01X12935451Y-8165112D02*
G01X12961613Y-8165112D01*
G01X12973043Y-8168668D01*
G01X12980409Y-8176288D01*
G01X12984219Y-8183654D01*
G01X12988029Y-8195084D01*
G01X12988029Y-8213626D01*
G01X12984219Y-8225056D01*
G01X12980409Y-8232422D01*
G01X12973043Y-8240042D01*
G01X12961613Y-8243852D01*
G01X12935451Y-8243852D01*
G01X13036035Y-8270014D02*
G01X13103599Y-8270014D01*
G01X13177767Y-8165112D02*
G01X13177767Y-8243852D01*
G01X13151605Y-8165112D02*
G01X13204183Y-8165112D01*
G01X13252189Y-8165112D02*
G01X13252189Y-8243852D01*
G01X13304767Y-8165112D02*
G01X13304767Y-8243852D01*
G01X13252189Y-8202450D02*
G01X13304767Y-8202450D01*
G01X13378935Y-8165112D02*
G01X13378935Y-8243852D01*
G01X13352773Y-8165112D02*
G01X13405351Y-8165112D01*
G01X13457167Y-8198640D02*
G01X13453357Y-8202450D01*
G01X13457167Y-8206260D01*
G01X13460977Y-8202450D01*
G01X13457167Y-8198640D01*
G01X13457167Y-8225056D02*
G01X13453357Y-8228866D01*
G01X13457167Y-8232422D01*
G01X13460977Y-8228866D01*
G01X13457167Y-8225056D01*
G01X13527779Y-8187464D02*
G01X13527779Y-8232422D01*
G01X13508983Y-8198640D02*
G01X13546575Y-8221246D01*
G01X13546575Y-8198640D02*
G01X13508983Y-8221246D01*
G54D11*
G01X13477558Y-8464212D02*
G01X13477558Y-8519838D01*
G01X13477558Y-8519838D02*
G01X13509308Y-8519838D01*
G01X13536994Y-8464212D02*
G01X13536994Y-8519838D01*
G01X13536994Y-8464212D02*
G01X13571538Y-8464212D01*
G01X13536994Y-8490628D02*
G01X13558330Y-8490628D01*
G01X13536994Y-8519838D02*
G01X13571538Y-8519838D01*
G01X13599224Y-8464212D02*
G01X13599224Y-8519838D01*
G01X13599224Y-8464212D02*
G01X13617766Y-8464212D01*
G01X13625894Y-8466752D01*
G01X13631228Y-8472086D01*
G01X13633768Y-8477420D01*
G01X13636562Y-8485294D01*
G01X13636562Y-8498756D01*
G01X13633768Y-8506630D01*
G01X13631228Y-8511964D01*
G01X13625894Y-8517298D01*
G01X13617766Y-8519838D01*
G01X13599224Y-8519838D01*
G54D13*
G01X13448971Y-8174468D02*
G01X13448971Y-8219172D01*
G01X13448971Y-8174468D02*
G01X13468021Y-8174468D01*
G01X13474371Y-8176500D01*
G01X13476403Y-8178786D01*
G01X13478689Y-8183104D01*
G01X13478689Y-8187168D01*
G01X13476403Y-8191486D01*
G01X13474371Y-8193518D01*
G01X13468021Y-8195804D01*
G01X13448971Y-8195804D01*
G01X13463703Y-8195804D02*
G01X13478689Y-8219172D01*
G01X13500787Y-8174468D02*
G01X13500787Y-8219172D01*
G01X13500787Y-8174468D02*
G01X13528473Y-8174468D01*
G01X13500787Y-8195804D02*
G01X13517805Y-8195804D01*
G01X13500787Y-8219172D02*
G01X13528473Y-8219172D01*
G01X13550571Y-8174468D02*
G01X13550571Y-8219172D01*
G01X13550571Y-8174468D02*
G01X13578257Y-8174468D01*
G01X13550571Y-8195804D02*
G01X13567589Y-8195804D01*
G01X13611023Y-8187168D02*
G01X13611023Y-8212822D01*
G01X13600355Y-8193518D02*
G01X13621691Y-8206472D01*
G01X13621691Y-8193518D02*
G01X13600355Y-8206472D01*
G01X13654457Y-8187168D02*
G01X13654457Y-8212822D01*
G01X13643789Y-8193518D02*
G01X13665125Y-8206472D01*
G01X13665125Y-8193518D02*
G01X13643789Y-8206472D01*
G54D11*
G01X12729528Y-8158090D02*
G01X12729528Y-8231496D01*
G01X12729528Y-8231496D02*
G01X12771438Y-8231496D01*
G01X12803188Y-8158090D02*
G01X12803188Y-8231496D01*
G01X12803188Y-8158090D02*
G01X12848654Y-8158090D01*
G01X12803188Y-8192888D02*
G01X12831128Y-8192888D01*
G01X12803188Y-8231496D02*
G01X12848654Y-8231496D01*
G01X12880404Y-8158090D02*
G01X12880404Y-8231496D01*
G01X12880404Y-8158090D02*
G01X12905042Y-8158090D01*
G01X12915456Y-8161392D01*
G01X12922568Y-8168504D01*
G01X12925870Y-8175616D01*
G01X12929426Y-8186030D01*
G01X12929426Y-8203556D01*
G01X12925870Y-8213970D01*
G01X12922568Y-8221082D01*
G01X12915456Y-8227940D01*
G01X12905042Y-8231496D01*
G01X12880404Y-8231496D01*
G01X12961176Y-8255880D02*
G01X13024168Y-8255880D01*
G01X13080556Y-8158090D02*
G01X13080556Y-8231496D01*
G01X13055918Y-8158090D02*
G01X13104940Y-8158090D01*
G01X13136690Y-8158090D02*
G01X13136690Y-8231496D01*
G01X13185712Y-8158090D02*
G01X13185712Y-8231496D01*
G01X13136690Y-8192888D02*
G01X13185712Y-8192888D01*
G01X13242100Y-8158090D02*
G01X13242100Y-8231496D01*
G01X13217462Y-8158090D02*
G01X13266484Y-8158090D01*
G01X13301790Y-8189586D02*
G01X13298234Y-8192888D01*
G01X13301790Y-8196444D01*
G01X13305346Y-8192888D01*
G01X13301790Y-8189586D01*
G01X13301790Y-8213970D02*
G01X13298234Y-8217526D01*
G01X13301790Y-8221082D01*
G01X13305346Y-8217526D01*
G01X13301790Y-8213970D01*
G01X13337096Y-8158090D02*
G01X13337096Y-8231496D01*
G01X13337096Y-8231496D02*
G01X13379260Y-8231496D01*
G01X13411010Y-8158090D02*
G01X13411010Y-8231496D01*
G01X13411010Y-8158090D02*
G01X13456476Y-8158090D01*
G01X13411010Y-8192888D02*
G01X13438950Y-8192888D01*
G01X13411010Y-8231496D02*
G01X13456476Y-8231496D01*
G01X13488226Y-8158090D02*
G01X13488226Y-8231496D01*
G01X13488226Y-8158090D02*
G01X13512864Y-8158090D01*
G01X13523278Y-8161392D01*
G01X13530390Y-8168504D01*
G01X13533692Y-8175616D01*
G01X13537248Y-8186030D01*
G01X13537248Y-8203556D01*
G01X13533692Y-8213970D01*
G01X13530390Y-8221082D01*
G01X13523278Y-8227940D01*
G01X13512864Y-8231496D01*
G01X13488226Y-8231496D01*
G01X13568998Y-8255880D02*
G01X13631990Y-8255880D01*
G01X13663740Y-8158090D02*
G01X13663740Y-8231496D01*
G01X13663740Y-8158090D02*
G01X13688378Y-8158090D01*
G01X13698792Y-8161392D01*
G01X13705904Y-8168504D01*
G01X13709206Y-8175616D01*
G01X13712762Y-8186030D01*
G01X13712762Y-8203556D01*
G01X13709206Y-8213970D01*
G01X13705904Y-8221082D01*
G01X13698792Y-8227940D01*
G01X13688378Y-8231496D01*
G01X13663740Y-8231496D01*
G01X13751624Y-8158090D02*
G01X13789978Y-8158090D01*
G01X13769150Y-8186030D01*
G01X13779564Y-8186030D01*
G01X13786676Y-8189586D01*
G01X13789978Y-8192888D01*
G01X13793534Y-8203556D01*
G01X13793534Y-8210414D01*
G01X13789978Y-8221082D01*
G01X13783120Y-8227940D01*
G01X13772452Y-8231496D01*
G01X13762038Y-8231496D01*
G01X13751624Y-8227940D01*
G01X13748068Y-8224384D01*
G01X13744512Y-8217526D01*
G01X13828840Y-8213970D02*
G01X13825284Y-8217526D01*
G01X13828840Y-8221082D01*
G01X13832396Y-8217526D01*
G01X13828840Y-8213970D01*
G01X13885228Y-8158090D02*
G01X13874814Y-8161392D01*
G01X13867702Y-8172060D01*
G01X13864146Y-8189586D01*
G01X13864146Y-8200000D01*
G01X13867702Y-8217526D01*
G01X13874814Y-8227940D01*
G01X13885228Y-8231496D01*
G01X13892086Y-8231496D01*
G01X13902754Y-8227940D01*
G01X13909612Y-8217526D01*
G01X13913168Y-8200000D01*
G01X13913168Y-8189586D01*
G01X13909612Y-8172060D01*
G01X13902754Y-8161392D01*
G01X13892086Y-8158090D01*
G01X13885228Y-8158090D01*
G01X13944918Y-8182474D02*
G01X13944918Y-8231496D01*
G01X13944918Y-8196444D02*
G01X13955586Y-8186030D01*
G01X13962444Y-8182474D01*
G01X13972858Y-8182474D01*
G01X13979970Y-8186030D01*
G01X13983526Y-8196444D01*
G01X13983526Y-8231496D01*
G01X13983526Y-8196444D02*
G01X13993940Y-8186030D01*
G01X14001052Y-8182474D01*
G01X14011466Y-8182474D01*
G01X14018578Y-8186030D01*
G01X14021880Y-8196444D01*
G01X14021880Y-8231496D01*
G01X14053630Y-8182474D02*
G01X14053630Y-8231496D01*
G01X14053630Y-8196444D02*
G01X14064298Y-8186030D01*
G01X14071156Y-8182474D01*
G01X14081570Y-8182474D01*
G01X14088682Y-8186030D01*
G01X14092238Y-8196444D01*
G01X14092238Y-8231496D01*
G01X14092238Y-8196444D02*
G01X14102652Y-8186030D01*
G01X14109764Y-8182474D01*
G01X14120178Y-8182474D01*
G01X14127290Y-8186030D01*
G01X14130592Y-8196444D01*
G01X14130592Y-8231496D01*
G01X12778550Y-8158090D02*
G01X12778550Y-8231496D01*
G01X12778550Y-8231496D02*
G01X12820460Y-8231496D01*
G01X12852210Y-8158090D02*
G01X12855766Y-8161392D01*
G01X12859322Y-8158090D01*
G01X12855766Y-8154534D01*
G01X12852210Y-8158090D01*
G01X12855766Y-8182474D02*
G01X12855766Y-8231496D01*
G01X12933236Y-8182474D02*
G01X12933236Y-8238608D01*
G01X12929680Y-8249022D01*
G01X12926124Y-8252578D01*
G01X12919012Y-8255880D01*
G01X12908598Y-8255880D01*
G01X12901740Y-8252578D01*
G01X12933236Y-8192888D02*
G01X12926124Y-8186030D01*
G01X12919012Y-8182474D01*
G01X12908598Y-8182474D01*
G01X12901740Y-8186030D01*
G01X12894628Y-8192888D01*
G01X12891072Y-8203556D01*
G01X12891072Y-8210414D01*
G01X12894628Y-8221082D01*
G01X12901740Y-8227940D01*
G01X12908598Y-8231496D01*
G01X12919012Y-8231496D01*
G01X12926124Y-8227940D01*
G01X12933236Y-8221082D01*
G01X12964986Y-8158090D02*
G01X12964986Y-8231496D01*
G01X12964986Y-8196444D02*
G01X12975654Y-8186030D01*
G01X12982512Y-8182474D01*
G01X12992926Y-8182474D01*
G01X13000038Y-8186030D01*
G01X13003594Y-8196444D01*
G01X13003594Y-8231496D01*
G01X13046012Y-8158090D02*
G01X13046012Y-8217526D01*
G01X13049314Y-8227940D01*
G01X13056426Y-8231496D01*
G01X13063284Y-8231496D01*
G01X13035344Y-8182474D02*
G01X13059982Y-8182474D01*
G01X13173520Y-8203556D02*
G01X13215430Y-8203556D01*
G01X13215430Y-8196444D01*
G01X13211874Y-8189586D01*
G01X13208572Y-8186030D01*
G01X13201460Y-8182474D01*
G01X13191046Y-8182474D01*
G01X13183934Y-8186030D01*
G01X13177076Y-8192888D01*
G01X13173520Y-8203556D01*
G01X13173520Y-8210414D01*
G01X13177076Y-8221082D01*
G01X13183934Y-8227940D01*
G01X13191046Y-8231496D01*
G01X13201460Y-8231496D01*
G01X13208572Y-8227940D01*
G01X13215430Y-8221082D01*
G01X13247180Y-8182474D02*
G01X13247180Y-8231496D01*
G01X13247180Y-8196444D02*
G01X13257848Y-8186030D01*
G01X13264706Y-8182474D01*
G01X13275120Y-8182474D01*
G01X13282232Y-8186030D01*
G01X13285788Y-8196444D01*
G01X13285788Y-8231496D01*
G01X13285788Y-8196444D02*
G01X13296202Y-8186030D01*
G01X13303314Y-8182474D01*
G01X13313728Y-8182474D01*
G01X13320840Y-8186030D01*
G01X13324142Y-8196444D01*
G01X13324142Y-8231496D01*
G01X13355892Y-8158090D02*
G01X13359448Y-8161392D01*
G01X13363004Y-8158090D01*
G01X13359448Y-8154534D01*
G01X13355892Y-8158090D01*
G01X13359448Y-8182474D02*
G01X13359448Y-8231496D01*
G01X13405422Y-8158090D02*
G01X13405422Y-8217526D01*
G01X13408724Y-8227940D01*
G01X13415836Y-8231496D01*
G01X13422694Y-8231496D01*
G01X13394754Y-8182474D02*
G01X13419392Y-8182474D01*
G01X13465112Y-8158090D02*
G01X13465112Y-8217526D01*
G01X13468414Y-8227940D01*
G01X13475526Y-8231496D01*
G01X13482384Y-8231496D01*
G01X13454444Y-8182474D02*
G01X13479082Y-8182474D01*
G01X13514134Y-8158090D02*
G01X13517690Y-8161392D01*
G01X13521246Y-8158090D01*
G01X13517690Y-8154534D01*
G01X13514134Y-8158090D01*
G01X13517690Y-8182474D02*
G01X13517690Y-8231496D01*
G01X13552996Y-8182474D02*
G01X13552996Y-8231496D01*
G01X13552996Y-8196444D02*
G01X13563664Y-8186030D01*
G01X13570522Y-8182474D01*
G01X13580936Y-8182474D01*
G01X13588048Y-8186030D01*
G01X13591604Y-8196444D01*
G01X13591604Y-8231496D01*
G01X13665518Y-8182474D02*
G01X13665518Y-8238608D01*
G01X13661962Y-8249022D01*
G01X13658406Y-8252578D01*
G01X13651294Y-8255880D01*
G01X13640880Y-8255880D01*
G01X13634022Y-8252578D01*
G01X13665518Y-8192888D02*
G01X13658406Y-8186030D01*
G01X13651294Y-8182474D01*
G01X13640880Y-8182474D01*
G01X13634022Y-8186030D01*
G01X13626910Y-8192888D01*
G01X13623354Y-8203556D01*
G01X13623354Y-8210414D01*
G01X13626910Y-8221082D01*
G01X13634022Y-8227940D01*
G01X13640880Y-8231496D01*
G01X13651294Y-8231496D01*
G01X13658406Y-8227940D01*
G01X13665518Y-8221082D01*
G01X13817664Y-8158090D02*
G01X13817664Y-8231496D01*
G01X13817664Y-8192888D02*
G01X13810806Y-8186030D01*
G01X13803694Y-8182474D01*
G01X13793280Y-8182474D01*
G01X13786168Y-8186030D01*
G01X13779310Y-8192888D01*
G01X13775754Y-8203556D01*
G01X13775754Y-8210414D01*
G01X13779310Y-8221082D01*
G01X13786168Y-8227940D01*
G01X13793280Y-8231496D01*
G01X13803694Y-8231496D01*
G01X13810806Y-8227940D01*
G01X13817664Y-8221082D01*
G01X13849414Y-8158090D02*
G01X13852970Y-8161392D01*
G01X13856526Y-8158090D01*
G01X13852970Y-8154534D01*
G01X13849414Y-8158090D01*
G01X13852970Y-8182474D02*
G01X13852970Y-8231496D01*
G01X13905802Y-8182474D02*
G01X13898944Y-8186030D01*
G01X13891832Y-8192888D01*
G01X13888276Y-8203556D01*
G01X13888276Y-8210414D01*
G01X13891832Y-8221082D01*
G01X13898944Y-8227940D01*
G01X13905802Y-8231496D01*
G01X13916216Y-8231496D01*
G01X13923328Y-8227940D01*
G01X13930440Y-8221082D01*
G01X13933742Y-8210414D01*
G01X13933742Y-8203556D01*
G01X13930440Y-8192888D01*
G01X13923328Y-8186030D01*
G01X13916216Y-8182474D01*
G01X13905802Y-8182474D01*
G01X14007656Y-8158090D02*
G01X14007656Y-8231496D01*
G01X14007656Y-8192888D02*
G01X14000544Y-8186030D01*
G01X13993432Y-8182474D01*
G01X13983018Y-8182474D01*
G01X13976160Y-8186030D01*
G01X13969048Y-8192888D01*
G01X13965492Y-8203556D01*
G01X13965492Y-8210414D01*
G01X13969048Y-8221082D01*
G01X13976160Y-8227940D01*
G01X13983018Y-8231496D01*
G01X13993432Y-8231496D01*
G01X14000544Y-8227940D01*
G01X14007656Y-8221082D01*
G01X14039406Y-8203556D02*
G01X14081570Y-8203556D01*
G01X14081570Y-8196444D01*
G01X14078014Y-8189586D01*
G01X14074458Y-8186030D01*
G01X14067346Y-8182474D01*
G01X14056932Y-8182474D01*
G01X14050074Y-8186030D01*
G01X14042962Y-8192888D01*
G01X14039406Y-8203556D01*
G01X14039406Y-8210414D01*
G01X14042962Y-8221082D01*
G01X14050074Y-8227940D01*
G01X14056932Y-8231496D01*
G01X14067346Y-8231496D01*
G01X14074458Y-8227940D01*
G01X14081570Y-8221082D01*
G54D12*
G01X12329411Y-8155112D02*
G01X12329411Y-8233852D01*
G01X12329411Y-8233852D02*
G01X12374369Y-8233852D01*
G01X12422375Y-8155112D02*
G01X12422375Y-8233852D01*
G01X12422375Y-8155112D02*
G01X12471143Y-8155112D01*
G01X12422375Y-8192450D02*
G01X12452347Y-8192450D01*
G01X12422375Y-8233852D02*
G01X12471143Y-8233852D01*
G01X12519149Y-8155112D02*
G01X12519149Y-8233852D01*
G01X12519149Y-8155112D02*
G01X12545311Y-8155112D01*
G01X12556741Y-8158668D01*
G01X12564107Y-8166288D01*
G01X12567917Y-8173654D01*
G01X12571727Y-8185084D01*
G01X12571727Y-8203626D01*
G01X12567917Y-8215056D01*
G01X12564107Y-8222422D01*
G01X12556741Y-8230042D01*
G01X12545311Y-8233852D01*
G01X12519149Y-8233852D01*
G01X12638529Y-8177464D02*
G01X12638529Y-8222422D01*
G01X12619733Y-8188640D02*
G01X12657325Y-8211246D01*
G01X12657325Y-8188640D02*
G01X12619733Y-8211246D01*
G01X12789405Y-8155112D02*
G01X12789405Y-8233852D01*
G01X12789405Y-8233852D02*
G01X12834363Y-8233852D01*
G01X12882369Y-8155112D02*
G01X12882369Y-8233852D01*
G01X12882369Y-8155112D02*
G01X12931137Y-8155112D01*
G01X12882369Y-8192450D02*
G01X12912341Y-8192450D01*
G01X12882369Y-8233852D02*
G01X12931137Y-8233852D01*
G01X12979143Y-8155112D02*
G01X12979143Y-8233852D01*
G01X12979143Y-8155112D02*
G01X13005305Y-8155112D01*
G01X13016735Y-8158668D01*
G01X13024101Y-8166288D01*
G01X13027911Y-8173654D01*
G01X13031721Y-8185084D01*
G01X13031721Y-8203626D01*
G01X13027911Y-8215056D01*
G01X13024101Y-8222422D01*
G01X13016735Y-8230042D01*
G01X13005305Y-8233852D01*
G01X12979143Y-8233852D01*
G01X13079727Y-8260014D02*
G01X13147291Y-8260014D01*
G01X13247875Y-8166288D02*
G01X13240255Y-8158668D01*
G01X13229079Y-8155112D01*
G01X13214093Y-8155112D01*
G01X13202917Y-8158668D01*
G01X13195297Y-8166288D01*
G01X13195297Y-8173654D01*
G01X13199107Y-8181274D01*
G01X13202917Y-8185084D01*
G01X13210283Y-8188640D01*
G01X13232889Y-8196260D01*
G01X13240255Y-8200070D01*
G01X13244065Y-8203626D01*
G01X13247875Y-8211246D01*
G01X13247875Y-8222422D01*
G01X13240255Y-8230042D01*
G01X13229079Y-8233852D01*
G01X13214093Y-8233852D01*
G01X13202917Y-8230042D01*
G01X13195297Y-8222422D01*
G01X13295881Y-8155112D02*
G01X13295881Y-8233852D01*
G01X13295881Y-8155112D02*
G01X13325853Y-8233852D01*
G01X13355825Y-8155112D02*
G01X13325853Y-8233852D01*
G01X13355825Y-8155112D02*
G01X13355825Y-8233852D01*
G01X13403831Y-8155112D02*
G01X13403831Y-8233852D01*
G01X13403831Y-8155112D02*
G01X13429993Y-8155112D01*
G01X13441423Y-8158668D01*
G01X13448789Y-8166288D01*
G01X13452599Y-8173654D01*
G01X13456409Y-8185084D01*
G01X13456409Y-8203626D01*
G01X13452599Y-8215056D01*
G01X13448789Y-8222422D01*
G01X13441423Y-8230042D01*
G01X13429993Y-8233852D01*
G01X13403831Y-8233852D01*
G01X13508225Y-8188640D02*
G01X13504415Y-8192450D01*
G01X13508225Y-8196260D01*
G01X13512035Y-8192450D01*
G01X13508225Y-8188640D01*
G01X13508225Y-8215056D02*
G01X13504415Y-8218866D01*
G01X13508225Y-8222422D01*
G01X13512035Y-8218866D01*
G01X13508225Y-8215056D01*
G01X13578837Y-8177464D02*
G01X13578837Y-8222422D01*
G01X13560041Y-8188640D02*
G01X13597633Y-8211246D01*
G01X13597633Y-8188640D02*
G01X13560041Y-8211246D01*
G01X13729713Y-8155112D02*
G01X13729713Y-8233852D01*
G01X13729713Y-8233852D02*
G01X13774671Y-8233852D01*
G01X13822677Y-8155112D02*
G01X13822677Y-8233852D01*
G01X13822677Y-8155112D02*
G01X13871445Y-8155112D01*
G01X13822677Y-8192450D02*
G01X13852649Y-8192450D01*
G01X13822677Y-8233852D02*
G01X13871445Y-8233852D01*
G01X13919451Y-8155112D02*
G01X13919451Y-8233852D01*
G01X13919451Y-8155112D02*
G01X13945613Y-8155112D01*
G01X13957043Y-8158668D01*
G01X13964409Y-8166288D01*
G01X13968219Y-8173654D01*
G01X13972029Y-8185084D01*
G01X13972029Y-8203626D01*
G01X13968219Y-8215056D01*
G01X13964409Y-8222422D01*
G01X13957043Y-8230042D01*
G01X13945613Y-8233852D01*
G01X13919451Y-8233852D01*
G01X14020035Y-8260014D02*
G01X14087599Y-8260014D01*
G01X14161767Y-8155112D02*
G01X14161767Y-8233852D01*
G01X14135605Y-8155112D02*
G01X14188183Y-8155112D01*
G01X14236189Y-8155112D02*
G01X14236189Y-8233852D01*
G01X14288767Y-8155112D02*
G01X14288767Y-8233852D01*
G01X14236189Y-8192450D02*
G01X14288767Y-8192450D01*
G01X14362935Y-8155112D02*
G01X14362935Y-8233852D01*
G01X14336773Y-8155112D02*
G01X14389351Y-8155112D01*
G01X14441167Y-8188640D02*
G01X14437357Y-8192450D01*
G01X14441167Y-8196260D01*
G01X14444977Y-8192450D01*
G01X14441167Y-8188640D01*
G01X14441167Y-8215056D02*
G01X14437357Y-8218866D01*
G01X14441167Y-8222422D01*
G01X14444977Y-8218866D01*
G01X14441167Y-8215056D01*
G01X14511779Y-8177464D02*
G01X14511779Y-8222422D01*
G01X14492983Y-8188640D02*
G01X14530575Y-8211246D01*
G01X14530575Y-8188640D02*
G01X14492983Y-8211246D01*
G54D11*
G01X12875765Y-9918090D02*
G01X12847825Y-9991496D01*
G01X12875765Y-9918090D02*
G01X12903705Y-9991496D01*
G01X12858239Y-9967112D02*
G01X12893291Y-9967112D01*
G01X12977619Y-9918090D02*
G01X12977619Y-9991496D01*
G01X12977619Y-9952888D02*
G01X12970507Y-9946030D01*
G01X12963395Y-9942474D01*
G01X12952981Y-9942474D01*
G01X12946123Y-9946030D01*
G01X12939011Y-9952888D01*
G01X12935455Y-9963556D01*
G01X12935455Y-9970414D01*
G01X12939011Y-9981082D01*
G01X12946123Y-9987940D01*
G01X12952981Y-9991496D01*
G01X12963395Y-9991496D01*
G01X12970507Y-9987940D01*
G01X12977619Y-9981082D01*
G01X13009369Y-9918090D02*
G01X13009369Y-9991496D01*
G01X13009369Y-9918090D02*
G01X13054835Y-9918090D01*
G01X13009369Y-9952888D02*
G01X13037309Y-9952888D01*
G01X13104111Y-9942474D02*
G01X13097253Y-9946030D01*
G01X13090141Y-9952888D01*
G01X13086585Y-9963556D01*
G01X13086585Y-9970414D01*
G01X13090141Y-9981082D01*
G01X13097253Y-9987940D01*
G01X13104111Y-9991496D01*
G01X13114525Y-9991496D01*
G01X13121637Y-9987940D01*
G01X13128749Y-9981082D01*
G01X13132051Y-9970414D01*
G01X13132051Y-9963556D01*
G01X13128749Y-9952888D01*
G01X13121637Y-9946030D01*
G01X13114525Y-9942474D01*
G01X13104111Y-9942474D01*
G01X13163801Y-9942474D02*
G01X13163801Y-9991496D01*
G01X13163801Y-9956444D02*
G01X13174469Y-9946030D01*
G01X13181327Y-9942474D01*
G01X13191741Y-9942474D01*
G01X13198853Y-9946030D01*
G01X13202409Y-9956444D01*
G01X13202409Y-9991496D01*
G01X13244827Y-9918090D02*
G01X13244827Y-9977526D01*
G01X13248129Y-9987940D01*
G01X13255241Y-9991496D01*
G01X13262099Y-9991496D01*
G01X13234159Y-9942474D02*
G01X13258797Y-9942474D01*
G01X13293849Y-9963556D02*
G01X13336013Y-9963556D01*
G01X13336013Y-9956444D01*
G01X13332457Y-9949586D01*
G01X13328901Y-9946030D01*
G01X13321789Y-9942474D01*
G01X13311375Y-9942474D01*
G01X13304517Y-9946030D01*
G01X13297405Y-9952888D01*
G01X13293849Y-9963556D01*
G01X13293849Y-9970414D01*
G01X13297405Y-9981082D01*
G01X13304517Y-9987940D01*
G01X13311375Y-9991496D01*
G01X13321789Y-9991496D01*
G01X13328901Y-9987940D01*
G01X13336013Y-9981082D01*
G01X13406371Y-9952888D02*
G01X13402815Y-9946030D01*
G01X13392401Y-9942474D01*
G01X13381733Y-9942474D01*
G01X13371319Y-9946030D01*
G01X13367763Y-9952888D01*
G01X13371319Y-9960000D01*
G01X13378431Y-9963556D01*
G01X13395703Y-9967112D01*
G01X13402815Y-9970414D01*
G01X13406371Y-9977526D01*
G01X13406371Y-9981082D01*
G01X13402815Y-9987940D01*
G01X13392401Y-9991496D01*
G01X13381733Y-9991496D01*
G01X13371319Y-9987940D01*
G01X13367763Y-9981082D01*
G01X13438121Y-10015880D02*
G01X13501113Y-10015880D01*
G01X13560803Y-9918090D02*
G01X13553945Y-9918090D01*
G01X13546833Y-9921392D01*
G01X13543531Y-9932060D01*
G01X13543531Y-9991496D01*
G01X13532863Y-9942474D02*
G01X13557501Y-9942474D01*
G01X13610079Y-9942474D02*
G01X13603221Y-9946030D01*
G01X13596109Y-9952888D01*
G01X13592553Y-9963556D01*
G01X13592553Y-9970414D01*
G01X13596109Y-9981082D01*
G01X13603221Y-9987940D01*
G01X13610079Y-9991496D01*
G01X13620493Y-9991496D01*
G01X13627605Y-9987940D01*
G01X13634717Y-9981082D01*
G01X13638019Y-9970414D01*
G01X13638019Y-9963556D01*
G01X13634717Y-9952888D01*
G01X13627605Y-9946030D01*
G01X13620493Y-9942474D01*
G01X13610079Y-9942474D01*
G01X13687295Y-9942474D02*
G01X13680437Y-9946030D01*
G01X13673325Y-9952888D01*
G01X13669769Y-9963556D01*
G01X13669769Y-9970414D01*
G01X13673325Y-9981082D01*
G01X13680437Y-9987940D01*
G01X13687295Y-9991496D01*
G01X13697709Y-9991496D01*
G01X13704821Y-9987940D01*
G01X13711933Y-9981082D01*
G01X13715235Y-9970414D01*
G01X13715235Y-9963556D01*
G01X13711933Y-9952888D01*
G01X13704821Y-9946030D01*
G01X13697709Y-9942474D01*
G01X13687295Y-9942474D01*
G01X13757653Y-9918090D02*
G01X13757653Y-9977526D01*
G01X13760955Y-9987940D01*
G01X13768067Y-9991496D01*
G01X13774925Y-9991496D01*
G01X13746985Y-9942474D02*
G01X13771623Y-9942474D01*
G01X13806675Y-9942474D02*
G01X13806675Y-10015880D01*
G01X13806675Y-9952888D02*
G01X13813787Y-9946030D01*
G01X13820645Y-9942474D01*
G01X13831313Y-9942474D01*
G01X13838171Y-9946030D01*
G01X13845283Y-9952888D01*
G01X13848839Y-9963556D01*
G01X13848839Y-9970414D01*
G01X13845283Y-9981082D01*
G01X13838171Y-9987940D01*
G01X13831313Y-9991496D01*
G01X13820645Y-9991496D01*
G01X13813787Y-9987940D01*
G01X13806675Y-9981082D01*
G01X13880589Y-9942474D02*
G01X13880589Y-9991496D01*
G01X13880589Y-9963556D02*
G01X13884145Y-9952888D01*
G01X13891257Y-9946030D01*
G01X13898115Y-9942474D01*
G01X13908529Y-9942474D01*
G01X13940279Y-9918090D02*
G01X13943835Y-9921392D01*
G01X13947391Y-9918090D01*
G01X13943835Y-9914534D01*
G01X13940279Y-9918090D01*
G01X13943835Y-9942474D02*
G01X13943835Y-9991496D01*
G01X13979141Y-9942474D02*
G01X13979141Y-9991496D01*
G01X13979141Y-9956444D02*
G01X13989809Y-9946030D01*
G01X13996667Y-9942474D01*
G01X14007081Y-9942474D01*
G01X14014193Y-9946030D01*
G01X14017749Y-9956444D01*
G01X14017749Y-9991496D01*
G01X14060167Y-9918090D02*
G01X14060167Y-9977526D01*
G01X14063469Y-9987940D01*
G01X14070581Y-9991496D01*
G01X14077439Y-9991496D01*
G01X14049499Y-9942474D02*
G01X14074137Y-9942474D01*
G01X14112745Y-9949586D02*
G01X14109189Y-9952888D01*
G01X14112745Y-9956444D01*
G01X14116301Y-9952888D01*
G01X14112745Y-9949586D01*
G01X14112745Y-9973970D02*
G01X14109189Y-9977526D01*
G01X14112745Y-9981082D01*
G01X14116301Y-9977526D01*
G01X14112745Y-9973970D01*
G01X14175991Y-9918090D02*
G01X14148051Y-9991496D01*
G01X14175991Y-9918090D02*
G01X14204185Y-9991496D01*
G01X14158719Y-9967112D02*
G01X14193517Y-9967112D01*
G01X14278099Y-9918090D02*
G01X14278099Y-9991496D01*
G01X14278099Y-9952888D02*
G01X14270987Y-9946030D01*
G01X14263875Y-9942474D01*
G01X14253461Y-9942474D01*
G01X14246603Y-9946030D01*
G01X14239491Y-9952888D01*
G01X14235935Y-9963556D01*
G01X14235935Y-9970414D01*
G01X14239491Y-9981082D01*
G01X14246603Y-9987940D01*
G01X14253461Y-9991496D01*
G01X14263875Y-9991496D01*
G01X14270987Y-9987940D01*
G01X14278099Y-9981082D01*
G01X14388335Y-9918090D02*
G01X14388335Y-9991496D01*
G01X14388335Y-9918090D02*
G01X14433801Y-9918090D01*
G01X14388335Y-9952888D02*
G01X14416275Y-9952888D01*
G01X14483077Y-9942474D02*
G01X14476219Y-9946030D01*
G01X14469107Y-9952888D01*
G01X14465551Y-9963556D01*
G01X14465551Y-9970414D01*
G01X14469107Y-9981082D01*
G01X14476219Y-9987940D01*
G01X14483077Y-9991496D01*
G01X14493491Y-9991496D01*
G01X14500603Y-9987940D01*
G01X14507715Y-9981082D01*
G01X14511017Y-9970414D01*
G01X14511017Y-9963556D01*
G01X14507715Y-9952888D01*
G01X14500603Y-9946030D01*
G01X14493491Y-9942474D01*
G01X14483077Y-9942474D01*
G01X14542767Y-9942474D02*
G01X14542767Y-9991496D01*
G01X14542767Y-9956444D02*
G01X14553435Y-9946030D01*
G01X14560293Y-9942474D01*
G01X14570707Y-9942474D01*
G01X14577819Y-9946030D01*
G01X14581375Y-9956444D01*
G01X14581375Y-9991496D01*
G01X14623793Y-9918090D02*
G01X14623793Y-9977526D01*
G01X14627095Y-9987940D01*
G01X14634207Y-9991496D01*
G01X14641065Y-9991496D01*
G01X14613125Y-9942474D02*
G01X14637763Y-9942474D01*
G01X14672815Y-9963556D02*
G01X14714979Y-9963556D01*
G01X14714979Y-9956444D01*
G01X14711423Y-9949586D01*
G01X14707867Y-9946030D01*
G01X14700755Y-9942474D01*
G01X14690341Y-9942474D01*
G01X14683483Y-9946030D01*
G01X14676371Y-9952888D01*
G01X14672815Y-9963556D01*
G01X14672815Y-9970414D01*
G01X14676371Y-9981082D01*
G01X14683483Y-9987940D01*
G01X14690341Y-9991496D01*
G01X14700755Y-9991496D01*
G01X14707867Y-9987940D01*
G01X14714979Y-9981082D01*
G01X14785337Y-9952888D02*
G01X14781781Y-9946030D01*
G01X14771367Y-9942474D01*
G01X14760699Y-9942474D01*
G01X14750285Y-9946030D01*
G01X14746729Y-9952888D01*
G01X14750285Y-9960000D01*
G01X14757397Y-9963556D01*
G01X14774669Y-9967112D01*
G01X14781781Y-9970414D01*
G01X14785337Y-9977526D01*
G01X14785337Y-9981082D01*
G01X14781781Y-9987940D01*
G01X14771367Y-9991496D01*
G01X14760699Y-9991496D01*
G01X14750285Y-9987940D01*
G01X14746729Y-9981082D01*
G01X14948151Y-9935616D02*
G01X14944595Y-9928504D01*
G01X14937483Y-9921392D01*
G01X14930625Y-9918090D01*
G01X14916655Y-9918090D01*
G01X14909543Y-9921392D01*
G01X14902431Y-9928504D01*
G01X14899129Y-9935616D01*
G01X14895573Y-9946030D01*
G01X14895573Y-9963556D01*
G01X14899129Y-9973970D01*
G01X14902431Y-9981082D01*
G01X14909543Y-9987940D01*
G01X14916655Y-9991496D01*
G01X14930625Y-9991496D01*
G01X14937483Y-9987940D01*
G01X14944595Y-9981082D01*
G01X14948151Y-9973970D01*
G01X14979901Y-9942474D02*
G01X14979901Y-9991496D01*
G01X14979901Y-9963556D02*
G01X14983457Y-9952888D01*
G01X14990569Y-9946030D01*
G01X14997427Y-9942474D01*
G01X15007841Y-9942474D01*
G01X15039591Y-9963556D02*
G01X15081755Y-9963556D01*
G01X15081755Y-9956444D01*
G01X15078199Y-9949586D01*
G01X15074643Y-9946030D01*
G01X15067531Y-9942474D01*
G01X15057117Y-9942474D01*
G01X15050259Y-9946030D01*
G01X15043147Y-9952888D01*
G01X15039591Y-9963556D01*
G01X15039591Y-9970414D01*
G01X15043147Y-9981082D01*
G01X15050259Y-9987940D01*
G01X15057117Y-9991496D01*
G01X15067531Y-9991496D01*
G01X15074643Y-9987940D01*
G01X15081755Y-9981082D01*
G01X15152113Y-9952888D02*
G01X15148557Y-9946030D01*
G01X15138143Y-9942474D01*
G01X15127475Y-9942474D01*
G01X15117061Y-9946030D01*
G01X15113505Y-9952888D01*
G01X15117061Y-9960000D01*
G01X15124173Y-9963556D01*
G01X15141445Y-9967112D01*
G01X15148557Y-9970414D01*
G01X15152113Y-9977526D01*
G01X15152113Y-9981082D01*
G01X15148557Y-9987940D01*
G01X15138143Y-9991496D01*
G01X15127475Y-9991496D01*
G01X15117061Y-9987940D01*
G01X15113505Y-9981082D01*
G01X15194531Y-9918090D02*
G01X15194531Y-9977526D01*
G01X15197833Y-9987940D01*
G01X15204945Y-9991496D01*
G01X15211803Y-9991496D01*
G01X15183863Y-9942474D02*
G01X15208501Y-9942474D01*
G01X15322039Y-9918090D02*
G01X15322039Y-9991496D01*
G01X15322039Y-9991496D02*
G01X15363949Y-9991496D01*
G01X15413225Y-9942474D02*
G01X15406367Y-9946030D01*
G01X15399255Y-9952888D01*
G01X15395699Y-9963556D01*
G01X15395699Y-9970414D01*
G01X15399255Y-9981082D01*
G01X15406367Y-9987940D01*
G01X15413225Y-9991496D01*
G01X15423639Y-9991496D01*
G01X15430751Y-9987940D01*
G01X15437863Y-9981082D01*
G01X15441165Y-9970414D01*
G01X15441165Y-9963556D01*
G01X15437863Y-9952888D01*
G01X15430751Y-9946030D01*
G01X15423639Y-9942474D01*
G01X15413225Y-9942474D01*
G01X15515079Y-9942474D02*
G01X15515079Y-9998608D01*
G01X15511523Y-10009022D01*
G01X15507967Y-10012578D01*
G01X15500855Y-10015880D01*
G01X15490441Y-10015880D01*
G01X15483583Y-10012578D01*
G01X15515079Y-9952888D02*
G01X15507967Y-9946030D01*
G01X15500855Y-9942474D01*
G01X15490441Y-9942474D01*
G01X15483583Y-9946030D01*
G01X15476471Y-9952888D01*
G01X15472915Y-9963556D01*
G01X15472915Y-9970414D01*
G01X15476471Y-9981082D01*
G01X15483583Y-9987940D01*
G01X15490441Y-9991496D01*
G01X15500855Y-9991496D01*
G01X15507967Y-9987940D01*
G01X15515079Y-9981082D01*
G01X15564355Y-9942474D02*
G01X15557497Y-9946030D01*
G01X15550385Y-9952888D01*
G01X15546829Y-9963556D01*
G01X15546829Y-9970414D01*
G01X15550385Y-9981082D01*
G01X15557497Y-9987940D01*
G01X15564355Y-9991496D01*
G01X15574769Y-9991496D01*
G01X15581881Y-9987940D01*
G01X15588993Y-9981082D01*
G01X15592295Y-9970414D01*
G01X15592295Y-9963556D01*
G01X15588993Y-9952888D01*
G01X15581881Y-9946030D01*
G01X15574769Y-9942474D01*
G01X15564355Y-9942474D01*
G01X12483558Y-9474212D02*
G01X12483558Y-9529838D01*
G01X12483558Y-9529838D02*
G01X12515308Y-9529838D01*
G01X12542994Y-9474212D02*
G01X12542994Y-9529838D01*
G01X12542994Y-9474212D02*
G01X12577538Y-9474212D01*
G01X12542994Y-9500628D02*
G01X12564330Y-9500628D01*
G01X12542994Y-9529838D02*
G01X12577538Y-9529838D01*
G01X12605224Y-9474212D02*
G01X12605224Y-9529838D01*
G01X12605224Y-9474212D02*
G01X12623766Y-9474212D01*
G01X12631894Y-9476752D01*
G01X12637228Y-9482086D01*
G01X12639768Y-9487420D01*
G01X12642562Y-9495294D01*
G01X12642562Y-9508756D01*
G01X12639768Y-9516630D01*
G01X12637228Y-9521964D01*
G01X12631894Y-9527298D01*
G01X12623766Y-9529838D01*
G01X12605224Y-9529838D01*
G54D13*
G01X12454971Y-9184468D02*
G01X12454971Y-9229172D01*
G01X12454971Y-9184468D02*
G01X12474021Y-9184468D01*
G01X12480371Y-9186500D01*
G01X12482403Y-9188786D01*
G01X12484689Y-9193104D01*
G01X12484689Y-9197168D01*
G01X12482403Y-9201486D01*
G01X12480371Y-9203518D01*
G01X12474021Y-9205804D01*
G01X12454971Y-9205804D01*
G01X12469703Y-9205804D02*
G01X12484689Y-9229172D01*
G01X12506787Y-9184468D02*
G01X12506787Y-9229172D01*
G01X12506787Y-9184468D02*
G01X12534473Y-9184468D01*
G01X12506787Y-9205804D02*
G01X12523805Y-9205804D01*
G01X12506787Y-9229172D02*
G01X12534473Y-9229172D01*
G01X12556571Y-9184468D02*
G01X12556571Y-9229172D01*
G01X12556571Y-9184468D02*
G01X12584257Y-9184468D01*
G01X12556571Y-9205804D02*
G01X12573589Y-9205804D01*
G01X12617023Y-9197168D02*
G01X12617023Y-9222822D01*
G01X12606355Y-9203518D02*
G01X12627691Y-9216472D01*
G01X12627691Y-9203518D02*
G01X12606355Y-9216472D01*
G01X12660457Y-9197168D02*
G01X12660457Y-9222822D01*
G01X12649789Y-9203518D02*
G01X12671125Y-9216472D01*
G01X12671125Y-9203518D02*
G01X12649789Y-9216472D01*
G54D11*
G01X11735528Y-9168090D02*
G01X11735528Y-9241496D01*
G01X11735528Y-9241496D02*
G01X11777438Y-9241496D01*
G01X11809188Y-9168090D02*
G01X11809188Y-9241496D01*
G01X11809188Y-9168090D02*
G01X11854654Y-9168090D01*
G01X11809188Y-9202888D02*
G01X11837128Y-9202888D01*
G01X11809188Y-9241496D02*
G01X11854654Y-9241496D01*
G01X11886404Y-9168090D02*
G01X11886404Y-9241496D01*
G01X11886404Y-9168090D02*
G01X11911042Y-9168090D01*
G01X11921456Y-9171392D01*
G01X11928568Y-9178504D01*
G01X11931870Y-9185616D01*
G01X11935426Y-9196030D01*
G01X11935426Y-9213556D01*
G01X11931870Y-9223970D01*
G01X11928568Y-9231082D01*
G01X11921456Y-9237940D01*
G01X11911042Y-9241496D01*
G01X11886404Y-9241496D01*
G01X11967176Y-9265880D02*
G01X12030168Y-9265880D01*
G01X12086556Y-9168090D02*
G01X12086556Y-9241496D01*
G01X12061918Y-9168090D02*
G01X12110940Y-9168090D01*
G01X12142690Y-9168090D02*
G01X12142690Y-9241496D01*
G01X12191712Y-9168090D02*
G01X12191712Y-9241496D01*
G01X12142690Y-9202888D02*
G01X12191712Y-9202888D01*
G01X12248100Y-9168090D02*
G01X12248100Y-9241496D01*
G01X12223462Y-9168090D02*
G01X12272484Y-9168090D01*
G01X12307790Y-9199586D02*
G01X12304234Y-9202888D01*
G01X12307790Y-9206444D01*
G01X12311346Y-9202888D01*
G01X12307790Y-9199586D01*
G01X12307790Y-9223970D02*
G01X12304234Y-9227526D01*
G01X12307790Y-9231082D01*
G01X12311346Y-9227526D01*
G01X12307790Y-9223970D01*
G01X12343096Y-9168090D02*
G01X12343096Y-9241496D01*
G01X12343096Y-9241496D02*
G01X12385260Y-9241496D01*
G01X12417010Y-9168090D02*
G01X12417010Y-9241496D01*
G01X12417010Y-9168090D02*
G01X12462476Y-9168090D01*
G01X12417010Y-9202888D02*
G01X12444950Y-9202888D01*
G01X12417010Y-9241496D02*
G01X12462476Y-9241496D01*
G01X12494226Y-9168090D02*
G01X12494226Y-9241496D01*
G01X12494226Y-9168090D02*
G01X12518864Y-9168090D01*
G01X12529278Y-9171392D01*
G01X12536390Y-9178504D01*
G01X12539692Y-9185616D01*
G01X12543248Y-9196030D01*
G01X12543248Y-9213556D01*
G01X12539692Y-9223970D01*
G01X12536390Y-9231082D01*
G01X12529278Y-9237940D01*
G01X12518864Y-9241496D01*
G01X12494226Y-9241496D01*
G01X12574998Y-9265880D02*
G01X12637990Y-9265880D01*
G01X12669740Y-9168090D02*
G01X12669740Y-9241496D01*
G01X12669740Y-9168090D02*
G01X12694378Y-9168090D01*
G01X12704792Y-9171392D01*
G01X12711904Y-9178504D01*
G01X12715206Y-9185616D01*
G01X12718762Y-9196030D01*
G01X12718762Y-9213556D01*
G01X12715206Y-9223970D01*
G01X12711904Y-9231082D01*
G01X12704792Y-9237940D01*
G01X12694378Y-9241496D01*
G01X12669740Y-9241496D01*
G01X12757624Y-9168090D02*
G01X12795978Y-9168090D01*
G01X12775150Y-9196030D01*
G01X12785564Y-9196030D01*
G01X12792676Y-9199586D01*
G01X12795978Y-9202888D01*
G01X12799534Y-9213556D01*
G01X12799534Y-9220414D01*
G01X12795978Y-9231082D01*
G01X12789120Y-9237940D01*
G01X12778452Y-9241496D01*
G01X12768038Y-9241496D01*
G01X12757624Y-9237940D01*
G01X12754068Y-9234384D01*
G01X12750512Y-9227526D01*
G01X12834840Y-9223970D02*
G01X12831284Y-9227526D01*
G01X12834840Y-9231082D01*
G01X12838396Y-9227526D01*
G01X12834840Y-9223970D01*
G01X12891228Y-9168090D02*
G01X12880814Y-9171392D01*
G01X12873702Y-9182060D01*
G01X12870146Y-9199586D01*
G01X12870146Y-9210000D01*
G01X12873702Y-9227526D01*
G01X12880814Y-9237940D01*
G01X12891228Y-9241496D01*
G01X12898086Y-9241496D01*
G01X12908754Y-9237940D01*
G01X12915612Y-9227526D01*
G01X12919168Y-9210000D01*
G01X12919168Y-9199586D01*
G01X12915612Y-9182060D01*
G01X12908754Y-9171392D01*
G01X12898086Y-9168090D01*
G01X12891228Y-9168090D01*
G01X12950918Y-9192474D02*
G01X12950918Y-9241496D01*
G01X12950918Y-9206444D02*
G01X12961586Y-9196030D01*
G01X12968444Y-9192474D01*
G01X12978858Y-9192474D01*
G01X12985970Y-9196030D01*
G01X12989526Y-9206444D01*
G01X12989526Y-9241496D01*
G01X12989526Y-9206444D02*
G01X12999940Y-9196030D01*
G01X13007052Y-9192474D01*
G01X13017466Y-9192474D01*
G01X13024578Y-9196030D01*
G01X13027880Y-9206444D01*
G01X13027880Y-9241496D01*
G01X13059630Y-9192474D02*
G01X13059630Y-9241496D01*
G01X13059630Y-9206444D02*
G01X13070298Y-9196030D01*
G01X13077156Y-9192474D01*
G01X13087570Y-9192474D01*
G01X13094682Y-9196030D01*
G01X13098238Y-9206444D01*
G01X13098238Y-9241496D01*
G01X13098238Y-9206444D02*
G01X13108652Y-9196030D01*
G01X13115764Y-9192474D01*
G01X13126178Y-9192474D01*
G01X13133290Y-9196030D01*
G01X13136592Y-9206444D01*
G01X13136592Y-9241496D01*
G01X11784550Y-9168090D02*
G01X11784550Y-9241496D01*
G01X11784550Y-9241496D02*
G01X11826460Y-9241496D01*
G01X11858210Y-9168090D02*
G01X11861766Y-9171392D01*
G01X11865322Y-9168090D01*
G01X11861766Y-9164534D01*
G01X11858210Y-9168090D01*
G01X11861766Y-9192474D02*
G01X11861766Y-9241496D01*
G01X11939236Y-9192474D02*
G01X11939236Y-9248608D01*
G01X11935680Y-9259022D01*
G01X11932124Y-9262578D01*
G01X11925012Y-9265880D01*
G01X11914598Y-9265880D01*
G01X11907740Y-9262578D01*
G01X11939236Y-9202888D02*
G01X11932124Y-9196030D01*
G01X11925012Y-9192474D01*
G01X11914598Y-9192474D01*
G01X11907740Y-9196030D01*
G01X11900628Y-9202888D01*
G01X11897072Y-9213556D01*
G01X11897072Y-9220414D01*
G01X11900628Y-9231082D01*
G01X11907740Y-9237940D01*
G01X11914598Y-9241496D01*
G01X11925012Y-9241496D01*
G01X11932124Y-9237940D01*
G01X11939236Y-9231082D01*
G01X11970986Y-9168090D02*
G01X11970986Y-9241496D01*
G01X11970986Y-9206444D02*
G01X11981654Y-9196030D01*
G01X11988512Y-9192474D01*
G01X11998926Y-9192474D01*
G01X12006038Y-9196030D01*
G01X12009594Y-9206444D01*
G01X12009594Y-9241496D01*
G01X12052012Y-9168090D02*
G01X12052012Y-9227526D01*
G01X12055314Y-9237940D01*
G01X12062426Y-9241496D01*
G01X12069284Y-9241496D01*
G01X12041344Y-9192474D02*
G01X12065982Y-9192474D01*
G01X12179520Y-9213556D02*
G01X12221430Y-9213556D01*
G01X12221430Y-9206444D01*
G01X12217874Y-9199586D01*
G01X12214572Y-9196030D01*
G01X12207460Y-9192474D01*
G01X12197046Y-9192474D01*
G01X12189934Y-9196030D01*
G01X12183076Y-9202888D01*
G01X12179520Y-9213556D01*
G01X12179520Y-9220414D01*
G01X12183076Y-9231082D01*
G01X12189934Y-9237940D01*
G01X12197046Y-9241496D01*
G01X12207460Y-9241496D01*
G01X12214572Y-9237940D01*
G01X12221430Y-9231082D01*
G01X12253180Y-9192474D02*
G01X12253180Y-9241496D01*
G01X12253180Y-9206444D02*
G01X12263848Y-9196030D01*
G01X12270706Y-9192474D01*
G01X12281120Y-9192474D01*
G01X12288232Y-9196030D01*
G01X12291788Y-9206444D01*
G01X12291788Y-9241496D01*
G01X12291788Y-9206444D02*
G01X12302202Y-9196030D01*
G01X12309314Y-9192474D01*
G01X12319728Y-9192474D01*
G01X12326840Y-9196030D01*
G01X12330142Y-9206444D01*
G01X12330142Y-9241496D01*
G01X12361892Y-9168090D02*
G01X12365448Y-9171392D01*
G01X12369004Y-9168090D01*
G01X12365448Y-9164534D01*
G01X12361892Y-9168090D01*
G01X12365448Y-9192474D02*
G01X12365448Y-9241496D01*
G01X12411422Y-9168090D02*
G01X12411422Y-9227526D01*
G01X12414724Y-9237940D01*
G01X12421836Y-9241496D01*
G01X12428694Y-9241496D01*
G01X12400754Y-9192474D02*
G01X12425392Y-9192474D01*
G01X12471112Y-9168090D02*
G01X12471112Y-9227526D01*
G01X12474414Y-9237940D01*
G01X12481526Y-9241496D01*
G01X12488384Y-9241496D01*
G01X12460444Y-9192474D02*
G01X12485082Y-9192474D01*
G01X12520134Y-9168090D02*
G01X12523690Y-9171392D01*
G01X12527246Y-9168090D01*
G01X12523690Y-9164534D01*
G01X12520134Y-9168090D01*
G01X12523690Y-9192474D02*
G01X12523690Y-9241496D01*
G01X12558996Y-9192474D02*
G01X12558996Y-9241496D01*
G01X12558996Y-9206444D02*
G01X12569664Y-9196030D01*
G01X12576522Y-9192474D01*
G01X12586936Y-9192474D01*
G01X12594048Y-9196030D01*
G01X12597604Y-9206444D01*
G01X12597604Y-9241496D01*
G01X12671518Y-9192474D02*
G01X12671518Y-9248608D01*
G01X12667962Y-9259022D01*
G01X12664406Y-9262578D01*
G01X12657294Y-9265880D01*
G01X12646880Y-9265880D01*
G01X12640022Y-9262578D01*
G01X12671518Y-9202888D02*
G01X12664406Y-9196030D01*
G01X12657294Y-9192474D01*
G01X12646880Y-9192474D01*
G01X12640022Y-9196030D01*
G01X12632910Y-9202888D01*
G01X12629354Y-9213556D01*
G01X12629354Y-9220414D01*
G01X12632910Y-9231082D01*
G01X12640022Y-9237940D01*
G01X12646880Y-9241496D01*
G01X12657294Y-9241496D01*
G01X12664406Y-9237940D01*
G01X12671518Y-9231082D01*
G01X12823664Y-9168090D02*
G01X12823664Y-9241496D01*
G01X12823664Y-9202888D02*
G01X12816806Y-9196030D01*
G01X12809694Y-9192474D01*
G01X12799280Y-9192474D01*
G01X12792168Y-9196030D01*
G01X12785310Y-9202888D01*
G01X12781754Y-9213556D01*
G01X12781754Y-9220414D01*
G01X12785310Y-9231082D01*
G01X12792168Y-9237940D01*
G01X12799280Y-9241496D01*
G01X12809694Y-9241496D01*
G01X12816806Y-9237940D01*
G01X12823664Y-9231082D01*
G01X12855414Y-9168090D02*
G01X12858970Y-9171392D01*
G01X12862526Y-9168090D01*
G01X12858970Y-9164534D01*
G01X12855414Y-9168090D01*
G01X12858970Y-9192474D02*
G01X12858970Y-9241496D01*
G01X12911802Y-9192474D02*
G01X12904944Y-9196030D01*
G01X12897832Y-9202888D01*
G01X12894276Y-9213556D01*
G01X12894276Y-9220414D01*
G01X12897832Y-9231082D01*
G01X12904944Y-9237940D01*
G01X12911802Y-9241496D01*
G01X12922216Y-9241496D01*
G01X12929328Y-9237940D01*
G01X12936440Y-9231082D01*
G01X12939742Y-9220414D01*
G01X12939742Y-9213556D01*
G01X12936440Y-9202888D01*
G01X12929328Y-9196030D01*
G01X12922216Y-9192474D01*
G01X12911802Y-9192474D01*
G01X13013656Y-9168090D02*
G01X13013656Y-9241496D01*
G01X13013656Y-9202888D02*
G01X13006544Y-9196030D01*
G01X12999432Y-9192474D01*
G01X12989018Y-9192474D01*
G01X12982160Y-9196030D01*
G01X12975048Y-9202888D01*
G01X12971492Y-9213556D01*
G01X12971492Y-9220414D01*
G01X12975048Y-9231082D01*
G01X12982160Y-9237940D01*
G01X12989018Y-9241496D01*
G01X12999432Y-9241496D01*
G01X13006544Y-9237940D01*
G01X13013656Y-9231082D01*
G01X13045406Y-9213556D02*
G01X13087570Y-9213556D01*
G01X13087570Y-9206444D01*
G01X13084014Y-9199586D01*
G01X13080458Y-9196030D01*
G01X13073346Y-9192474D01*
G01X13062932Y-9192474D01*
G01X13056074Y-9196030D01*
G01X13048962Y-9202888D01*
G01X13045406Y-9213556D01*
G01X13045406Y-9220414D01*
G01X13048962Y-9231082D01*
G01X13056074Y-9237940D01*
G01X13062932Y-9241496D01*
G01X13073346Y-9241496D01*
G01X13080458Y-9237940D01*
G01X13087570Y-9231082D01*
G54D12*
G01X11335411Y-9165112D02*
G01X11335411Y-9243852D01*
G01X11335411Y-9243852D02*
G01X11380369Y-9243852D01*
G01X11428375Y-9165112D02*
G01X11428375Y-9243852D01*
G01X11428375Y-9165112D02*
G01X11477143Y-9165112D01*
G01X11428375Y-9202450D02*
G01X11458347Y-9202450D01*
G01X11428375Y-9243852D02*
G01X11477143Y-9243852D01*
G01X11525149Y-9165112D02*
G01X11525149Y-9243852D01*
G01X11525149Y-9165112D02*
G01X11551311Y-9165112D01*
G01X11562741Y-9168668D01*
G01X11570107Y-9176288D01*
G01X11573917Y-9183654D01*
G01X11577727Y-9195084D01*
G01X11577727Y-9213626D01*
G01X11573917Y-9225056D01*
G01X11570107Y-9232422D01*
G01X11562741Y-9240042D01*
G01X11551311Y-9243852D01*
G01X11525149Y-9243852D01*
G01X11644529Y-9187464D02*
G01X11644529Y-9232422D01*
G01X11625733Y-9198640D02*
G01X11663325Y-9221246D01*
G01X11663325Y-9198640D02*
G01X11625733Y-9221246D01*
G01X11795405Y-9165112D02*
G01X11795405Y-9243852D01*
G01X11795405Y-9243852D02*
G01X11840363Y-9243852D01*
G01X11888369Y-9165112D02*
G01X11888369Y-9243852D01*
G01X11888369Y-9165112D02*
G01X11937137Y-9165112D01*
G01X11888369Y-9202450D02*
G01X11918341Y-9202450D01*
G01X11888369Y-9243852D02*
G01X11937137Y-9243852D01*
G01X11985143Y-9165112D02*
G01X11985143Y-9243852D01*
G01X11985143Y-9165112D02*
G01X12011305Y-9165112D01*
G01X12022735Y-9168668D01*
G01X12030101Y-9176288D01*
G01X12033911Y-9183654D01*
G01X12037721Y-9195084D01*
G01X12037721Y-9213626D01*
G01X12033911Y-9225056D01*
G01X12030101Y-9232422D01*
G01X12022735Y-9240042D01*
G01X12011305Y-9243852D01*
G01X11985143Y-9243852D01*
G01X12085727Y-9270014D02*
G01X12153291Y-9270014D01*
G01X12253875Y-9176288D02*
G01X12246255Y-9168668D01*
G01X12235079Y-9165112D01*
G01X12220093Y-9165112D01*
G01X12208917Y-9168668D01*
G01X12201297Y-9176288D01*
G01X12201297Y-9183654D01*
G01X12205107Y-9191274D01*
G01X12208917Y-9195084D01*
G01X12216283Y-9198640D01*
G01X12238889Y-9206260D01*
G01X12246255Y-9210070D01*
G01X12250065Y-9213626D01*
G01X12253875Y-9221246D01*
G01X12253875Y-9232422D01*
G01X12246255Y-9240042D01*
G01X12235079Y-9243852D01*
G01X12220093Y-9243852D01*
G01X12208917Y-9240042D01*
G01X12201297Y-9232422D01*
G01X12301881Y-9165112D02*
G01X12301881Y-9243852D01*
G01X12301881Y-9165112D02*
G01X12331853Y-9243852D01*
G01X12361825Y-9165112D02*
G01X12331853Y-9243852D01*
G01X12361825Y-9165112D02*
G01X12361825Y-9243852D01*
G01X12409831Y-9165112D02*
G01X12409831Y-9243852D01*
G01X12409831Y-9165112D02*
G01X12435993Y-9165112D01*
G01X12447423Y-9168668D01*
G01X12454789Y-9176288D01*
G01X12458599Y-9183654D01*
G01X12462409Y-9195084D01*
G01X12462409Y-9213626D01*
G01X12458599Y-9225056D01*
G01X12454789Y-9232422D01*
G01X12447423Y-9240042D01*
G01X12435993Y-9243852D01*
G01X12409831Y-9243852D01*
G01X12514225Y-9198640D02*
G01X12510415Y-9202450D01*
G01X12514225Y-9206260D01*
G01X12518035Y-9202450D01*
G01X12514225Y-9198640D01*
G01X12514225Y-9225056D02*
G01X12510415Y-9228866D01*
G01X12514225Y-9232422D01*
G01X12518035Y-9228866D01*
G01X12514225Y-9225056D01*
G01X12584837Y-9187464D02*
G01X12584837Y-9232422D01*
G01X12566041Y-9198640D02*
G01X12603633Y-9221246D01*
G01X12603633Y-9198640D02*
G01X12566041Y-9221246D01*
G01X12735713Y-9165112D02*
G01X12735713Y-9243852D01*
G01X12735713Y-9243852D02*
G01X12780671Y-9243852D01*
G01X12828677Y-9165112D02*
G01X12828677Y-9243852D01*
G01X12828677Y-9165112D02*
G01X12877445Y-9165112D01*
G01X12828677Y-9202450D02*
G01X12858649Y-9202450D01*
G01X12828677Y-9243852D02*
G01X12877445Y-9243852D01*
G01X12925451Y-9165112D02*
G01X12925451Y-9243852D01*
G01X12925451Y-9165112D02*
G01X12951613Y-9165112D01*
G01X12963043Y-9168668D01*
G01X12970409Y-9176288D01*
G01X12974219Y-9183654D01*
G01X12978029Y-9195084D01*
G01X12978029Y-9213626D01*
G01X12974219Y-9225056D01*
G01X12970409Y-9232422D01*
G01X12963043Y-9240042D01*
G01X12951613Y-9243852D01*
G01X12925451Y-9243852D01*
G01X13026035Y-9270014D02*
G01X13093599Y-9270014D01*
G01X13167767Y-9165112D02*
G01X13167767Y-9243852D01*
G01X13141605Y-9165112D02*
G01X13194183Y-9165112D01*
G01X13242189Y-9165112D02*
G01X13242189Y-9243852D01*
G01X13294767Y-9165112D02*
G01X13294767Y-9243852D01*
G01X13242189Y-9202450D02*
G01X13294767Y-9202450D01*
G01X13368935Y-9165112D02*
G01X13368935Y-9243852D01*
G01X13342773Y-9165112D02*
G01X13395351Y-9165112D01*
G01X13447167Y-9198640D02*
G01X13443357Y-9202450D01*
G01X13447167Y-9206260D01*
G01X13450977Y-9202450D01*
G01X13447167Y-9198640D01*
G01X13447167Y-9225056D02*
G01X13443357Y-9228866D01*
G01X13447167Y-9232422D01*
G01X13450977Y-9228866D01*
G01X13447167Y-9225056D01*
G01X13517779Y-9187464D02*
G01X13517779Y-9232422D01*
G01X13498983Y-9198640D02*
G01X13536575Y-9221246D01*
G01X13536575Y-9198640D02*
G01X13498983Y-9221246D01*
G54D11*
G01X13477558Y-9464212D02*
G01X13477558Y-9519838D01*
G01X13477558Y-9519838D02*
G01X13509308Y-9519838D01*
G01X13536994Y-9464212D02*
G01X13536994Y-9519838D01*
G01X13536994Y-9464212D02*
G01X13571538Y-9464212D01*
G01X13536994Y-9490628D02*
G01X13558330Y-9490628D01*
G01X13536994Y-9519838D02*
G01X13571538Y-9519838D01*
G01X13599224Y-9464212D02*
G01X13599224Y-9519838D01*
G01X13599224Y-9464212D02*
G01X13617766Y-9464212D01*
G01X13625894Y-9466752D01*
G01X13631228Y-9472086D01*
G01X13633768Y-9477420D01*
G01X13636562Y-9485294D01*
G01X13636562Y-9498756D01*
G01X13633768Y-9506630D01*
G01X13631228Y-9511964D01*
G01X13625894Y-9517298D01*
G01X13617766Y-9519838D01*
G01X13599224Y-9519838D01*
G54D13*
G01X13448971Y-9174468D02*
G01X13448971Y-9219172D01*
G01X13448971Y-9174468D02*
G01X13468021Y-9174468D01*
G01X13474371Y-9176500D01*
G01X13476403Y-9178786D01*
G01X13478689Y-9183104D01*
G01X13478689Y-9187168D01*
G01X13476403Y-9191486D01*
G01X13474371Y-9193518D01*
G01X13468021Y-9195804D01*
G01X13448971Y-9195804D01*
G01X13463703Y-9195804D02*
G01X13478689Y-9219172D01*
G01X13500787Y-9174468D02*
G01X13500787Y-9219172D01*
G01X13500787Y-9174468D02*
G01X13528473Y-9174468D01*
G01X13500787Y-9195804D02*
G01X13517805Y-9195804D01*
G01X13500787Y-9219172D02*
G01X13528473Y-9219172D01*
G01X13550571Y-9174468D02*
G01X13550571Y-9219172D01*
G01X13550571Y-9174468D02*
G01X13578257Y-9174468D01*
G01X13550571Y-9195804D02*
G01X13567589Y-9195804D01*
G01X13611023Y-9187168D02*
G01X13611023Y-9212822D01*
G01X13600355Y-9193518D02*
G01X13621691Y-9206472D01*
G01X13621691Y-9193518D02*
G01X13600355Y-9206472D01*
G01X13654457Y-9187168D02*
G01X13654457Y-9212822D01*
G01X13643789Y-9193518D02*
G01X13665125Y-9206472D01*
G01X13665125Y-9193518D02*
G01X13643789Y-9206472D01*
G54D11*
G01X12729528Y-9158090D02*
G01X12729528Y-9231496D01*
G01X12729528Y-9231496D02*
G01X12771438Y-9231496D01*
G01X12803188Y-9158090D02*
G01X12803188Y-9231496D01*
G01X12803188Y-9158090D02*
G01X12848654Y-9158090D01*
G01X12803188Y-9192888D02*
G01X12831128Y-9192888D01*
G01X12803188Y-9231496D02*
G01X12848654Y-9231496D01*
G01X12880404Y-9158090D02*
G01X12880404Y-9231496D01*
G01X12880404Y-9158090D02*
G01X12905042Y-9158090D01*
G01X12915456Y-9161392D01*
G01X12922568Y-9168504D01*
G01X12925870Y-9175616D01*
G01X12929426Y-9186030D01*
G01X12929426Y-9203556D01*
G01X12925870Y-9213970D01*
G01X12922568Y-9221082D01*
G01X12915456Y-9227940D01*
G01X12905042Y-9231496D01*
G01X12880404Y-9231496D01*
G01X12961176Y-9255880D02*
G01X13024168Y-9255880D01*
G01X13080556Y-9158090D02*
G01X13080556Y-9231496D01*
G01X13055918Y-9158090D02*
G01X13104940Y-9158090D01*
G01X13136690Y-9158090D02*
G01X13136690Y-9231496D01*
G01X13185712Y-9158090D02*
G01X13185712Y-9231496D01*
G01X13136690Y-9192888D02*
G01X13185712Y-9192888D01*
G01X13242100Y-9158090D02*
G01X13242100Y-9231496D01*
G01X13217462Y-9158090D02*
G01X13266484Y-9158090D01*
G01X13301790Y-9189586D02*
G01X13298234Y-9192888D01*
G01X13301790Y-9196444D01*
G01X13305346Y-9192888D01*
G01X13301790Y-9189586D01*
G01X13301790Y-9213970D02*
G01X13298234Y-9217526D01*
G01X13301790Y-9221082D01*
G01X13305346Y-9217526D01*
G01X13301790Y-9213970D01*
G01X13337096Y-9158090D02*
G01X13337096Y-9231496D01*
G01X13337096Y-9231496D02*
G01X13379260Y-9231496D01*
G01X13411010Y-9158090D02*
G01X13411010Y-9231496D01*
G01X13411010Y-9158090D02*
G01X13456476Y-9158090D01*
G01X13411010Y-9192888D02*
G01X13438950Y-9192888D01*
G01X13411010Y-9231496D02*
G01X13456476Y-9231496D01*
G01X13488226Y-9158090D02*
G01X13488226Y-9231496D01*
G01X13488226Y-9158090D02*
G01X13512864Y-9158090D01*
G01X13523278Y-9161392D01*
G01X13530390Y-9168504D01*
G01X13533692Y-9175616D01*
G01X13537248Y-9186030D01*
G01X13537248Y-9203556D01*
G01X13533692Y-9213970D01*
G01X13530390Y-9221082D01*
G01X13523278Y-9227940D01*
G01X13512864Y-9231496D01*
G01X13488226Y-9231496D01*
G01X13568998Y-9255880D02*
G01X13631990Y-9255880D01*
G01X13663740Y-9158090D02*
G01X13663740Y-9231496D01*
G01X13663740Y-9158090D02*
G01X13688378Y-9158090D01*
G01X13698792Y-9161392D01*
G01X13705904Y-9168504D01*
G01X13709206Y-9175616D01*
G01X13712762Y-9186030D01*
G01X13712762Y-9203556D01*
G01X13709206Y-9213970D01*
G01X13705904Y-9221082D01*
G01X13698792Y-9227940D01*
G01X13688378Y-9231496D01*
G01X13663740Y-9231496D01*
G01X13751624Y-9158090D02*
G01X13789978Y-9158090D01*
G01X13769150Y-9186030D01*
G01X13779564Y-9186030D01*
G01X13786676Y-9189586D01*
G01X13789978Y-9192888D01*
G01X13793534Y-9203556D01*
G01X13793534Y-9210414D01*
G01X13789978Y-9221082D01*
G01X13783120Y-9227940D01*
G01X13772452Y-9231496D01*
G01X13762038Y-9231496D01*
G01X13751624Y-9227940D01*
G01X13748068Y-9224384D01*
G01X13744512Y-9217526D01*
G01X13828840Y-9213970D02*
G01X13825284Y-9217526D01*
G01X13828840Y-9221082D01*
G01X13832396Y-9217526D01*
G01X13828840Y-9213970D01*
G01X13885228Y-9158090D02*
G01X13874814Y-9161392D01*
G01X13867702Y-9172060D01*
G01X13864146Y-9189586D01*
G01X13864146Y-9200000D01*
G01X13867702Y-9217526D01*
G01X13874814Y-9227940D01*
G01X13885228Y-9231496D01*
G01X13892086Y-9231496D01*
G01X13902754Y-9227940D01*
G01X13909612Y-9217526D01*
G01X13913168Y-9200000D01*
G01X13913168Y-9189586D01*
G01X13909612Y-9172060D01*
G01X13902754Y-9161392D01*
G01X13892086Y-9158090D01*
G01X13885228Y-9158090D01*
G01X13944918Y-9182474D02*
G01X13944918Y-9231496D01*
G01X13944918Y-9196444D02*
G01X13955586Y-9186030D01*
G01X13962444Y-9182474D01*
G01X13972858Y-9182474D01*
G01X13979970Y-9186030D01*
G01X13983526Y-9196444D01*
G01X13983526Y-9231496D01*
G01X13983526Y-9196444D02*
G01X13993940Y-9186030D01*
G01X14001052Y-9182474D01*
G01X14011466Y-9182474D01*
G01X14018578Y-9186030D01*
G01X14021880Y-9196444D01*
G01X14021880Y-9231496D01*
G01X14053630Y-9182474D02*
G01X14053630Y-9231496D01*
G01X14053630Y-9196444D02*
G01X14064298Y-9186030D01*
G01X14071156Y-9182474D01*
G01X14081570Y-9182474D01*
G01X14088682Y-9186030D01*
G01X14092238Y-9196444D01*
G01X14092238Y-9231496D01*
G01X14092238Y-9196444D02*
G01X14102652Y-9186030D01*
G01X14109764Y-9182474D01*
G01X14120178Y-9182474D01*
G01X14127290Y-9186030D01*
G01X14130592Y-9196444D01*
G01X14130592Y-9231496D01*
G01X12778550Y-9158090D02*
G01X12778550Y-9231496D01*
G01X12778550Y-9231496D02*
G01X12820460Y-9231496D01*
G01X12852210Y-9158090D02*
G01X12855766Y-9161392D01*
G01X12859322Y-9158090D01*
G01X12855766Y-9154534D01*
G01X12852210Y-9158090D01*
G01X12855766Y-9182474D02*
G01X12855766Y-9231496D01*
G01X12933236Y-9182474D02*
G01X12933236Y-9238608D01*
G01X12929680Y-9249022D01*
G01X12926124Y-9252578D01*
G01X12919012Y-9255880D01*
G01X12908598Y-9255880D01*
G01X12901740Y-9252578D01*
G01X12933236Y-9192888D02*
G01X12926124Y-9186030D01*
G01X12919012Y-9182474D01*
G01X12908598Y-9182474D01*
G01X12901740Y-9186030D01*
G01X12894628Y-9192888D01*
G01X12891072Y-9203556D01*
G01X12891072Y-9210414D01*
G01X12894628Y-9221082D01*
G01X12901740Y-9227940D01*
G01X12908598Y-9231496D01*
G01X12919012Y-9231496D01*
G01X12926124Y-9227940D01*
G01X12933236Y-9221082D01*
G01X12964986Y-9158090D02*
G01X12964986Y-9231496D01*
G01X12964986Y-9196444D02*
G01X12975654Y-9186030D01*
G01X12982512Y-9182474D01*
G01X12992926Y-9182474D01*
G01X13000038Y-9186030D01*
G01X13003594Y-9196444D01*
G01X13003594Y-9231496D01*
G01X13046012Y-9158090D02*
G01X13046012Y-9217526D01*
G01X13049314Y-9227940D01*
G01X13056426Y-9231496D01*
G01X13063284Y-9231496D01*
G01X13035344Y-9182474D02*
G01X13059982Y-9182474D01*
G01X13173520Y-9203556D02*
G01X13215430Y-9203556D01*
G01X13215430Y-9196444D01*
G01X13211874Y-9189586D01*
G01X13208572Y-9186030D01*
G01X13201460Y-9182474D01*
G01X13191046Y-9182474D01*
G01X13183934Y-9186030D01*
G01X13177076Y-9192888D01*
G01X13173520Y-9203556D01*
G01X13173520Y-9210414D01*
G01X13177076Y-9221082D01*
G01X13183934Y-9227940D01*
G01X13191046Y-9231496D01*
G01X13201460Y-9231496D01*
G01X13208572Y-9227940D01*
G01X13215430Y-9221082D01*
G01X13247180Y-9182474D02*
G01X13247180Y-9231496D01*
G01X13247180Y-9196444D02*
G01X13257848Y-9186030D01*
G01X13264706Y-9182474D01*
G01X13275120Y-9182474D01*
G01X13282232Y-9186030D01*
G01X13285788Y-9196444D01*
G01X13285788Y-9231496D01*
G01X13285788Y-9196444D02*
G01X13296202Y-9186030D01*
G01X13303314Y-9182474D01*
G01X13313728Y-9182474D01*
G01X13320840Y-9186030D01*
G01X13324142Y-9196444D01*
G01X13324142Y-9231496D01*
G01X13355892Y-9158090D02*
G01X13359448Y-9161392D01*
G01X13363004Y-9158090D01*
G01X13359448Y-9154534D01*
G01X13355892Y-9158090D01*
G01X13359448Y-9182474D02*
G01X13359448Y-9231496D01*
G01X13405422Y-9158090D02*
G01X13405422Y-9217526D01*
G01X13408724Y-9227940D01*
G01X13415836Y-9231496D01*
G01X13422694Y-9231496D01*
G01X13394754Y-9182474D02*
G01X13419392Y-9182474D01*
G01X13465112Y-9158090D02*
G01X13465112Y-9217526D01*
G01X13468414Y-9227940D01*
G01X13475526Y-9231496D01*
G01X13482384Y-9231496D01*
G01X13454444Y-9182474D02*
G01X13479082Y-9182474D01*
G01X13514134Y-9158090D02*
G01X13517690Y-9161392D01*
G01X13521246Y-9158090D01*
G01X13517690Y-9154534D01*
G01X13514134Y-9158090D01*
G01X13517690Y-9182474D02*
G01X13517690Y-9231496D01*
G01X13552996Y-9182474D02*
G01X13552996Y-9231496D01*
G01X13552996Y-9196444D02*
G01X13563664Y-9186030D01*
G01X13570522Y-9182474D01*
G01X13580936Y-9182474D01*
G01X13588048Y-9186030D01*
G01X13591604Y-9196444D01*
G01X13591604Y-9231496D01*
G01X13665518Y-9182474D02*
G01X13665518Y-9238608D01*
G01X13661962Y-9249022D01*
G01X13658406Y-9252578D01*
G01X13651294Y-9255880D01*
G01X13640880Y-9255880D01*
G01X13634022Y-9252578D01*
G01X13665518Y-9192888D02*
G01X13658406Y-9186030D01*
G01X13651294Y-9182474D01*
G01X13640880Y-9182474D01*
G01X13634022Y-9186030D01*
G01X13626910Y-9192888D01*
G01X13623354Y-9203556D01*
G01X13623354Y-9210414D01*
G01X13626910Y-9221082D01*
G01X13634022Y-9227940D01*
G01X13640880Y-9231496D01*
G01X13651294Y-9231496D01*
G01X13658406Y-9227940D01*
G01X13665518Y-9221082D01*
G01X13817664Y-9158090D02*
G01X13817664Y-9231496D01*
G01X13817664Y-9192888D02*
G01X13810806Y-9186030D01*
G01X13803694Y-9182474D01*
G01X13793280Y-9182474D01*
G01X13786168Y-9186030D01*
G01X13779310Y-9192888D01*
G01X13775754Y-9203556D01*
G01X13775754Y-9210414D01*
G01X13779310Y-9221082D01*
G01X13786168Y-9227940D01*
G01X13793280Y-9231496D01*
G01X13803694Y-9231496D01*
G01X13810806Y-9227940D01*
G01X13817664Y-9221082D01*
G01X13849414Y-9158090D02*
G01X13852970Y-9161392D01*
G01X13856526Y-9158090D01*
G01X13852970Y-9154534D01*
G01X13849414Y-9158090D01*
G01X13852970Y-9182474D02*
G01X13852970Y-9231496D01*
G01X13905802Y-9182474D02*
G01X13898944Y-9186030D01*
G01X13891832Y-9192888D01*
G01X13888276Y-9203556D01*
G01X13888276Y-9210414D01*
G01X13891832Y-9221082D01*
G01X13898944Y-9227940D01*
G01X13905802Y-9231496D01*
G01X13916216Y-9231496D01*
G01X13923328Y-9227940D01*
G01X13930440Y-9221082D01*
G01X13933742Y-9210414D01*
G01X13933742Y-9203556D01*
G01X13930440Y-9192888D01*
G01X13923328Y-9186030D01*
G01X13916216Y-9182474D01*
G01X13905802Y-9182474D01*
G01X14007656Y-9158090D02*
G01X14007656Y-9231496D01*
G01X14007656Y-9192888D02*
G01X14000544Y-9186030D01*
G01X13993432Y-9182474D01*
G01X13983018Y-9182474D01*
G01X13976160Y-9186030D01*
G01X13969048Y-9192888D01*
G01X13965492Y-9203556D01*
G01X13965492Y-9210414D01*
G01X13969048Y-9221082D01*
G01X13976160Y-9227940D01*
G01X13983018Y-9231496D01*
G01X13993432Y-9231496D01*
G01X14000544Y-9227940D01*
G01X14007656Y-9221082D01*
G01X14039406Y-9203556D02*
G01X14081570Y-9203556D01*
G01X14081570Y-9196444D01*
G01X14078014Y-9189586D01*
G01X14074458Y-9186030D01*
G01X14067346Y-9182474D01*
G01X14056932Y-9182474D01*
G01X14050074Y-9186030D01*
G01X14042962Y-9192888D01*
G01X14039406Y-9203556D01*
G01X14039406Y-9210414D01*
G01X14042962Y-9221082D01*
G01X14050074Y-9227940D01*
G01X14056932Y-9231496D01*
G01X14067346Y-9231496D01*
G01X14074458Y-9227940D01*
G01X14081570Y-9221082D01*
G54D12*
G01X12329411Y-9155112D02*
G01X12329411Y-9233852D01*
G01X12329411Y-9233852D02*
G01X12374369Y-9233852D01*
G01X12422375Y-9155112D02*
G01X12422375Y-9233852D01*
G01X12422375Y-9155112D02*
G01X12471143Y-9155112D01*
G01X12422375Y-9192450D02*
G01X12452347Y-9192450D01*
G01X12422375Y-9233852D02*
G01X12471143Y-9233852D01*
G01X12519149Y-9155112D02*
G01X12519149Y-9233852D01*
G01X12519149Y-9155112D02*
G01X12545311Y-9155112D01*
G01X12556741Y-9158668D01*
G01X12564107Y-9166288D01*
G01X12567917Y-9173654D01*
G01X12571727Y-9185084D01*
G01X12571727Y-9203626D01*
G01X12567917Y-9215056D01*
G01X12564107Y-9222422D01*
G01X12556741Y-9230042D01*
G01X12545311Y-9233852D01*
G01X12519149Y-9233852D01*
G01X12638529Y-9177464D02*
G01X12638529Y-9222422D01*
G01X12619733Y-9188640D02*
G01X12657325Y-9211246D01*
G01X12657325Y-9188640D02*
G01X12619733Y-9211246D01*
G01X12789405Y-9155112D02*
G01X12789405Y-9233852D01*
G01X12789405Y-9233852D02*
G01X12834363Y-9233852D01*
G01X12882369Y-9155112D02*
G01X12882369Y-9233852D01*
G01X12882369Y-9155112D02*
G01X12931137Y-9155112D01*
G01X12882369Y-9192450D02*
G01X12912341Y-9192450D01*
G01X12882369Y-9233852D02*
G01X12931137Y-9233852D01*
G01X12979143Y-9155112D02*
G01X12979143Y-9233852D01*
G01X12979143Y-9155112D02*
G01X13005305Y-9155112D01*
G01X13016735Y-9158668D01*
G01X13024101Y-9166288D01*
G01X13027911Y-9173654D01*
G01X13031721Y-9185084D01*
G01X13031721Y-9203626D01*
G01X13027911Y-9215056D01*
G01X13024101Y-9222422D01*
G01X13016735Y-9230042D01*
G01X13005305Y-9233852D01*
G01X12979143Y-9233852D01*
G01X13079727Y-9260014D02*
G01X13147291Y-9260014D01*
G01X13247875Y-9166288D02*
G01X13240255Y-9158668D01*
G01X13229079Y-9155112D01*
G01X13214093Y-9155112D01*
G01X13202917Y-9158668D01*
G01X13195297Y-9166288D01*
G01X13195297Y-9173654D01*
G01X13199107Y-9181274D01*
G01X13202917Y-9185084D01*
G01X13210283Y-9188640D01*
G01X13232889Y-9196260D01*
G01X13240255Y-9200070D01*
G01X13244065Y-9203626D01*
G01X13247875Y-9211246D01*
G01X13247875Y-9222422D01*
G01X13240255Y-9230042D01*
G01X13229079Y-9233852D01*
G01X13214093Y-9233852D01*
G01X13202917Y-9230042D01*
G01X13195297Y-9222422D01*
G01X13295881Y-9155112D02*
G01X13295881Y-9233852D01*
G01X13295881Y-9155112D02*
G01X13325853Y-9233852D01*
G01X13355825Y-9155112D02*
G01X13325853Y-9233852D01*
G01X13355825Y-9155112D02*
G01X13355825Y-9233852D01*
G01X13403831Y-9155112D02*
G01X13403831Y-9233852D01*
G01X13403831Y-9155112D02*
G01X13429993Y-9155112D01*
G01X13441423Y-9158668D01*
G01X13448789Y-9166288D01*
G01X13452599Y-9173654D01*
G01X13456409Y-9185084D01*
G01X13456409Y-9203626D01*
G01X13452599Y-9215056D01*
G01X13448789Y-9222422D01*
G01X13441423Y-9230042D01*
G01X13429993Y-9233852D01*
G01X13403831Y-9233852D01*
G01X13508225Y-9188640D02*
G01X13504415Y-9192450D01*
G01X13508225Y-9196260D01*
G01X13512035Y-9192450D01*
G01X13508225Y-9188640D01*
G01X13508225Y-9215056D02*
G01X13504415Y-9218866D01*
G01X13508225Y-9222422D01*
G01X13512035Y-9218866D01*
G01X13508225Y-9215056D01*
G01X13578837Y-9177464D02*
G01X13578837Y-9222422D01*
G01X13560041Y-9188640D02*
G01X13597633Y-9211246D01*
G01X13597633Y-9188640D02*
G01X13560041Y-9211246D01*
G01X13729713Y-9155112D02*
G01X13729713Y-9233852D01*
G01X13729713Y-9233852D02*
G01X13774671Y-9233852D01*
G01X13822677Y-9155112D02*
G01X13822677Y-9233852D01*
G01X13822677Y-9155112D02*
G01X13871445Y-9155112D01*
G01X13822677Y-9192450D02*
G01X13852649Y-9192450D01*
G01X13822677Y-9233852D02*
G01X13871445Y-9233852D01*
G01X13919451Y-9155112D02*
G01X13919451Y-9233852D01*
G01X13919451Y-9155112D02*
G01X13945613Y-9155112D01*
G01X13957043Y-9158668D01*
G01X13964409Y-9166288D01*
G01X13968219Y-9173654D01*
G01X13972029Y-9185084D01*
G01X13972029Y-9203626D01*
G01X13968219Y-9215056D01*
G01X13964409Y-9222422D01*
G01X13957043Y-9230042D01*
G01X13945613Y-9233852D01*
G01X13919451Y-9233852D01*
G01X14020035Y-9260014D02*
G01X14087599Y-9260014D01*
G01X14161767Y-9155112D02*
G01X14161767Y-9233852D01*
G01X14135605Y-9155112D02*
G01X14188183Y-9155112D01*
G01X14236189Y-9155112D02*
G01X14236189Y-9233852D01*
G01X14288767Y-9155112D02*
G01X14288767Y-9233852D01*
G01X14236189Y-9192450D02*
G01X14288767Y-9192450D01*
G01X14362935Y-9155112D02*
G01X14362935Y-9233852D01*
G01X14336773Y-9155112D02*
G01X14389351Y-9155112D01*
G01X14441167Y-9188640D02*
G01X14437357Y-9192450D01*
G01X14441167Y-9196260D01*
G01X14444977Y-9192450D01*
G01X14441167Y-9188640D01*
G01X14441167Y-9215056D02*
G01X14437357Y-9218866D01*
G01X14441167Y-9222422D01*
G01X14444977Y-9218866D01*
G01X14441167Y-9215056D01*
G01X14511779Y-9177464D02*
G01X14511779Y-9222422D01*
G01X14492983Y-9188640D02*
G01X14530575Y-9211246D01*
G01X14530575Y-9188640D02*
G01X14492983Y-9211246D01*
G01X14287120Y-9904112D02*
G01X14287120Y-9982852D01*
G01X14287120Y-9904112D02*
G01X14320902Y-9904112D01*
G01X14332078Y-9907668D01*
G01X14335888Y-9911478D01*
G01X14339698Y-9919098D01*
G01X14339698Y-9926464D01*
G01X14335888Y-9934084D01*
G01X14332078Y-9937640D01*
G01X14320902Y-9941450D01*
G01X14287120Y-9941450D01*
G01X14313282Y-9941450D02*
G01X14339698Y-9982852D01*
G01X14387704Y-10009014D02*
G01X14455268Y-10009014D01*
G01X14522070Y-9926464D02*
G01X14522070Y-9971422D01*
G01X14503274Y-9937640D02*
G01X14540866Y-9960246D01*
G01X14540866Y-9937640D02*
G01X14503274Y-9960246D01*
G01X14287120Y-10199112D02*
G01X14287120Y-10277852D01*
G01X14287120Y-10199112D02*
G01X14320902Y-10199112D01*
G01X14332078Y-10202668D01*
G01X14335888Y-10206478D01*
G01X14339698Y-10214098D01*
G01X14339698Y-10221464D01*
G01X14335888Y-10229084D01*
G01X14332078Y-10232640D01*
G01X14320902Y-10236450D01*
G01X14287120Y-10236450D01*
G01X14313282Y-10236450D02*
G01X14339698Y-10277852D01*
G01X14387704Y-10304014D02*
G01X14455268Y-10304014D01*
G01X14522070Y-10221464D02*
G01X14522070Y-10266422D01*
G01X14503274Y-10232640D02*
G01X14540866Y-10255246D01*
G01X14540866Y-10232640D02*
G01X14503274Y-10255246D01*
G01X14287120Y-9314112D02*
G01X14287120Y-9392852D01*
G01X14287120Y-9314112D02*
G01X14320902Y-9314112D01*
G01X14332078Y-9317668D01*
G01X14335888Y-9321478D01*
G01X14339698Y-9329098D01*
G01X14339698Y-9336464D01*
G01X14335888Y-9344084D01*
G01X14332078Y-9347640D01*
G01X14320902Y-9351450D01*
G01X14287120Y-9351450D01*
G01X14313282Y-9351450D02*
G01X14339698Y-9392852D01*
G01X14387704Y-9419014D02*
G01X14455268Y-9419014D01*
G01X14522070Y-9336464D02*
G01X14522070Y-9381422D01*
G01X14503274Y-9347640D02*
G01X14540866Y-9370246D01*
G01X14540866Y-9347640D02*
G01X14503274Y-9370246D01*
G01X14287120Y-9609112D02*
G01X14287120Y-9687852D01*
G01X14287120Y-9609112D02*
G01X14320902Y-9609112D01*
G01X14332078Y-9612668D01*
G01X14335888Y-9616478D01*
G01X14339698Y-9624098D01*
G01X14339698Y-9631464D01*
G01X14335888Y-9639084D01*
G01X14332078Y-9642640D01*
G01X14320902Y-9646450D01*
G01X14287120Y-9646450D01*
G01X14313282Y-9646450D02*
G01X14339698Y-9687852D01*
G01X14387704Y-9714014D02*
G01X14455268Y-9714014D01*
G01X14522070Y-9631464D02*
G01X14522070Y-9676422D01*
G01X14503274Y-9642640D02*
G01X14540866Y-9665246D01*
G01X14540866Y-9642640D02*
G01X14503274Y-9665246D01*
G01X10387555Y-11581112D02*
G01X10387555Y-11659852D01*
G01X10435561Y-11581112D02*
G01X10435561Y-11659852D01*
G01X10435561Y-11581112D02*
G01X10461723Y-11581112D01*
G01X10473153Y-11584668D01*
G01X10480519Y-11592288D01*
G01X10484329Y-11599654D01*
G01X10488139Y-11611084D01*
G01X10488139Y-11629626D01*
G01X10484329Y-11641056D01*
G01X10480519Y-11648422D01*
G01X10473153Y-11656042D01*
G01X10461723Y-11659852D01*
G01X10435561Y-11659852D01*
G01X10592279Y-11599654D02*
G01X10588723Y-11592288D01*
G01X10581103Y-11584668D01*
G01X10573737Y-11581112D01*
G01X10558751Y-11581112D01*
G01X10551131Y-11584668D01*
G01X10543765Y-11592288D01*
G01X10539955Y-11599654D01*
G01X10536145Y-11611084D01*
G01X10536145Y-11629626D01*
G01X10539955Y-11641056D01*
G01X10543765Y-11648422D01*
G01X10551131Y-11656042D01*
G01X10558751Y-11659852D01*
G01X10573737Y-11659852D01*
G01X10581103Y-11656042D01*
G01X10588723Y-11648422D01*
G01X10592279Y-11641056D01*
G01X10640285Y-11599654D02*
G01X10640285Y-11596098D01*
G01X10644095Y-11588478D01*
G01X10647905Y-11584668D01*
G01X10655271Y-11581112D01*
G01X10670257Y-11581112D01*
G01X10677877Y-11584668D01*
G01X10681433Y-11588478D01*
G01X10685243Y-11596098D01*
G01X10685243Y-11603464D01*
G01X10681433Y-11611084D01*
G01X10677877Y-11614640D01*
G01X10662891Y-11622260D01*
G01X10662891Y-11633436D01*
G01X10662891Y-11652232D02*
G01X10659081Y-11656042D01*
G01X10662891Y-11659852D01*
G01X10666447Y-11656042D01*
G01X10662891Y-11652232D01*
G01X10733249Y-11581112D02*
G01X10733249Y-11659852D01*
G01X10785827Y-11581112D02*
G01X10785827Y-11659852D01*
G01X10733249Y-11618450D02*
G01X10785827Y-11618450D01*
G01X10833833Y-11629626D02*
G01X10878791Y-11629626D01*
G01X10878791Y-11622260D01*
G01X10874981Y-11614640D01*
G01X10871425Y-11611084D01*
G01X10863805Y-11607274D01*
G01X10852629Y-11607274D01*
G01X10845009Y-11611084D01*
G01X10837643Y-11618450D01*
G01X10833833Y-11629626D01*
G01X10833833Y-11637246D01*
G01X10837643Y-11648422D01*
G01X10845009Y-11656042D01*
G01X10852629Y-11659852D01*
G01X10863805Y-11659852D01*
G01X10871425Y-11656042D01*
G01X10878791Y-11648422D01*
G01X10971755Y-11607274D02*
G01X10971755Y-11659852D01*
G01X10971755Y-11618450D02*
G01X10964389Y-11611084D01*
G01X10956769Y-11607274D01*
G01X10945593Y-11607274D01*
G01X10937973Y-11611084D01*
G01X10930607Y-11618450D01*
G01X10926797Y-11629626D01*
G01X10926797Y-11637246D01*
G01X10930607Y-11648422D01*
G01X10937973Y-11656042D01*
G01X10945593Y-11659852D01*
G01X10956769Y-11659852D01*
G01X10964389Y-11656042D01*
G01X10971755Y-11648422D01*
G01X11064719Y-11581112D02*
G01X11064719Y-11659852D01*
G01X11064719Y-11618450D02*
G01X11057353Y-11611084D01*
G01X11049733Y-11607274D01*
G01X11038557Y-11607274D01*
G01X11030937Y-11611084D01*
G01X11023571Y-11618450D01*
G01X11019761Y-11629626D01*
G01X11019761Y-11637246D01*
G01X11023571Y-11648422D01*
G01X11030937Y-11656042D01*
G01X11038557Y-11659852D01*
G01X11049733Y-11659852D01*
G01X11057353Y-11656042D01*
G01X11064719Y-11648422D01*
G01X11112725Y-11629626D02*
G01X11157683Y-11629626D01*
G01X11157683Y-11622260D01*
G01X11153873Y-11614640D01*
G01X11150317Y-11611084D01*
G01X11142697Y-11607274D01*
G01X11131521Y-11607274D01*
G01X11123901Y-11611084D01*
G01X11116535Y-11618450D01*
G01X11112725Y-11629626D01*
G01X11112725Y-11637246D01*
G01X11116535Y-11648422D01*
G01X11123901Y-11656042D01*
G01X11131521Y-11659852D01*
G01X11142697Y-11659852D01*
G01X11150317Y-11656042D01*
G01X11157683Y-11648422D01*
G01X11205689Y-11607274D02*
G01X11205689Y-11659852D01*
G01X11205689Y-11629626D02*
G01X11209499Y-11618450D01*
G01X11216865Y-11611084D01*
G01X11224485Y-11607274D01*
G01X11235661Y-11607274D01*
G01X11302463Y-11603464D02*
G01X11302463Y-11648422D01*
G01X11283667Y-11614640D02*
G01X11321259Y-11637246D01*
G01X11321259Y-11614640D02*
G01X11283667Y-11637246D01*
G01X11373075Y-11599654D02*
G01X11373075Y-11596098D01*
G01X11376885Y-11588478D01*
G01X11380441Y-11584668D01*
G01X11388061Y-11581112D01*
G01X11403047Y-11581112D01*
G01X11410413Y-11584668D01*
G01X11414223Y-11588478D01*
G01X11418033Y-11596098D01*
G01X11418033Y-11603464D01*
G01X11414223Y-11611084D01*
G01X11406857Y-11622260D01*
G01X11369265Y-11659852D01*
G01X11421843Y-11659852D01*
G01X11469849Y-11607274D02*
G01X11510997Y-11659852D01*
G01X11510997Y-11607274D02*
G01X11469849Y-11659852D01*
G01X11581609Y-11581112D02*
G01X11570179Y-11584668D01*
G01X11562813Y-11596098D01*
G01X11559003Y-11614640D01*
G01X11559003Y-11626070D01*
G01X11562813Y-11644866D01*
G01X11570179Y-11656042D01*
G01X11581609Y-11659852D01*
G01X11588975Y-11659852D01*
G01X11600151Y-11656042D01*
G01X11607771Y-11644866D01*
G01X11611581Y-11626070D01*
G01X11611581Y-11614640D01*
G01X11607771Y-11596098D01*
G01X11600151Y-11584668D01*
G01X11588975Y-11581112D01*
G01X11581609Y-11581112D01*
G01X11667207Y-11581112D02*
G01X11708355Y-11581112D01*
G01X11685749Y-11611084D01*
G01X11697179Y-11611084D01*
G01X11704545Y-11614640D01*
G01X11708355Y-11618450D01*
G01X11712165Y-11629626D01*
G01X11712165Y-11637246D01*
G01X11708355Y-11648422D01*
G01X11700735Y-11656042D01*
G01X11689559Y-11659852D01*
G01X11678383Y-11659852D01*
G01X11667207Y-11656042D01*
G01X11663397Y-11652232D01*
G01X11659587Y-11644866D01*
G01X11778967Y-11603464D02*
G01X11778967Y-11648422D01*
G01X11760171Y-11614640D02*
G01X11797763Y-11637246D01*
G01X11797763Y-11614640D02*
G01X11760171Y-11637246D01*
G01X11929843Y-11581112D02*
G01X11929843Y-11659852D01*
G01X11929843Y-11581112D02*
G01X11963625Y-11581112D01*
G01X11974801Y-11584668D01*
G01X11978611Y-11588478D01*
G01X11982167Y-11596098D01*
G01X11982167Y-11607274D01*
G01X11978611Y-11614640D01*
G01X11974801Y-11618450D01*
G01X11963625Y-11622260D01*
G01X11929843Y-11622260D01*
G01X12030173Y-11581112D02*
G01X12033983Y-11584668D01*
G01X12037793Y-11581112D01*
G01X12033983Y-11577302D01*
G01X12030173Y-11581112D01*
G01X12033983Y-11607274D02*
G01X12033983Y-11659852D01*
G01X12085799Y-11607274D02*
G01X12085799Y-11659852D01*
G01X12085799Y-11622260D02*
G01X12096975Y-11611084D01*
G01X12104595Y-11607274D01*
G01X12115771Y-11607274D01*
G01X12123391Y-11611084D01*
G01X12126947Y-11622260D01*
G01X12126947Y-11659852D01*
G01X12174953Y-11599654D02*
G01X12174953Y-11596098D01*
G01X12178763Y-11588478D01*
G01X12182573Y-11584668D01*
G01X12189939Y-11581112D01*
G01X12204925Y-11581112D01*
G01X12212545Y-11584668D01*
G01X12216101Y-11588478D01*
G01X12219911Y-11596098D01*
G01X12219911Y-11603464D01*
G01X12216101Y-11611084D01*
G01X12212545Y-11614640D01*
G01X12197559Y-11622260D01*
G01X12197559Y-11633436D01*
G01X12197559Y-11652232D02*
G01X12193749Y-11656042D01*
G01X12197559Y-11659852D01*
G01X12201115Y-11656042D01*
G01X12197559Y-11652232D01*
G01X12267917Y-11581112D02*
G01X12267917Y-11659852D01*
G01X12320495Y-11581112D02*
G01X12320495Y-11659852D01*
G01X12267917Y-11618450D02*
G01X12320495Y-11618450D01*
G01X12368501Y-11629626D02*
G01X12413459Y-11629626D01*
G01X12413459Y-11622260D01*
G01X12409649Y-11614640D01*
G01X12406093Y-11611084D01*
G01X12398473Y-11607274D01*
G01X12387297Y-11607274D01*
G01X12379677Y-11611084D01*
G01X12372311Y-11618450D01*
G01X12368501Y-11629626D01*
G01X12368501Y-11637246D01*
G01X12372311Y-11648422D01*
G01X12379677Y-11656042D01*
G01X12387297Y-11659852D01*
G01X12398473Y-11659852D01*
G01X12406093Y-11656042D01*
G01X12413459Y-11648422D01*
G01X12506423Y-11607274D02*
G01X12506423Y-11659852D01*
G01X12506423Y-11618450D02*
G01X12499057Y-11611084D01*
G01X12491437Y-11607274D01*
G01X12480261Y-11607274D01*
G01X12472641Y-11611084D01*
G01X12465275Y-11618450D01*
G01X12461465Y-11629626D01*
G01X12461465Y-11637246D01*
G01X12465275Y-11648422D01*
G01X12472641Y-11656042D01*
G01X12480261Y-11659852D01*
G01X12491437Y-11659852D01*
G01X12499057Y-11656042D01*
G01X12506423Y-11648422D01*
G01X12599387Y-11581112D02*
G01X12599387Y-11659852D01*
G01X12599387Y-11618450D02*
G01X12592021Y-11611084D01*
G01X12584401Y-11607274D01*
G01X12573225Y-11607274D01*
G01X12565605Y-11611084D01*
G01X12558239Y-11618450D01*
G01X12554429Y-11629626D01*
G01X12554429Y-11637246D01*
G01X12558239Y-11648422D01*
G01X12565605Y-11656042D01*
G01X12573225Y-11659852D01*
G01X12584401Y-11659852D01*
G01X12592021Y-11656042D01*
G01X12599387Y-11648422D01*
G01X12647393Y-11629626D02*
G01X12692351Y-11629626D01*
G01X12692351Y-11622260D01*
G01X12688541Y-11614640D01*
G01X12684985Y-11611084D01*
G01X12677365Y-11607274D01*
G01X12666189Y-11607274D01*
G01X12658569Y-11611084D01*
G01X12651203Y-11618450D01*
G01X12647393Y-11629626D01*
G01X12647393Y-11637246D01*
G01X12651203Y-11648422D01*
G01X12658569Y-11656042D01*
G01X12666189Y-11659852D01*
G01X12677365Y-11659852D01*
G01X12684985Y-11656042D01*
G01X12692351Y-11648422D01*
G01X12740357Y-11607274D02*
G01X12740357Y-11659852D01*
G01X12740357Y-11629626D02*
G01X12744167Y-11618450D01*
G01X12751533Y-11611084D01*
G01X12759153Y-11607274D01*
G01X12770329Y-11607274D01*
G01X12837131Y-11603464D02*
G01X12837131Y-11648422D01*
G01X12818335Y-11614640D02*
G01X12855927Y-11637246D01*
G01X12855927Y-11614640D02*
G01X12818335Y-11637246D01*
G01X12907743Y-11599654D02*
G01X12907743Y-11596098D01*
G01X12911553Y-11588478D01*
G01X12915109Y-11584668D01*
G01X12922729Y-11581112D01*
G01X12937715Y-11581112D01*
G01X12945081Y-11584668D01*
G01X12948891Y-11588478D01*
G01X12952701Y-11596098D01*
G01X12952701Y-11603464D01*
G01X12948891Y-11611084D01*
G01X12941525Y-11622260D01*
G01X12903933Y-11659852D01*
G01X12956511Y-11659852D01*
G01X13004517Y-11607274D02*
G01X13045665Y-11659852D01*
G01X13045665Y-11607274D02*
G01X13004517Y-11659852D01*
G01X13116277Y-11581112D02*
G01X13104847Y-11584668D01*
G01X13097481Y-11596098D01*
G01X13093671Y-11614640D01*
G01X13093671Y-11626070D01*
G01X13097481Y-11644866D01*
G01X13104847Y-11656042D01*
G01X13116277Y-11659852D01*
G01X13123643Y-11659852D01*
G01X13134819Y-11656042D01*
G01X13142439Y-11644866D01*
G01X13146249Y-11626070D01*
G01X13146249Y-11614640D01*
G01X13142439Y-11596098D01*
G01X13134819Y-11584668D01*
G01X13123643Y-11581112D01*
G01X13116277Y-11581112D01*
G01X13201875Y-11581112D02*
G01X13243023Y-11581112D01*
G01X13220417Y-11611084D01*
G01X13231847Y-11611084D01*
G01X13239213Y-11614640D01*
G01X13243023Y-11618450D01*
G01X13246833Y-11629626D01*
G01X13246833Y-11637246D01*
G01X13243023Y-11648422D01*
G01X13235403Y-11656042D01*
G01X13224227Y-11659852D01*
G01X13213051Y-11659852D01*
G01X13201875Y-11656042D01*
G01X13198065Y-11652232D01*
G01X13194255Y-11644866D01*
G01X13313635Y-11603464D02*
G01X13313635Y-11648422D01*
G01X13294839Y-11614640D02*
G01X13332431Y-11637246D01*
G01X13332431Y-11614640D02*
G01X13294839Y-11637246D01*
G01X14287120Y-9019112D02*
G01X14287120Y-9097852D01*
G01X14287120Y-9019112D02*
G01X14320902Y-9019112D01*
G01X14332078Y-9022668D01*
G01X14335888Y-9026478D01*
G01X14339698Y-9034098D01*
G01X14339698Y-9041464D01*
G01X14335888Y-9049084D01*
G01X14332078Y-9052640D01*
G01X14320902Y-9056450D01*
G01X14287120Y-9056450D01*
G01X14313282Y-9056450D02*
G01X14339698Y-9097852D01*
G01X14387704Y-9124014D02*
G01X14455268Y-9124014D01*
G01X14522070Y-9041464D02*
G01X14522070Y-9086422D01*
G01X14503274Y-9052640D02*
G01X14540866Y-9075246D01*
G01X14540866Y-9052640D02*
G01X14503274Y-9075246D01*
G04 Text End*

G04 PolygonModel Start*
G54D14*
G01X12423000Y-8093381D02*
G01X12423000Y-8326619D01*
G01X12423000Y-8093381D02*
G02X12423004Y-8326625I150000J-116619D01*
G01X13407000Y-8083381D02*
G01X13407000Y-8316619D01*
G01X13407000Y-8083381D02*
G02X13407005Y-8316625I150000J-116619D01*
G36*
G01X12410895Y-9193175D02*
G01X12410895Y-9243335D01*
G01X12741935Y-9243335D01*
G01X12741935Y-9193175D01*
G01X12410895Y-9193175D01*
G37*
G36*
G01X12446005Y-8164891D02*
G01X12446005Y-8240132D01*
G01X12751966Y-8240132D01*
G01X12751966Y-8164891D01*
G01X12446005Y-8164891D01*
G37*
G36*
G01X12546321Y-8029459D02*
G01X12546321Y-8365532D01*
G01X12616541Y-8365532D01*
G01X12616541Y-8029459D01*
G01X12546321Y-8029459D01*
G37*
G36*
G01X12551336Y-9027646D02*
G01X12551336Y-9403848D01*
G01X12601494Y-9403848D01*
G01X12601494Y-9027646D01*
G01X12551336Y-9027646D01*
G37*
G36*
G01X13404013Y-9178127D02*
G01X13404013Y-9248351D01*
G01X13735052Y-9248351D01*
G01X13735052Y-9178127D01*
G01X13404013Y-9178127D01*
G37*
G36*
G01X13414045Y-8174923D02*
G01X13414045Y-8225083D01*
G01X13714989Y-8225083D01*
G01X13714989Y-8174923D01*
G01X13414045Y-8174923D01*
G37*
G36*
G01X13534423Y-8059555D02*
G01X13534423Y-8365532D01*
G01X13584580Y-8365532D01*
G01X13584580Y-8059555D01*
G01X13534423Y-8059555D01*
G37*
G36*
G01X13534423Y-9037678D02*
G01X13534423Y-9433943D01*
G01X13599627Y-9433943D01*
G01X13599627Y-9037678D01*
G01X13534423Y-9037678D01*
G37*
G36*
G01X11703675Y-10993925D02*
G01X11656665Y-11107424D01*
G01X11543171Y-11154437D01*
G01X11429678Y-11107424D01*
G01X11382667Y-10993925D01*
G01X11429678Y-10880425D01*
G01X11543171Y-10833412D01*
G01X11656665Y-10880425D01*
G01X11703675Y-10993925D01*
G37*
G36*
G01X17101383Y-11073016D02*
G01X17054373Y-11186515D01*
G01X16940880Y-11233528D01*
G01X16827386Y-11186515D01*
G01X16780376Y-11073016D01*
G01X16827386Y-10959516D01*
G01X16940880Y-10912503D01*
G01X17054373Y-10959516D01*
G01X17101383Y-11073016D01*
G37*
G01X12413000Y-9093381D02*
G01X12413000Y-9326619D01*
G01X12413000Y-9093381D02*
G02X12413005Y-9326625I150000J-116619D01*
G01X13407000Y-9083381D02*
G01X13407000Y-9316619D01*
G01X13407000Y-9083381D02*
G02X13407005Y-9316625I150000J-116619D01*

G04 Circle Start*
G01X12423000Y-8210000D02*
G03X12723000Y-8210000I150000J0D01*
G03X12423000Y-8210000I-150000J0D01*
G01X13407000Y-8200000D02*
G03X13707000Y-8200000I150000J0D01*
G03X13407000Y-8200000I-150000J0D01*
G01X12413000Y-9210000D02*
G03X12713000Y-9210000I150000J0D01*
G03X12413000Y-9210000I-150000J0D01*
G01X13407000Y-9200000D02*
G03X13707000Y-9200000I150000J0D01*
G03X13407000Y-9200000I-150000J0D01*
G04 Circle End*

M02*

