G04 Layer: BottomPasteMaskLayer*
G04 EasyEDA Pro v2.2.43.4, 2025-11-10 11:02:42*
G04 Gerber Generator version 0.3*
G04 Scale: 100 percent, Rotated: No, Reflected: No*
G04 Dimensions in millimeters*
G04 Leading zeros omitted, absolute positions, 4 integers and 5 decimals*
G04 Generated by one-click*
%FSLAX45Y45*%
%MOMM*%
%AMRoundRect*1,1,$1,$2,$3*1,1,$1,$4,$5*1,1,$1,0-$2,0-$3*1,1,$1,0-$4,0-$5*20,1,$1,$2,$3,$4,$5,0*20,1,$1,$4,$5,0-$2,0-$3,0*20,1,$1,0-$2,0-$3,0-$4,0-$5,0*20,1,$1,0-$4,0-$5,$2,$3,0*4,1,4,$2,$3,$4,$5,0-$2,0-$3,0-$4,0-$5,$2,$3,0*%
%ADD10C,1.5*%
%ADD11RoundRect,0.5X-0.35X0.45X0.35X0.45*%
%ADD12R,5.08X1.27*%
%ADD13C,17.8*%
%ADD14R,1.0X0.7*%
%ADD15R,1.2X2.5*%
%ADD16RoundRect,0.055X-0.3775X0.0825X0.3775X0.0825*%
%ADD17RoundRect,0.055X-0.0825X0.3775X0.0825X0.3775*%
%ADD18R,1.7X1.7*%
%ADD19C,0.7945*%
%ADD20C,0.787*%
G75*


G04 PolygonModel Start*
G36*
G01X15458500Y-9619000D02*
G01X15350500Y-9619000D01*
G01X15350500Y-9727000D01*
G01X15458500Y-9727000D01*
G01X15458500Y-9619000D01*
G37*

G04 Pad Start*
G54D10*
G01X12600000Y-14090000D03*
G01X15940000Y-14070000D03*
G01X12600000Y-5500000D03*
G01X15500000Y-5500000D03*
G54D11*
G01X14514000Y-9949000D03*
G01X14314000Y-9949000D03*
G54D12*
G01X15310000Y-6511500D03*
G01X15310000Y-8708500D03*
G54D13*
G01X15310000Y-7610000D03*
G54D14*
G01X16737000Y-11373000D03*
G01X16137000Y-11373000D03*
G01X16737000Y-11753000D03*
G01X16137000Y-11753000D03*
G54D11*
G01X14514000Y-10244000D03*
G01X14314000Y-10244000D03*
G54D15*
G01X13265000Y-7280000D03*
G01X13265000Y-6730000D03*
G01X13015000Y-7280000D03*
G01X13015000Y-6730000D03*
G01X12765000Y-7280000D03*
G01X12765000Y-6730000D03*
G54D16*
G01X15549500Y-9593000D03*
G01X15549500Y-9633000D03*
G01X15549500Y-9673000D03*
G01X15549500Y-9713000D03*
G01X15549500Y-9753000D03*
G54D17*
G01X15484500Y-9818000D03*
G01X15444500Y-9818000D03*
G01X15404500Y-9818000D03*
G01X15364500Y-9818000D03*
G01X15324500Y-9818000D03*
G54D16*
G01X15259500Y-9753000D03*
G01X15259500Y-9713000D03*
G01X15259500Y-9673000D03*
G01X15259500Y-9633000D03*
G01X15259500Y-9593000D03*
G54D17*
G01X15324500Y-9528000D03*
G01X15364500Y-9528000D03*
G01X15404500Y-9528000D03*
G01X15444500Y-9528000D03*
G01X15484500Y-9528000D03*
G54D18*
G01X15404500Y-9673000D03*
G54D11*
G01X14514000Y-9359000D03*
G01X14314000Y-9359000D03*
G01X14514000Y-9654000D03*
G01X14314000Y-9654000D03*
G54D20*
G01X11725296Y-11670901D03*
G01X11815099Y-11760704D03*
G01X11815099Y-11581099D03*
G01X11904901Y-11670901D03*
G01X11904901Y-11491296D03*
G01X11994704Y-11581099D03*
G54D11*
G01X14514000Y-9064000D03*
G01X14314000Y-9064000D03*
G04 Pad End*

M02*

